<svg width="327" height="209" viewBox="0 0 327 209" fill="none" xmlns="http://www.w3.org/2000/svg">
<g mask="url(#mask0_537_123)">
<path d="M-29.7721 81.7816L34.0864 131.337L222.842 114.819L158.983 65.2629L-29.7721 81.7816Z" stroke="white" stroke-width="4.37824" stroke-miterlimit="10"/>
<path d="M34.0869 -22.3662V131.337" stroke="white" stroke-width="4.37824" stroke-miterlimit="10"/>
<path d="M222.842 -38.8848V114.819" stroke="white" stroke-width="4.37824" stroke-miterlimit="10"/>
<path d="M98.3478 106.761C144.074 106.761 181.142 69.6925 181.142 23.9664C181.142 -21.7597 144.074 -58.828 98.3478 -58.828C52.6217 -58.828 15.5533 -21.7597 15.5533 23.9664C15.5533 69.6925 52.6217 106.761 98.3478 106.761Z" stroke="white" stroke-width="4.37824" stroke-miterlimit="10"/>
<path d="M159.185 -88.4403V65.2632" stroke="white" stroke-width="4.37824" stroke-miterlimit="10"/>
</g>
<path transform="translate(-20 0)" d="M173.799 128.377H182.446C183.391 128.377 184.336 128.483 185.281 128.696C186.226 128.908 187.064 129.263 187.797 129.759C188.553 130.255 189.155 130.904 189.604 131.708C190.077 132.511 190.313 133.515 190.313 134.72C190.313 136.114 189.911 137.283 189.108 138.228C188.305 139.173 187.242 139.823 185.919 140.177V140.248C186.722 140.343 187.466 140.555 188.151 140.886C188.836 141.193 189.427 141.607 189.923 142.126C190.419 142.646 190.797 143.26 191.057 143.969C191.34 144.678 191.482 145.469 191.482 146.343C191.482 147.548 191.234 148.6 190.738 149.497C190.242 150.395 189.569 151.139 188.718 151.73C187.868 152.297 186.864 152.734 185.706 153.041C184.572 153.325 183.355 153.466 182.056 153.466H173.799V128.377ZM177.307 138.972H181.879C182.54 138.972 183.166 138.902 183.757 138.76C184.371 138.594 184.903 138.358 185.352 138.051C185.8 137.72 186.155 137.319 186.415 136.846C186.675 136.35 186.804 135.759 186.804 135.074C186.804 133.728 186.308 132.771 185.316 132.204C184.324 131.613 182.989 131.318 181.312 131.318H177.307V138.972ZM177.307 150.49H181.701C182.434 150.49 183.166 150.431 183.899 150.312C184.655 150.171 185.328 149.934 185.919 149.604C186.533 149.273 187.017 148.836 187.371 148.293C187.749 147.726 187.938 147.017 187.938 146.166C187.938 144.678 187.431 143.603 186.415 142.941C185.399 142.28 183.934 141.949 182.02 141.949H177.307V150.49ZM206.813 142.587C206.813 141.335 206.435 140.414 205.679 139.823C204.923 139.209 203.919 138.902 202.666 138.902C201.721 138.902 200.824 139.091 199.973 139.469C199.146 139.823 198.449 140.284 197.882 140.851L196.11 138.724C196.937 137.945 197.941 137.33 199.123 136.882C200.328 136.433 201.615 136.208 202.985 136.208C204.19 136.208 205.23 136.385 206.104 136.74C207.002 137.071 207.734 137.531 208.301 138.122C208.868 138.713 209.293 139.41 209.577 140.213C209.86 141.016 210.002 141.878 210.002 142.8V150.135C210.002 150.702 210.014 151.305 210.037 151.943C210.085 152.557 210.156 153.065 210.25 153.466H207.238C207.049 152.663 206.954 151.86 206.954 151.057H206.848C206.234 151.954 205.454 152.651 204.509 153.147C203.588 153.644 202.489 153.892 201.213 153.892C200.552 153.892 199.855 153.797 199.123 153.608C198.414 153.443 197.764 153.159 197.174 152.758C196.583 152.356 196.087 151.824 195.685 151.163C195.307 150.501 195.118 149.686 195.118 148.718C195.118 147.442 195.461 146.438 196.146 145.706C196.831 144.95 197.729 144.383 198.839 144.005C199.95 143.603 201.202 143.343 202.596 143.225C203.989 143.107 205.395 143.048 206.813 143.048V142.587ZM205.998 145.458C205.171 145.458 204.308 145.493 203.411 145.564C202.536 145.635 201.733 145.776 201.001 145.989C200.292 146.202 199.701 146.521 199.229 146.946C198.756 147.371 198.52 147.938 198.52 148.647C198.52 149.143 198.615 149.556 198.804 149.887C199.016 150.218 199.288 150.49 199.619 150.702C199.95 150.915 200.316 151.068 200.717 151.163C201.119 151.234 201.532 151.269 201.958 151.269C203.517 151.269 204.71 150.809 205.537 149.887C206.387 148.942 206.813 147.761 206.813 146.343V145.458H205.998ZM227.331 140.922C226.976 140.378 226.445 139.929 225.736 139.575C225.027 139.197 224.271 139.008 223.468 139.008C222.594 139.008 221.814 139.173 221.129 139.504C220.468 139.835 219.901 140.284 219.428 140.851C218.956 141.394 218.589 142.032 218.33 142.764C218.093 143.497 217.975 144.264 217.975 145.068C217.975 145.871 218.093 146.639 218.33 147.371C218.589 148.104 218.956 148.753 219.428 149.32C219.901 149.864 220.479 150.301 221.165 150.631C221.85 150.962 222.629 151.128 223.503 151.128C224.354 151.128 225.122 150.962 225.807 150.631C226.516 150.301 227.094 149.852 227.543 149.285L229.776 151.305C229.067 152.132 228.181 152.781 227.118 153.254C226.055 153.703 224.85 153.927 223.503 153.927C222.204 153.927 220.999 153.714 219.889 153.289C218.802 152.864 217.857 152.273 217.054 151.517C216.251 150.738 215.613 149.805 215.14 148.718C214.691 147.631 214.467 146.414 214.467 145.068C214.467 143.745 214.691 142.54 215.14 141.453C215.589 140.366 216.215 139.433 217.018 138.653C217.822 137.874 218.767 137.271 219.853 136.846C220.964 136.421 222.157 136.208 223.433 136.208C224.614 136.208 225.783 136.445 226.941 136.917C228.122 137.39 229.055 138.075 229.74 138.972L227.331 140.922ZM236.479 143.969H236.585L243.637 136.669H248.102L240.235 144.288L248.775 153.466H244.169L236.585 144.749H236.479V153.466H233.147V126.676H236.479V143.969ZM263.438 143.579C263.415 142.918 263.297 142.304 263.084 141.737C262.895 141.146 262.6 140.638 262.198 140.213C261.82 139.788 261.336 139.457 260.745 139.221C260.178 138.961 259.505 138.831 258.725 138.831C258.016 138.831 257.343 138.961 256.705 139.221C256.091 139.457 255.548 139.788 255.075 140.213C254.626 140.638 254.248 141.146 253.941 141.737C253.658 142.304 253.492 142.918 253.445 143.579H263.438ZM266.805 144.926C266.805 145.115 266.805 145.304 266.805 145.493C266.805 145.682 266.793 145.871 266.77 146.06H253.445C253.469 146.769 253.622 147.442 253.906 148.08C254.213 148.694 254.614 149.238 255.111 149.71C255.607 150.159 256.174 150.513 256.812 150.773C257.473 151.033 258.17 151.163 258.902 151.163C260.036 151.163 261.017 150.915 261.844 150.419C262.671 149.923 263.32 149.32 263.793 148.611L266.132 150.49C265.234 151.671 264.171 152.545 262.942 153.112C261.737 153.655 260.391 153.927 258.902 153.927C257.627 153.927 256.445 153.714 255.359 153.289C254.272 152.864 253.339 152.273 252.559 151.517C251.779 150.738 251.165 149.805 250.716 148.718C250.267 147.631 250.043 146.426 250.043 145.103C250.043 143.804 250.256 142.611 250.681 141.524C251.13 140.414 251.744 139.469 252.524 138.689C253.303 137.909 254.225 137.307 255.288 136.882C256.351 136.433 257.497 136.208 258.725 136.208C259.954 136.208 261.064 136.409 262.056 136.811C263.072 137.212 263.923 137.791 264.608 138.547C265.317 139.303 265.86 140.225 266.238 141.311C266.616 142.374 266.805 143.579 266.805 144.926ZM274.468 136.669C274.515 137.094 274.551 137.579 274.574 138.122C274.598 138.642 274.61 139.079 274.61 139.433H274.716C274.929 138.984 275.212 138.571 275.567 138.193C275.945 137.791 276.37 137.449 276.842 137.165C277.315 136.858 277.835 136.622 278.402 136.456C278.969 136.291 279.559 136.208 280.174 136.208C281.26 136.208 282.193 136.397 282.973 136.775C283.753 137.13 284.402 137.614 284.922 138.228C285.442 138.842 285.82 139.563 286.056 140.39C286.316 141.217 286.446 142.103 286.446 143.048V153.466H283.115V144.146C283.115 143.461 283.056 142.812 282.938 142.197C282.843 141.583 282.654 141.04 282.371 140.567C282.087 140.095 281.697 139.717 281.201 139.433C280.705 139.15 280.067 139.008 279.288 139.008C277.965 139.008 276.878 139.516 276.027 140.532C275.2 141.524 274.787 142.859 274.787 144.536V153.466H271.456V140.284C271.456 139.835 271.444 139.256 271.42 138.547C271.397 137.838 271.361 137.212 271.314 136.669H274.468ZM305.477 150.809C304.839 151.824 303.965 152.604 302.855 153.147C301.768 153.667 300.622 153.927 299.417 153.927C298.118 153.927 296.948 153.703 295.909 153.254C294.869 152.781 293.983 152.143 293.251 151.34C292.519 150.537 291.952 149.592 291.55 148.505C291.148 147.418 290.948 146.261 290.948 145.032C290.948 143.804 291.148 142.658 291.55 141.595C291.952 140.508 292.519 139.563 293.251 138.76C294.007 137.957 294.905 137.33 295.944 136.882C296.984 136.433 298.13 136.208 299.382 136.208C300.752 136.208 301.945 136.504 302.961 137.094C303.977 137.661 304.78 138.358 305.371 139.185H305.442V126.676H308.773V153.466H305.548V150.809H305.477ZM294.421 145.032C294.421 145.812 294.539 146.568 294.775 147.3C295.011 148.033 295.366 148.682 295.838 149.249C296.311 149.816 296.889 150.277 297.574 150.631C298.26 150.962 299.063 151.128 299.984 151.128C300.835 151.128 301.603 150.962 302.288 150.631C302.996 150.301 303.599 149.864 304.095 149.32C304.591 148.753 304.969 148.104 305.229 147.371C305.513 146.639 305.654 145.871 305.654 145.068C305.654 144.264 305.513 143.497 305.229 142.764C304.969 142.032 304.591 141.382 304.095 140.815C303.599 140.248 302.996 139.799 302.288 139.469C301.603 139.138 300.835 138.972 299.984 138.972C299.063 138.972 298.26 139.138 297.574 139.469C296.889 139.799 296.311 140.248 295.838 140.815C295.366 141.382 295.011 142.032 294.775 142.764C294.539 143.497 294.421 144.253 294.421 145.032ZM177.307 186.348H190.419V189.466H173.799V164.377H189.888V167.46H177.307V174.972H189.143V177.985H177.307V186.348ZM197.917 172.669C197.964 173.094 198 173.579 198.024 174.122C198.047 174.642 198.059 175.079 198.059 175.433H198.165C198.378 174.984 198.661 174.571 199.016 174.193C199.394 173.791 199.819 173.449 200.292 173.165C200.764 172.858 201.284 172.622 201.851 172.456C202.418 172.291 203.008 172.208 203.623 172.208C204.709 172.208 205.643 172.397 206.422 172.775C207.202 173.13 207.852 173.614 208.371 174.228C208.891 174.842 209.269 175.563 209.505 176.39C209.765 177.217 209.895 178.103 209.895 179.048V189.466H206.564V180.146C206.564 179.461 206.505 178.812 206.387 178.197C206.292 177.583 206.103 177.04 205.82 176.567C205.536 176.095 205.146 175.717 204.65 175.433C204.154 175.15 203.516 175.008 202.737 175.008C201.414 175.008 200.327 175.516 199.476 176.532C198.65 177.524 198.236 178.859 198.236 180.536V189.466H194.905V176.284C194.905 175.835 194.893 175.256 194.87 174.547C194.846 173.838 194.811 173.212 194.763 172.669H197.917ZM216.842 192.337C217.574 193.164 218.484 193.825 219.571 194.321C220.681 194.818 221.815 195.066 222.973 195.066C224.083 195.066 225.016 194.9 225.772 194.569C226.528 194.262 227.131 193.825 227.58 193.258C228.052 192.715 228.383 192.065 228.572 191.309C228.785 190.553 228.891 189.738 228.891 188.864V186.702H228.82C228.206 187.647 227.367 188.368 226.304 188.864C225.241 189.36 224.107 189.608 222.902 189.608C221.626 189.608 220.457 189.384 219.394 188.935C218.354 188.486 217.468 187.872 216.736 187.092C216.003 186.312 215.436 185.403 215.035 184.363C214.633 183.3 214.432 182.166 214.432 180.961C214.432 179.757 214.633 178.623 215.035 177.559C215.436 176.496 216.003 175.575 216.736 174.795C217.468 173.992 218.354 173.366 219.394 172.917C220.433 172.445 221.591 172.208 222.866 172.208C224.071 172.208 225.217 172.468 226.304 172.988C227.414 173.508 228.288 174.299 228.926 175.362H228.997V172.669H232.222V188.616C232.222 189.844 232.068 191.014 231.761 192.124C231.454 193.258 230.934 194.251 230.202 195.101C229.47 195.975 228.513 196.672 227.332 197.192C226.15 197.712 224.686 197.971 222.937 197.971C221.473 197.971 219.996 197.7 218.508 197.156C217.043 196.637 215.779 195.892 214.716 194.924L216.842 192.337ZM217.87 180.891C217.87 181.67 217.988 182.414 218.224 183.123C218.484 183.832 218.85 184.458 219.323 185.001C219.819 185.545 220.409 185.982 221.095 186.312C221.78 186.643 222.559 186.809 223.433 186.809C224.284 186.809 225.064 186.655 225.772 186.348C226.481 186.041 227.083 185.627 227.58 185.108C228.076 184.564 228.454 183.938 228.714 183.229C228.997 182.497 229.139 181.717 229.139 180.891C229.139 180.087 228.997 179.331 228.714 178.623C228.454 177.914 228.064 177.288 227.544 176.744C227.048 176.201 226.446 175.776 225.737 175.469C225.052 175.138 224.284 174.972 223.433 174.972C222.559 174.972 221.78 175.138 221.095 175.469C220.409 175.776 219.819 176.201 219.323 176.744C218.85 177.264 218.484 177.89 218.224 178.623C217.988 179.331 217.87 180.087 217.87 180.891ZM241.288 189.466H237.957V172.669H241.288V189.466ZM241.855 166.609C241.855 167.223 241.631 167.731 241.182 168.133C240.757 168.535 240.237 168.735 239.623 168.735C239.008 168.735 238.489 168.535 238.063 168.133C237.638 167.708 237.425 167.2 237.425 166.609C237.425 165.995 237.638 165.487 238.063 165.085C238.489 164.66 239.008 164.447 239.623 164.447C240.237 164.447 240.757 164.66 241.182 165.085C241.631 165.487 241.855 165.995 241.855 166.609ZM250.105 172.669C250.152 173.094 250.187 173.579 250.211 174.122C250.235 174.642 250.246 175.079 250.246 175.433H250.353C250.565 174.984 250.849 174.571 251.203 174.193C251.581 173.791 252.006 173.449 252.479 173.165C252.951 172.858 253.471 172.622 254.038 172.456C254.605 172.291 255.196 172.208 255.81 172.208C256.897 172.208 257.83 172.397 258.61 172.775C259.389 173.13 260.039 173.614 260.559 174.228C261.079 174.842 261.457 175.563 261.693 176.39C261.953 177.217 262.083 178.103 262.083 179.048V189.466H258.751V180.146C258.751 179.461 258.692 178.812 258.574 178.197C258.48 177.583 258.291 177.04 258.007 176.567C257.724 176.095 257.334 175.717 256.838 175.433C256.342 175.15 255.704 175.008 254.924 175.008C253.601 175.008 252.514 175.516 251.664 176.532C250.837 177.524 250.424 178.859 250.424 180.536V189.466H247.092V176.284C247.092 175.835 247.081 175.256 247.057 174.547C247.033 173.838 246.998 173.212 246.951 172.669H250.105ZM280.015 179.579C279.992 178.918 279.873 178.304 279.661 177.737C279.472 177.146 279.176 176.638 278.775 176.213C278.397 175.788 277.913 175.457 277.322 175.221C276.755 174.961 276.082 174.831 275.302 174.831C274.593 174.831 273.92 174.961 273.282 175.221C272.668 175.457 272.124 175.788 271.652 176.213C271.203 176.638 270.825 177.146 270.518 177.737C270.234 178.304 270.069 178.918 270.022 179.579H280.015ZM283.382 180.926C283.382 181.115 283.382 181.304 283.382 181.493C283.382 181.682 283.37 181.871 283.346 182.06H270.022C270.045 182.769 270.199 183.442 270.482 184.08C270.79 184.694 271.191 185.238 271.687 185.71C272.183 186.159 272.75 186.513 273.388 186.773C274.05 187.033 274.747 187.163 275.479 187.163C276.613 187.163 277.594 186.915 278.42 186.419C279.247 185.923 279.897 185.32 280.37 184.611L282.708 186.49C281.811 187.671 280.748 188.545 279.519 189.112C278.314 189.655 276.968 189.927 275.479 189.927C274.203 189.927 273.022 189.714 271.935 189.289C270.849 188.864 269.915 188.273 269.136 187.517C268.356 186.738 267.742 185.805 267.293 184.718C266.844 183.631 266.62 182.426 266.62 181.103C266.62 179.804 266.832 178.611 267.258 177.524C267.706 176.414 268.321 175.469 269.1 174.689C269.88 173.909 270.801 173.307 271.864 172.882C272.928 172.433 274.073 172.208 275.302 172.208C276.53 172.208 277.641 172.409 278.633 172.811C279.649 173.212 280.499 173.791 281.185 174.547C281.893 175.303 282.437 176.225 282.815 177.311C283.193 178.374 283.382 179.579 283.382 180.926ZM300.329 179.579C300.306 178.918 300.188 178.304 299.975 177.737C299.786 177.146 299.491 176.638 299.089 176.213C298.711 175.788 298.227 175.457 297.636 175.221C297.069 174.961 296.396 174.831 295.616 174.831C294.908 174.831 294.234 174.961 293.596 175.221C292.982 175.457 292.439 175.788 291.966 176.213C291.517 176.638 291.139 177.146 290.832 177.737C290.549 178.304 290.383 178.918 290.336 179.579H300.329ZM303.696 180.926C303.696 181.115 303.696 181.304 303.696 181.493C303.696 181.682 303.684 181.871 303.661 182.06H290.336C290.36 182.769 290.513 183.442 290.797 184.08C291.104 184.694 291.506 185.238 292.002 185.71C292.498 186.159 293.065 186.513 293.703 186.773C294.364 187.033 295.061 187.163 295.793 187.163C296.927 187.163 297.908 186.915 298.735 186.419C299.562 185.923 300.211 185.32 300.684 184.611L303.023 186.49C302.125 187.671 301.062 188.545 299.833 189.112C298.628 189.655 297.282 189.927 295.793 189.927C294.518 189.927 293.336 189.714 292.25 189.289C291.163 188.864 290.23 188.273 289.45 187.517C288.671 186.738 288.056 185.805 287.607 184.718C287.159 183.631 286.934 182.426 286.934 181.103C286.934 179.804 287.147 178.611 287.572 177.524C288.021 176.414 288.635 175.469 289.415 174.689C290.194 173.909 291.116 173.307 292.179 172.882C293.242 172.433 294.388 172.208 295.616 172.208C296.845 172.208 297.955 172.409 298.947 172.811C299.963 173.212 300.814 173.791 301.499 174.547C302.208 175.303 302.751 176.225 303.129 177.311C303.507 178.374 303.696 179.579 303.696 180.926ZM308.347 176.284C308.347 175.835 308.335 175.256 308.312 174.547C308.288 173.838 308.252 173.212 308.205 172.669H311.359C311.406 173.094 311.442 173.59 311.465 174.157C311.489 174.701 311.501 175.15 311.501 175.504H311.607C312.08 174.512 312.765 173.72 313.663 173.13C314.584 172.515 315.612 172.208 316.746 172.208C317.265 172.208 317.703 172.256 318.057 172.35L317.915 175.433C317.443 175.315 316.935 175.256 316.391 175.256C315.588 175.256 314.891 175.41 314.301 175.717C313.71 176 313.214 176.39 312.812 176.886C312.434 177.382 312.151 177.961 311.962 178.623C311.773 179.26 311.678 179.934 311.678 180.642V189.466H308.347V176.284Z" fill="white"/>
</svg>
