<svg width="236" height="224" viewBox="0 0 236 224" fill="none" xmlns="http://www.w3.org/2000/svg">
<path d="M305.385 367.036C226.693 411.884 126.544 384.448 81.6959 305.756C36.8478 227.064 64.2836 126.915 142.976 82.0669C221.668 37.2188 321.817 64.6546 366.665 143.347C411.513 222.039 384.077 322.188 305.385 367.036Z" fill="black"/>
<path d="M80.0432 205.484L82.0624 198.873C82.3367 197.976 82.6965 197.126 83.1418 196.326C83.5872 195.525 84.127 194.853 84.7611 194.311C85.3748 193.762 86.0806 193.387 86.8786 193.184C87.6827 192.961 88.5847 193.003 89.5844 193.308C90.8494 193.694 91.7942 194.362 92.4188 195.312C93.0292 196.234 93.3303 197.33 93.3219 198.599L93.3831 198.617C93.6562 197.942 94.0361 197.356 94.5229 196.858C94.9955 196.333 95.5319 195.928 96.132 195.643C96.7384 195.337 97.3952 195.159 98.1025 195.107C98.7893 195.049 99.4898 195.129 100.204 195.347C101.408 195.715 102.319 196.272 102.939 197.019C103.565 197.746 103.987 198.589 104.207 199.548C104.413 200.481 104.452 201.485 104.324 202.562C104.202 203.618 103.989 204.645 103.683 205.645L101.711 212.103L80.0432 205.484ZM90.0097 205.718L91.0941 202.168C91.2811 201.556 91.421 200.951 91.5139 200.355C91.613 199.739 91.6118 199.158 91.5103 198.614C91.3884 198.064 91.1467 197.577 90.7851 197.155C90.4031 196.726 89.8346 196.396 89.0797 196.165C88.4064 195.96 87.8252 195.927 87.3362 196.068C86.8267 196.202 86.381 196.456 85.999 196.83C85.6233 197.184 85.3074 197.634 85.0513 198.18C84.781 198.7 84.5586 199.246 84.3841 199.817L83.2156 203.642L90.0097 205.718ZM100.109 208.803L101.436 204.457C101.63 203.824 101.759 203.183 101.823 202.534C101.873 201.858 101.831 201.231 101.695 200.654C101.544 200.051 101.281 199.524 100.906 199.075C100.509 198.619 99.9644 198.286 99.2708 198.074C98.5159 197.843 97.8366 197.803 97.2331 197.953C96.6358 198.083 96.1093 198.346 95.6537 198.742C95.2043 199.118 94.8218 199.603 94.5062 200.198C94.1968 200.773 93.9424 201.387 93.743 202.04L92.3968 206.447L100.109 208.803Z" fill="white"/>
<path d="M87.7027 179.596L88.7677 177.303L113.373 178.112L112.052 180.956L106.031 180.7L101.259 190.974L105.325 195.438L104.044 198.195L87.7027 179.596ZM91.3493 179.949L91.3224 180.007L99.4403 188.965L103.336 180.577L91.3493 179.949Z" fill="white"/>
<path d="M105.284 155.033C104.142 155.103 103.11 155.435 102.187 156.03C101.246 156.613 100.478 157.36 99.8832 158.272C99.1953 159.326 98.7742 160.439 98.6199 161.612C98.4773 162.767 98.5623 163.906 98.875 165.027C99.1698 166.136 99.683 167.185 100.414 168.172C101.128 169.147 102.003 169.973 103.039 170.649C104.147 171.372 105.3 171.87 106.497 172.142C107.677 172.403 108.829 172.454 109.952 172.295C111.068 172.106 112.117 171.709 113.1 171.101C114.094 170.476 114.94 169.628 115.64 168.556C116.398 167.395 116.851 166.213 116.999 165.01C117.129 163.796 116.987 162.57 116.573 161.331L119.095 160.57C119.678 162.174 119.842 163.758 119.585 165.322C119.339 166.869 118.721 168.402 117.73 169.92C116.844 171.278 115.766 172.383 114.496 173.236C113.226 174.088 111.868 174.667 110.421 174.971C108.968 175.245 107.471 175.236 105.93 174.943C104.4 174.633 102.912 174.005 101.465 173.061C100.072 172.151 98.919 171.068 98.0074 169.81C97.1074 168.535 96.4906 167.177 96.1571 165.737C95.8236 164.296 95.7825 162.817 96.0341 161.3C96.2856 159.783 96.8719 158.319 97.7931 156.907C98.6326 155.621 99.6694 154.54 100.903 153.664C102.149 152.77 103.561 152.265 105.14 152.15L105.284 155.033Z" fill="white"/>
<path d="M103.672 147.033L105.415 144.986L112.872 151.332L113.121 151.039L112.341 136.846L114.851 133.897L115.464 149.126L132.457 148.167L129.906 151.164L114.144 151.911L113.895 152.203L122.668 159.669L120.926 161.716L103.672 147.033Z" fill="white"/>
<path d="M134.404 117.768L128.671 122.585L141.641 138.019L139.583 139.749L126.613 124.314L120.881 129.132L119.275 127.221L132.798 115.857L134.404 117.768Z" fill="white"/>
<path d="M154.138 127.662C152.653 128.546 151.135 129.103 149.583 129.332C148.049 129.551 146.557 129.484 145.106 129.132C143.662 128.75 142.312 128.089 141.056 127.149C139.808 126.179 138.747 124.961 137.873 123.495C137 122.029 136.439 120.525 136.192 118.984C135.952 117.414 136.013 115.912 136.376 114.479C136.746 113.017 137.393 111.663 138.315 110.419C139.255 109.163 140.468 108.093 141.952 107.208C143.437 106.324 144.946 105.773 146.48 105.554C148.032 105.325 149.53 105.401 150.974 105.782C152.425 106.134 153.775 106.795 155.023 107.765C156.279 108.706 157.343 109.909 158.217 111.375C159.09 112.841 159.647 114.359 159.887 115.93C160.135 117.471 160.074 118.973 159.703 120.435C159.34 121.868 158.688 123.212 157.748 124.468C156.826 125.713 155.622 126.777 154.138 127.662ZM152.86 125.517C153.997 124.84 154.907 124.013 155.59 123.034C156.292 122.045 156.764 120.982 157.005 119.845C157.246 118.708 157.261 117.544 157.049 116.354C156.844 115.136 156.409 113.967 155.743 112.849C155.077 111.731 154.262 110.801 153.298 110.059C152.342 109.288 151.306 108.738 150.192 108.409C149.077 108.079 147.917 107.988 146.713 108.134C145.527 108.27 144.366 108.676 143.23 109.353C142.094 110.03 141.174 110.863 140.473 111.852C139.789 112.831 139.327 113.888 139.085 115.025C138.844 116.162 138.826 117.341 139.03 118.559C139.243 119.749 139.682 120.903 140.348 122.021C141.014 123.139 141.825 124.084 142.781 124.855C143.745 125.597 144.784 126.132 145.899 126.462C147.014 126.791 148.164 126.888 149.35 126.752C150.554 126.606 151.724 126.194 152.86 125.517Z" fill="white"/>
<path d="M177.707 91.8372L170.72 94.5298L177.969 113.341L175.461 114.308L168.212 95.4964L161.225 98.1889L160.327 95.8599L176.81 89.5082L177.707 91.8372Z" fill="white"/>
<path d="M193.033 107.607C191.341 107.957 189.724 107.987 188.182 107.697C186.661 107.401 185.273 106.85 184.016 106.043C182.776 105.21 181.717 104.144 180.838 102.845C179.975 101.52 179.371 100.022 179.025 98.3513C178.679 96.6801 178.641 95.0758 178.911 93.5385C179.197 91.9759 179.746 90.5768 180.558 89.3413C181.386 88.0805 182.439 87.0127 183.718 86.1379C185.017 85.2588 186.513 84.6441 188.205 84.2937C189.897 83.9433 191.504 83.9156 193.024 84.2107C194.566 84.5015 195.957 85.0632 197.197 85.8957C198.453 86.703 199.513 87.769 200.375 89.0936C201.254 90.393 201.867 91.8783 202.213 93.5495C202.559 95.2207 202.589 96.8376 202.302 98.4002C202.033 99.9375 201.483 101.337 200.655 102.597C199.844 103.833 198.788 104.89 197.489 105.769C196.21 106.644 194.725 107.257 193.033 107.607ZM192.527 105.163C193.822 104.895 194.952 104.41 195.918 103.709C196.905 103.004 197.698 102.153 198.298 101.157C198.898 100.162 199.292 99.067 199.481 97.8733C199.686 96.6544 199.657 95.4078 199.393 94.1335C199.129 92.8592 198.663 91.7139 197.995 90.6976C197.344 89.656 196.545 88.7975 195.599 88.1219C194.653 87.4464 193.587 86.9808 192.401 86.7253C191.236 86.4655 190.006 86.4696 188.711 86.7378C187.416 87.0061 186.275 87.4929 185.288 88.1983C184.322 88.8994 183.539 89.7478 182.94 90.7434C182.34 91.7391 181.937 92.8464 181.732 94.0653C181.544 95.259 181.581 96.493 181.845 97.7673C182.109 99.0416 182.567 100.199 183.218 101.241C183.886 102.257 184.693 103.103 185.639 103.779C186.585 104.454 187.64 104.922 188.805 105.182C189.991 105.437 191.231 105.431 192.527 105.163Z" fill="white"/>
<path d="M203.118 80.907L209.812 80.3162C210.853 80.2242 211.851 80.2433 212.804 80.3733C213.778 80.4801 214.647 80.746 215.413 81.171C216.198 81.5729 216.838 82.1588 217.335 82.9288C217.85 83.6757 218.16 84.6336 218.263 85.8023C218.372 87.0349 218.228 88.0755 217.832 88.9243C217.436 89.7731 216.886 90.4641 216.184 90.9973C215.502 91.5286 214.735 91.9283 213.88 92.1965C213.026 92.4646 212.205 92.6334 211.419 92.7028L206.893 93.1023L207.788 103.239L205.11 103.475L203.118 80.907ZM206.673 90.616L211.2 90.2165C212.539 90.0983 213.596 89.7051 214.372 89.037C215.168 88.3457 215.509 87.3625 215.397 86.0874C215.284 84.8124 214.777 83.9149 213.874 83.3949C212.991 82.8518 211.88 82.6393 210.541 82.7575L206.015 83.157L206.673 90.616Z" fill="white"/>
</svg>
