<svg width="48" height="33" viewBox="0 0 48 33" fill="none" xmlns="http://www.w3.org/2000/svg">
<mask id="path-1-outside-1_9_105" maskUnits="userSpaceOnUse" x="0.5" y="0" width="47" height="33" fill="black">
<rect fill="white" x="0.5" width="47" height="33"/>
<path d="M21.5 27L16.3 32H6.5L1.5 27V7L6.5 2H16.5L21.5 7V9.5H16.5V9.05L14.45 7H8.55L6.5 9.05V24.95L8.55 27H14.45L16.5 24.95V24.5H21.5V27Z"/>
<path d="M46.5 32H41.5L31.5 12.9V32H26.5V2L31.5 2.05L41.5 21.15V2H46.5V32Z"/>
</mask>
<path d="M21.5 27L16.3 32H6.5L1.5 27V7L6.5 2H16.5L21.5 7V9.5H16.5V9.05L14.45 7H8.55L6.5 9.05V24.95L8.55 27H14.45L16.5 24.95V24.5H21.5V27Z" fill="white"/>
<path d="M46.5 32H41.5L31.5 12.9V32H26.5V2L31.5 2.05L41.5 21.15V2H46.5V32Z" fill="white"/>
<path d="M21.5 27L22.1931 27.7208L22.5 27.4257V27H21.5ZM16.3 32V33H16.7028L16.9931 32.7208L16.3 32ZM6.5 32L5.79289 32.7071L6.08579 33H6.5V32ZM1.5 27H0.5V27.4142L0.792893 27.7071L1.5 27ZM1.5 7L0.792893 6.29289L0.5 6.58579V7H1.5ZM6.5 2V1H6.08579L5.79289 1.29289L6.5 2ZM16.5 2L17.2071 1.29289L16.9142 1H16.5V2ZM21.5 7H22.5V6.58579L22.2071 6.29289L21.5 7ZM21.5 9.5V10.5H22.5V9.5H21.5ZM16.5 9.5H15.5V10.5H16.5V9.5ZM16.5 9.05H17.5V8.63579L17.2071 8.34289L16.5 9.05ZM14.45 7L15.1571 6.29289L14.8642 6H14.45V7ZM8.55 7V6H8.13579L7.84289 6.29289L8.55 7ZM6.5 9.05L5.79289 8.34289L5.5 8.63579V9.05H6.5ZM6.5 24.95H5.5V25.3642L5.79289 25.6571L6.5 24.95ZM8.55 27L7.84289 27.7071L8.13579 28H8.55V27ZM14.45 27V28H14.8642L15.1571 27.7071L14.45 27ZM16.5 24.95L17.2071 25.6571L17.5 25.3642V24.95H16.5ZM16.5 24.5V23.5H15.5V24.5H16.5ZM21.5 24.5H22.5V23.5H21.5V24.5ZM46.5 32V33H47.5V32H46.5ZM41.5 32L40.6141 32.4638L40.8948 33H41.5V32ZM31.5 12.9L32.3859 12.4362L30.5 12.9H31.5ZM31.5 32V33H32.5V32H31.5ZM26.5 32H25.5V33H26.5V32ZM26.5 2L26.51 1.00005L25.5 0.98995V2H26.5ZM31.5 2.05L32.3859 1.58617L32.1084 1.05603L31.51 1.05005L31.5 2.05ZM41.5 21.15L40.6141 21.6138L42.5 21.15H41.5ZM41.5 2V1H40.5V2H41.5ZM46.5 2H47.5V1H46.5V2ZM20.8069 26.2792L15.6069 31.2792L16.9931 32.7208L22.1931 27.7208L20.8069 26.2792ZM16.3 31H6.5V33H16.3V31ZM7.20711 31.2929L2.20711 26.2929L0.792893 27.7071L5.79289 32.7071L7.20711 31.2929ZM2.5 27V7H0.5V27H2.5ZM2.20711 7.70711L7.20711 2.70711L5.79289 1.29289L0.792893 6.29289L2.20711 7.70711ZM6.5 3H16.5V1H6.5V3ZM15.7929 2.70711L20.7929 7.70711L22.2071 6.29289L17.2071 1.29289L15.7929 2.70711ZM20.5 7V9.5H22.5V7H20.5ZM21.5 8.5H16.5V10.5H21.5V8.5ZM17.5 9.5V9.05H15.5V9.5H17.5ZM17.2071 8.34289L15.1571 6.29289L13.7429 7.70711L15.7929 9.75711L17.2071 8.34289ZM14.45 6H8.55V8H14.45V6ZM7.84289 6.29289L5.79289 8.34289L7.20711 9.75711L9.25711 7.70711L7.84289 6.29289ZM5.5 9.05V24.95H7.5V9.05H5.5ZM5.79289 25.6571L7.84289 27.7071L9.25711 26.2929L7.20711 24.2429L5.79289 25.6571ZM8.55 28H14.45V26H8.55V28ZM15.1571 27.7071L17.2071 25.6571L15.7929 24.2429L13.7429 26.2929L15.1571 27.7071ZM17.5 24.95V24.5H15.5V24.95H17.5ZM16.5 25.5H21.5V23.5H16.5V25.5ZM20.5 24.5V27H22.5V24.5H20.5ZM46.5 31H41.5V33H46.5V31ZM42.3859 31.5362L32.3859 12.4362L30.6141 13.3638L40.6141 32.4638L42.3859 31.5362ZM30.5 12.9V32H32.5V12.9H30.5ZM31.5 31H26.5V33H31.5V31ZM27.5 32V2H25.5V32H27.5ZM26.49 2.99995L31.49 3.04995L31.51 1.05005L26.51 1.00005L26.49 2.99995ZM30.6141 2.51383L40.6141 21.6138L42.3859 20.6862L32.3859 1.58617L30.6141 2.51383ZM42.5 21.15V2H40.5V21.15H42.5ZM41.5 3H46.5V1H41.5V3ZM45.5 2V32H47.5V2H45.5Z" fill="white" mask="url(#path-1-outside-1_9_105)"/>
</svg>
