<svg width="62" height="63" viewBox="0 0 62 63" fill="none" xmlns="http://www.w3.org/2000/svg">
<circle cx="31.3906" cy="3.33531" r="1.5" transform="rotate(45 31.3906 3.33531)" fill="black"/>
<circle cx="30.8955" cy="31.6152" r="1.5" transform="rotate(45 30.8955 31.6152)" fill="black"/>
<circle cx="17.0029" cy="17.2279" r="1.5" transform="rotate(45 17.0029 17.2279)" fill="black"/>
<circle cx="45.2832" cy="17.7225" r="1.5" transform="rotate(45 45.2832 17.7225)" fill="black"/>
<circle cx="44.7881" cy="46.0025" r="1.5" transform="rotate(45 44.7881 46.0025)" fill="black"/>
<circle cx="58.6807" cy="60.3899" r="1.5" transform="rotate(45 58.6807 60.3899)" fill="black"/>
<circle cx="16.5088" cy="45.5078" r="1.5" transform="rotate(45 16.5088 45.5078)" fill="black"/>
<circle cx="2.12109" cy="59.4005" r="1.5" transform="rotate(45 2.12109 59.4005)" fill="black"/>
<circle cx="2.61523" cy="31.1206" r="1.5" transform="rotate(45 2.61523 31.1206)" fill="black"/>
<circle cx="2.41602" cy="2.12132" r="1.5" transform="rotate(45 2.41602 2.12132)" fill="black"/>
<circle cx="59.6699" cy="3.83006" r="1.5" transform="rotate(45 59.6699 3.83006)" fill="black"/>
<circle cx="30.4014" cy="59.8951" r="1.5" transform="rotate(45 30.4014 59.8951)" fill="black"/>
<circle cx="59.1758" cy="32.1098" r="1.5" transform="rotate(45 59.1758 32.1098)" fill="black"/>
</svg>
