<svg width="48" height="33" viewBox="0 0 48 33" fill="none" xmlns="http://www.w3.org/2000/svg">
<mask id="path-1-outside-1_9_104" maskUnits="userSpaceOnUse" x="0.5" y="0" width="47" height="33" fill="currentColor">
<rect fill="currentColor" x="0.5" width="47" height="33"/>
<path d="M21.5 32H1.5V2H21.5V7H6.5V14.5H14V19.5H6.5V27H21.5V32Z"/>
<path d="M46.5 32H41.5L31.5 12.9V32H26.5V2L31.5 2.05L41.5 21.15V2H46.5V32Z"/>
</mask>
<path d="M21.5 32H1.5V2H21.5V7H6.5V14.5H14V19.5H6.5V27H21.5V32Z" fill="currentColor"/>
<path d="M46.5 32H41.5L31.5 12.9V32H26.5V2L31.5 2.05L41.5 21.15V2H46.5V32Z" fill="currentColor"/>
<path d="M21.5 32V33H22.5V32H21.5ZM1.5 32H0.5V33H1.5V32ZM1.5 2V1H0.5V2H1.5ZM21.5 2H22.5V1H21.5V2ZM21.5 7V8H22.5V7H21.5ZM6.5 7V6H5.5V7H6.5ZM6.5 14.5H5.5V15.5H6.5V14.5ZM14 14.5H15V13.5H14V14.5ZM14 19.5V20.5H15V19.5H14ZM6.5 19.5V18.5H5.5V19.5H6.5ZM6.5 27H5.5V28H6.5V27ZM21.5 27H22.5V26H21.5V27ZM46.5 32V33H47.5V32H46.5ZM41.5 32L40.6141 32.4638L40.8948 33H41.5V32ZM31.5 12.9L32.3859 12.4362L30.5 12.9H31.5ZM31.5 32V33H32.5V32H31.5ZM26.5 32H25.5V33H26.5V32ZM26.5 2L26.51 1.00005L25.5 0.98995V2H26.5ZM31.5 2.05L32.3859 1.58617L32.1084 1.05603L31.51 1.05005L31.5 2.05ZM41.5 21.15L40.6141 21.6138L42.5 21.15H41.5ZM41.5 2V1H40.5V2H41.5ZM46.5 2H47.5V1H46.5V2ZM21.5 31H1.5V33H21.5V31ZM2.5 32V2H0.5V32H2.5ZM1.5 3H21.5V1H1.5V3ZM20.5 2V7H22.5V2H20.5ZM21.5 6H6.5V8H21.5V6ZM5.5 7V14.5H7.5V7H5.5ZM6.5 15.5H14V13.5H6.5V15.5ZM13 14.5V19.5H15V14.5H13ZM14 18.5H6.5V20.5H14V18.5ZM5.5 19.5V27H7.5V19.5H5.5ZM6.5 28H21.5V26H6.5V28ZM20.5 27V32H22.5V27H20.5ZM46.5 31H41.5V33H46.5V31ZM42.3859 31.5362L32.3859 12.4362L30.6141 13.3638L40.6141 32.4638L42.3859 31.5362ZM30.5 12.9V32H32.5V12.9H30.5ZM31.5 31H26.5V33H31.5V31ZM27.5 32V2H25.5V32H27.5ZM26.49 2.99995L31.49 3.04995L31.51 1.05005L26.51 1.00005L26.49 2.99995ZM30.6141 2.51383L40.6141 21.6138L42.3859 20.6862L32.3859 1.58617L30.6141 2.51383ZM42.5 21.15V2H40.5V21.15H42.5ZM41.5 3H46.5V1H41.5V3ZM45.5 2V32H47.5V2H45.5Z" fill="currentColor" mask="url(#path-1-outside-1_9_104)"/>
</svg>
