<svg width="1024" height="1024" viewBox="0 0 1024 1024" fill="none" xmlns="http://www.w3.org/2000/svg">
<circle cx="512" cy="512" r="512" fill="black"/>
<path d="M363.491 826C363.491 774.586 360.873 735.385 364.699 696.578C368.339 679.753 377.974 664.742 391.884 654.226C451.088 605.964 512.707 559.868 577.146 509.242C522.977 466.89 473.44 423.552 419.07 387.306C375.775 358.152 354.631 325.058 362.685 273.25C364.538 248.199 364.538 223.05 362.685 198C378.393 207.455 389.669 212.971 399.335 220.26C496.396 295.772 593.39 371.284 690.317 446.797C700.156 454.028 708.14 463.398 713.639 474.168C719.138 484.937 722 496.81 722 508.848C722 520.886 719.138 532.759 713.639 543.529C708.14 554.298 700.156 563.669 690.317 570.9C585.604 653.438 479.481 735.779 363.491 826Z" fill="white"/>
</svg>
