<svg width="327" height="209" viewBox="0 0 327 209" fill="none" xmlns="http://www.w3.org/2000/svg" xmlns:xlink="http://www.w3.org/1999/xlink">

<g>
<path d="M373.771 -61.1022L-0.838501 -126.016L-0.50193 103.591L373.771 168.504V-61.1022Z" fill="black"/>
<path d="M-0.50234 103.59V-126.017L374.107 -61.1031V168.503L-0.50234 103.59ZM379.155 -65.6385L-6.22412 -132.253V108.125L379.155 175.023V-65.6385Z" fill="white"/>
<path d="M1.18054 149.228L15.3167 127.118L29.4529 154.33L1.18054 149.228ZM15.3167 118.614L-6.22412 152.063L36.8576 159.433L15.3167 118.614Z" fill="white"/>
<path d="M56.042 161.984C47.6276 160.566 40.5595 152.346 40.5595 143.842C40.5595 135.338 47.6276 129.385 56.042 131.086C64.4564 132.503 71.5245 140.724 71.5245 149.228C71.5245 157.732 64.793 163.401 56.042 161.984ZM56.042 126.834C45.2716 124.85 36.5206 132.22 36.5206 143.275C36.5206 154.047 45.2716 164.535 56.3786 166.519C67.149 168.503 76.2366 161.133 76.2366 150.362C75.9 139.023 66.8125 128.535 56.042 126.834Z" fill="white"/>
<path d="M82.632 163.117L96.7682 141.007L110.904 168.22L82.632 163.117ZM96.7682 132.503L75.2273 165.952L118.309 173.322L96.7682 132.503Z" fill="white"/>
<path d="M137.494 176.157C129.079 174.74 122.011 166.519 122.011 158.015C122.011 149.511 129.079 143.559 137.494 145.259C145.908 146.677 152.976 154.897 152.976 163.401C152.976 171.905 146.245 177.574 137.494 176.157ZM137.494 140.724C126.723 138.74 117.636 146.11 117.636 157.165C117.636 167.937 126.387 178.425 137.494 180.409C148.264 182.393 157.015 175.023 157.015 164.252C157.352 153.197 148.601 142.708 137.494 140.724Z" fill="white"/>
<path d="M164.757 178.708V151.779L191.683 156.314V183.243L164.757 178.708ZM196.058 152.913L160.718 146.676V182.109L196.058 188.346V152.913Z" fill="white"/>
<path d="M219.281 190.33C210.867 188.913 203.799 180.692 203.799 172.188C203.799 163.684 210.867 157.731 219.281 159.432C227.696 161.133 234.764 169.07 234.764 177.574C234.764 185.794 227.696 191.747 219.281 190.33ZM218.945 154.897C208.174 152.913 199.087 160.283 199.087 171.338C199.087 182.109 207.838 192.598 218.945 194.582C229.715 196.566 238.466 189.196 238.466 178.424C238.803 167.086 230.052 156.881 218.945 154.897Z" fill="white"/>
<path d="M246.545 192.881V165.952L273.471 170.487V197.417L246.545 192.881ZM277.51 167.086L242.169 160.85V196.283L277.51 202.519V167.086Z" fill="white"/>
<path d="M286.261 198.55L300.397 176.44L314.533 203.653L286.261 198.55ZM300.734 167.936L279.193 201.385L322.274 208.755L319.918 208.472L320.928 206.771L300.734 167.936Z" fill="white"/>
<path d="M326.986 205.638L341.122 183.527L355.258 210.74L326.986 205.638ZM341.459 175.023L321.264 206.771L320.255 208.472L322.611 208.756L363.336 215.842L341.459 175.023Z" fill="white"/>
<path d="M15.3167 195.716C6.90231 194.299 -0.165776 186.079 -0.165776 177.575C-0.165776 169.071 6.90231 163.401 15.3167 164.819C23.7311 166.236 30.7992 174.456 30.7992 182.96C30.7992 191.464 24.0677 197.134 15.3167 195.716ZM15.3167 160.567C4.54628 158.582 -4.54126 165.953 -4.54126 176.724C-4.54126 187.496 4.20971 197.984 15.3167 199.968C26.0871 201.953 34.8381 194.582 34.8381 183.527C35.1747 172.756 26.0871 162.267 15.3167 160.567Z" fill="white"/>
<path d="M42.5798 198.267V171.338L69.5059 175.874V202.803L42.5798 198.267ZM73.8814 172.756L38.5409 166.519V201.952L73.8814 208.189V172.756Z" fill="white"/>
<path d="M96.7684 209.89C88.354 208.473 81.2859 200.252 81.2859 191.748C81.2859 183.244 88.354 177.575 96.7684 178.992C105.183 180.41 112.251 188.63 112.251 197.134C112.251 205.638 105.519 211.307 96.7684 209.89ZM96.7684 174.74C85.998 172.756 76.9104 180.126 76.9104 190.898C76.9104 201.67 85.6614 212.158 96.7684 214.142C107.875 216.126 116.29 208.756 116.29 197.701C116.626 186.929 107.875 176.441 96.7684 174.74Z" fill="white"/>
<path d="M124.031 212.44V185.511L150.957 190.047V216.976L124.031 212.44ZM155.332 186.645L119.992 180.409V215.842L155.332 222.078V186.645Z" fill="white"/>
<path d="M164.083 218.109L178.219 195.999L192.356 223.212L164.083 218.109ZM178.219 187.495L156.679 220.944L199.76 228.314L178.219 187.495Z" fill="white"/>
<path d="M219.282 231.149C210.867 229.732 203.799 221.512 203.799 213.008C203.799 204.504 210.867 198.834 219.282 200.252C227.696 201.669 234.764 209.889 234.764 218.393C234.764 226.614 227.696 232.567 219.282 231.149ZM219.282 195.716C208.511 193.732 199.424 201.102 199.424 211.874C199.424 222.645 208.175 233.134 219.282 235.118C230.052 237.102 238.803 229.732 238.803 218.677C238.803 207.905 230.052 197.7 219.282 195.716Z" fill="white"/>
<path d="M246.545 233.7V206.771L273.471 211.306V238.235L246.545 233.7ZM277.51 207.905L242.169 201.669V237.102L277.51 243.338V207.905Z" fill="white"/>
<path d="M1.18054 230.583L15.3167 208.472L29.4529 235.685L1.18054 230.583ZM15.3167 199.969L-6.22412 233.417L36.8576 240.787L15.3167 199.969Z" fill="white"/>
<path d="M56.042 243.622C47.6276 242.205 40.5595 233.984 40.5595 225.48C40.5595 216.976 47.6276 211.024 56.042 212.724C64.4564 214.142 71.5245 222.362 71.5245 230.866C71.5245 239.37 64.793 245.04 56.042 243.622ZM56.042 208.189C45.2716 206.205 36.5206 213.575 36.5206 224.63C36.5206 235.402 45.2716 245.89 56.3786 247.874C67.4856 249.858 76.2366 242.488 76.2366 231.717C75.9 220.662 67.1491 210.173 56.042 208.189Z" fill="white"/>
</g>
<path d="M31.556 45H28.0476V19.9102H43.7111V22.9932H31.556V30.7895H42.9314V33.8017H31.556V45ZM46.5237 31.8172C46.5237 31.3683 46.5118 30.7895 46.4882 30.0808C46.4646 29.372 46.4292 28.7459 46.3819 28.2026H49.5359C49.5831 28.6278 49.6185 29.1239 49.6422 29.6909C49.6658 30.2343 49.6776 30.6832 49.6776 31.0376H49.7839C50.2564 30.0453 50.9416 29.2539 51.8393 28.6632C52.7607 28.049 53.7884 27.7419 54.9224 27.7419C55.4421 27.7419 55.8792 27.7891 56.2336 27.8836L56.0918 30.9667C55.6193 30.8486 55.1114 30.7895 54.568 30.7895C53.7647 30.7895 53.0678 30.9431 52.4772 31.2502C51.8866 31.5337 51.3904 31.9235 50.9888 32.4196C50.6108 32.9158 50.3273 33.4946 50.1383 34.1561C49.9493 34.794 49.8548 35.4673 49.8548 36.176V45H46.5237V31.8172ZM75.75 36.5658C75.75 37.8652 75.5138 39.0583 75.0413 40.145C74.5924 41.2318 73.9545 42.1768 73.1276 42.9801C72.3244 43.7597 71.3676 44.3739 70.2572 44.8228C69.1468 45.2481 67.9537 45.4607 66.678 45.4607C65.4022 45.4607 64.2092 45.2481 63.0988 44.8228C61.9884 44.3739 61.0316 43.7597 60.2283 42.9801C59.4251 42.1768 58.7872 41.2318 58.3147 40.145C57.8658 39.0583 57.6414 37.8652 57.6414 36.5658C57.6414 35.2665 57.8658 34.0852 58.3147 33.0221C58.7872 31.9353 59.4251 31.0021 60.2283 30.2225C61.0316 29.4429 61.9884 28.8404 63.0988 28.4152C64.2092 27.9663 65.4022 27.7419 66.678 27.7419C67.9537 27.7419 69.1468 27.9663 70.2572 28.4152C71.3676 28.8404 72.3244 29.4429 73.1276 30.2225C73.9545 31.0021 74.5924 31.9353 75.0413 33.0221C75.5138 34.0852 75.75 35.2665 75.75 36.5658ZM72.2771 36.5658C72.2771 35.7626 72.1472 34.9948 71.8873 34.2624C71.6511 33.53 71.2967 32.8921 70.8242 32.3488C70.3517 31.7818 69.7611 31.3329 69.0523 31.0021C68.3672 30.6714 67.5757 30.506 66.678 30.506C65.7802 30.506 64.977 30.6714 64.2682 31.0021C63.5831 31.3329 63.0043 31.7818 62.5318 32.3488C62.0593 32.8921 61.6931 33.53 61.4332 34.2624C61.197 34.9948 61.0788 35.7626 61.0788 36.5658C61.0788 37.3691 61.197 38.1369 61.4332 38.8693C61.6931 39.6017 62.0593 40.2514 62.5318 40.8184C63.0043 41.3854 63.5831 41.8342 64.2682 42.165C64.977 42.4957 65.7802 42.6611 66.678 42.6611C67.5757 42.6611 68.3672 42.4957 69.0523 42.165C69.7611 41.8342 70.3517 41.3854 70.8242 40.8184C71.2967 40.2514 71.6511 39.6017 71.8873 38.8693C72.1472 38.1369 72.2771 37.3691 72.2771 36.5658ZM83.3816 28.2026C83.4288 28.6278 83.4643 29.1121 83.4879 29.6555C83.5115 30.1753 83.5233 30.6123 83.5233 30.9667H83.6296C83.8423 30.5178 84.1258 30.1044 84.4801 29.7264C84.8581 29.3248 85.2834 28.9822 85.7559 28.6987C86.2284 28.3916 86.7481 28.1553 87.3152 27.9899C87.8822 27.8246 88.4728 27.7419 89.087 27.7419C90.1738 27.7419 91.107 27.9309 91.8866 28.3089C92.6662 28.6632 93.3159 29.1476 93.8357 29.7618C94.3554 30.3761 94.7334 31.0966 94.9697 31.9235C95.2296 32.7504 95.3595 33.6363 95.3595 34.5813V45H92.0284V35.6799C92.0284 34.9948 91.9693 34.3451 91.8512 33.7308C91.7567 33.1166 91.5677 32.5732 91.2842 32.1007C91.0007 31.6282 90.6109 31.2502 90.1147 30.9667C89.6186 30.6832 88.9807 30.5414 88.2011 30.5414C86.8781 30.5414 85.7913 31.0494 84.9408 32.0653C84.114 33.0575 83.7005 34.3923 83.7005 36.0697V45H80.3694V31.8172C80.3694 31.3683 80.3576 30.7895 80.3339 30.0808C80.3103 29.372 80.2749 28.7459 80.2276 28.2026H83.3816ZM109.217 30.9313H104.752V39.6844C104.752 40.7002 104.941 41.4326 105.319 41.8815C105.697 42.3067 106.299 42.5194 107.126 42.5194C107.433 42.5194 107.764 42.4839 108.118 42.4131C108.473 42.3422 108.791 42.2359 109.075 42.0941L109.181 44.8228C108.78 44.9646 108.331 45.0709 107.835 45.1418C107.362 45.2363 106.866 45.2835 106.346 45.2835C104.763 45.2835 103.547 44.8464 102.696 43.9723C101.869 43.0982 101.456 41.787 101.456 40.0387V30.9313H98.231V28.2026H101.456V23.383H104.752V28.2026H109.217V30.9313ZM124.955 35.1129C124.931 34.4514 124.813 33.8371 124.6 33.2701C124.411 32.6795 124.116 32.1716 123.714 31.7463C123.336 31.3211 122.852 30.9903 122.261 30.7541C121.694 30.4942 121.021 30.3643 120.241 30.3643C119.533 30.3643 118.859 30.4942 118.221 30.7541C117.607 30.9903 117.064 31.3211 116.591 31.7463C116.142 32.1716 115.764 32.6795 115.457 33.2701C115.174 33.8371 115.008 34.4514 114.961 35.1129H124.955ZM128.321 36.4595C128.321 36.6485 128.321 36.8375 128.321 37.0265C128.321 37.2155 128.309 37.4045 128.286 37.5935H114.961C114.985 38.3023 115.138 38.9756 115.422 39.6135C115.729 40.2277 116.131 40.7711 116.627 41.2436C117.123 41.6925 117.69 42.0469 118.328 42.3067C118.989 42.5666 119.686 42.6966 120.419 42.6966C121.553 42.6966 122.533 42.4485 123.36 41.9524C124.187 41.4562 124.836 40.8538 125.309 40.145L127.648 42.0232C126.75 43.2045 125.687 44.0786 124.458 44.6456C123.254 45.189 121.907 45.4607 120.419 45.4607C119.143 45.4607 117.962 45.2481 116.875 44.8228C115.788 44.3976 114.855 43.8069 114.075 43.0509C113.296 42.2713 112.681 41.3381 112.233 40.2514C111.784 39.1646 111.559 37.9597 111.559 36.6367C111.559 35.3373 111.772 34.1443 112.197 33.0575C112.646 31.9471 113.26 31.0021 114.04 30.2225C114.819 29.4429 115.741 28.8404 116.804 28.4152C117.867 27.9663 119.013 27.7419 120.241 27.7419C121.47 27.7419 122.58 27.9427 123.573 28.3443C124.588 28.7459 125.439 29.3248 126.124 30.0808C126.833 30.8368 127.376 31.7581 127.754 32.8449C128.132 33.908 128.321 35.1129 128.321 36.4595ZM135.984 28.2026C136.032 28.6278 136.067 29.1121 136.091 29.6555C136.114 30.1753 136.126 30.6123 136.126 30.9667H136.232C136.445 30.5178 136.729 30.1044 137.083 29.7264C137.461 29.3248 137.886 28.9822 138.359 28.6987C138.831 28.3916 139.351 28.1553 139.918 27.9899C140.485 27.8246 141.076 27.7419 141.69 27.7419C142.777 27.7419 143.71 27.9309 144.489 28.3089C145.269 28.6632 145.919 29.1476 146.438 29.7618C146.958 30.3761 147.336 31.0966 147.572 31.9235C147.832 32.7504 147.962 33.6363 147.962 34.5813V45H144.631V35.6799C144.631 34.9948 144.572 34.3451 144.454 33.7308C144.359 33.1166 144.17 32.5732 143.887 32.1007C143.603 31.6282 143.214 31.2502 142.717 30.9667C142.221 30.6832 141.583 30.5414 140.804 30.5414C139.481 30.5414 138.394 31.0494 137.544 32.0653C136.717 33.0575 136.303 34.3923 136.303 36.0697V45H132.972V31.8172C132.972 31.3683 132.96 30.7895 132.937 30.0808C132.913 29.372 132.878 28.7459 132.83 28.2026H135.984ZM166.993 42.3422C166.355 43.3581 165.481 44.1377 164.371 44.6811C163.284 45.2008 162.138 45.4607 160.934 45.4607C159.634 45.4607 158.465 45.2363 157.425 44.7874C156.386 44.3149 155.5 43.677 154.767 42.8737C154.035 42.0705 153.468 41.1255 153.066 40.0387C152.665 38.952 152.464 37.7943 152.464 36.5658C152.464 35.3373 152.665 34.1915 153.066 33.1284C153.468 32.0416 154.035 31.0966 154.767 30.2934C155.523 29.4901 156.421 28.8641 157.461 28.4152C158.5 27.9663 159.646 27.7419 160.898 27.7419C162.268 27.7419 163.461 28.0372 164.477 28.6278C165.493 29.1948 166.296 29.8918 166.887 30.7186H166.958V18.2091H170.289V45H167.064V42.3422H166.993ZM155.937 36.5658C155.937 37.3455 156.055 38.1015 156.291 38.8339C156.527 39.5662 156.882 40.2159 157.354 40.7829C157.827 41.3499 158.406 41.8106 159.091 42.165C159.776 42.4957 160.579 42.6611 161.501 42.6611C162.351 42.6611 163.119 42.4957 163.804 42.165C164.513 41.8342 165.115 41.3972 165.611 40.8538C166.107 40.2868 166.485 39.6371 166.745 38.9047C167.029 38.1723 167.171 37.4045 167.171 36.6013C167.171 35.798 167.029 35.0302 166.745 34.2978C166.485 33.5655 166.107 32.9158 165.611 32.3488C165.115 31.7818 164.513 31.3329 163.804 31.0021C163.119 30.6714 162.351 30.506 161.501 30.506C160.579 30.506 159.776 30.6714 159.091 31.0021C158.406 31.3329 157.827 31.7818 157.354 32.3488C156.882 32.9158 156.527 33.5655 156.291 34.2978C156.055 35.0302 155.937 35.7862 155.937 36.5658ZM31.556 77.8815H44.6679V81H28.0476V55.9102H44.1363V58.9932H31.556V66.506H43.3921V69.5182H31.556V77.8815ZM52.166 64.2026C52.2132 64.6278 52.2487 65.1121 52.2723 65.6555C52.2959 66.1753 52.3077 66.6123 52.3077 66.9667H52.4141C52.6267 66.5178 52.9102 66.1044 53.2646 65.7264C53.6426 65.3248 54.0678 64.9822 54.5403 64.6987C55.0128 64.3916 55.5326 64.1553 56.0996 63.9899C56.6666 63.8246 57.2572 63.7419 57.8715 63.7419C58.9582 63.7419 59.8914 63.9309 60.671 64.3089C61.4507 64.6632 62.1003 65.1476 62.6201 65.7618C63.1398 66.3761 63.5179 67.0966 63.7541 67.9235C64.014 68.7504 64.1439 69.6363 64.1439 70.5813V81H60.8128V71.6799C60.8128 70.9948 60.7537 70.3451 60.6356 69.7308C60.5411 69.1166 60.3521 68.5732 60.0686 68.1007C59.7851 67.6282 59.3953 67.2502 58.8991 66.9667C58.403 66.6832 57.7651 66.5414 56.9855 66.5414C55.6625 66.5414 54.5758 67.0494 53.7253 68.0653C52.8984 69.0575 52.4849 70.3923 52.4849 72.0697V81H49.1538V67.8172C49.1538 67.3683 49.142 66.7895 49.1184 66.0808C49.0947 65.372 49.0593 64.7459 49.012 64.2026H52.166ZM71.0908 83.8704C71.8232 84.6973 72.7327 85.3588 73.8195 85.855C74.9299 86.3511 76.0639 86.5991 77.2215 86.5991C78.3319 86.5991 79.2651 86.4338 80.0211 86.103C80.7771 85.7959 81.3795 85.3588 81.8284 84.7918C82.3009 84.2485 82.6317 83.5988 82.8207 82.8428C83.0333 82.0868 83.1396 81.2717 83.1396 80.3976V78.2359H83.0687C82.4545 79.1809 81.6158 79.9014 80.5526 80.3976C79.4895 80.8937 78.3555 81.1418 77.1506 81.1418C75.8749 81.1418 74.7054 80.9173 73.6423 80.4684C72.6028 80.0196 71.7169 79.4053 70.9845 78.6257C70.2521 77.8461 69.6851 76.9365 69.2835 75.897C68.8819 74.8339 68.681 73.6998 68.681 72.495C68.681 71.2901 68.8819 70.1561 69.2835 69.093C69.6851 68.0298 70.2521 67.1084 70.9845 66.3288C71.7169 65.5256 72.6028 64.8995 73.6423 64.4506C74.6818 63.9781 75.8394 63.7419 77.1152 63.7419C78.3201 63.7419 79.4659 64.0017 80.5526 64.5215C81.663 65.0412 82.5372 65.8327 83.175 66.8958H83.2459V64.2026H86.4707V80.1495C86.4707 81.378 86.3172 82.5474 86.01 83.6578C85.7029 84.7918 85.1832 85.7841 84.4508 86.6346C83.7184 87.5087 82.7616 88.2057 81.5803 88.7254C80.3991 89.2452 78.9343 89.505 77.1861 89.505C75.7213 89.505 74.2447 89.2333 72.7564 88.69C71.2916 88.1702 70.0277 87.426 68.9645 86.4574L71.0908 83.8704ZM72.1185 72.4241C72.1185 73.2037 72.2366 73.9479 72.4729 74.6567C72.7327 75.3654 73.0989 75.9915 73.5714 76.5349C74.0676 77.0782 74.6582 77.5153 75.3433 77.8461C76.0284 78.1768 76.8081 78.3422 77.6822 78.3422C78.5327 78.3422 79.3123 78.1886 80.0211 77.8815C80.7298 77.5744 81.3323 77.1609 81.8284 76.6412C82.3245 76.0978 82.7025 75.4717 82.9624 74.763C83.2459 74.0306 83.3877 73.251 83.3877 72.4241C83.3877 71.6208 83.2459 70.8648 82.9624 70.1561C82.7025 69.4473 82.3127 68.8213 81.793 68.2779C81.2968 67.7345 80.6944 67.3093 79.9856 67.0021C79.3005 66.6714 78.5327 66.506 77.6822 66.506C76.8081 66.506 76.0284 66.6714 75.3433 67.0021C74.6582 67.3093 74.0676 67.7345 73.5714 68.2779C73.0989 68.7976 72.7327 69.4237 72.4729 70.1561C72.2366 70.8648 72.1185 71.6208 72.1185 72.4241ZM95.537 81H92.2058V64.2026H95.537V81ZM96.104 58.1427C96.104 58.757 95.8795 59.2649 95.4306 59.6665C95.0054 60.0682 94.4856 60.269 93.8714 60.269C93.2571 60.269 92.7374 60.0682 92.3121 59.6665C91.8869 59.2413 91.6742 58.7334 91.6742 58.1427C91.6742 57.5285 91.8869 57.0205 92.3121 56.6189C92.7374 56.1937 93.2571 55.981 93.8714 55.981C94.4856 55.981 95.0054 56.1937 95.4306 56.6189C95.8795 57.0205 96.104 57.5285 96.104 58.1427ZM104.353 64.2026C104.401 64.6278 104.436 65.1121 104.46 65.6555C104.483 66.1753 104.495 66.6123 104.495 66.9667H104.602C104.814 66.5178 105.098 66.1044 105.452 65.7264C105.83 65.3248 106.255 64.9822 106.728 64.6987C107.2 64.3916 107.72 64.1553 108.287 63.9899C108.854 63.8246 109.445 63.7419 110.059 63.7419C111.146 63.7419 112.079 63.9309 112.858 64.3089C113.638 64.6632 114.288 65.1476 114.808 65.7618C115.327 66.3761 115.705 67.0966 115.942 67.9235C116.201 68.7504 116.331 69.6363 116.331 70.5813V81H113V71.6799C113 70.9948 112.941 70.3451 112.823 69.7308C112.729 69.1166 112.54 68.5732 112.256 68.1007C111.973 67.6282 111.583 67.2502 111.087 66.9667C110.59 66.6832 109.953 66.5414 109.173 66.5414C107.85 66.5414 106.763 67.0494 105.913 68.0653C105.086 69.0575 104.672 70.3923 104.672 72.0697V81H101.341V67.8172C101.341 67.3683 101.329 66.7895 101.306 66.0808C101.282 65.372 101.247 64.7459 101.2 64.2026H104.353ZM134.264 71.1129C134.24 70.4514 134.122 69.8371 133.91 69.2701C133.721 68.6795 133.425 68.1716 133.024 67.7463C132.646 67.3211 132.161 66.9903 131.571 66.7541C131.004 66.4942 130.33 66.3643 129.551 66.3643C128.842 66.3643 128.169 66.4942 127.531 66.7541C126.917 66.9903 126.373 67.3211 125.901 67.7463C125.452 68.1716 125.074 68.6795 124.767 69.2701C124.483 69.8371 124.318 70.4514 124.271 71.1129H134.264ZM137.631 72.4595C137.631 72.6485 137.631 72.8375 137.631 73.0265C137.631 73.2155 137.619 73.4045 137.595 73.5935H124.271C124.294 74.3023 124.448 74.9756 124.731 75.6135C125.038 76.2277 125.44 76.7711 125.936 77.2436C126.432 77.6925 126.999 78.0469 127.637 78.3067C128.299 78.5666 128.996 78.6966 129.728 78.6966C130.862 78.6966 131.842 78.4485 132.669 77.9524C133.496 77.4562 134.146 76.8538 134.618 76.145L136.957 78.0232C136.059 79.2045 134.996 80.0786 133.768 80.6456C132.563 81.189 131.216 81.4607 129.728 81.4607C128.452 81.4607 127.271 81.2481 126.184 80.8228C125.097 80.3976 124.164 79.8069 123.385 79.0509C122.605 78.2713 121.991 77.3381 121.542 76.2514C121.093 75.1646 120.869 73.9597 120.869 72.6367C120.869 71.3373 121.081 70.1443 121.506 69.0575C121.955 67.9471 122.57 67.0021 123.349 66.2225C124.129 65.4429 125.05 64.8404 126.113 64.4152C127.176 63.9663 128.322 63.7419 129.551 63.7419C130.779 63.7419 131.89 63.9427 132.882 64.3443C133.898 64.7459 134.748 65.3248 135.433 66.0808C136.142 66.8368 136.686 67.7581 137.064 68.8449C137.442 69.908 137.631 71.1129 137.631 72.4595ZM154.578 71.1129C154.555 70.4514 154.437 69.8371 154.224 69.2701C154.035 68.6795 153.74 68.1716 153.338 67.7463C152.96 67.3211 152.476 66.9903 151.885 66.7541C151.318 66.4942 150.645 66.3643 149.865 66.3643C149.156 66.3643 148.483 66.4942 147.845 66.7541C147.231 66.9903 146.687 67.3211 146.215 67.7463C145.766 68.1716 145.388 68.6795 145.081 69.2701C144.797 69.8371 144.632 70.4514 144.585 71.1129H154.578ZM157.945 72.4595C157.945 72.6485 157.945 72.8375 157.945 73.0265C157.945 73.2155 157.933 73.4045 157.909 73.5935H144.585C144.608 74.3023 144.762 74.9756 145.046 75.6135C145.353 76.2277 145.754 76.7711 146.25 77.2436C146.747 77.6925 147.314 78.0469 147.951 78.3067C148.613 78.5666 149.31 78.6966 150.042 78.6966C151.176 78.6966 152.157 78.4485 152.984 77.9524C153.81 77.4562 154.46 76.8538 154.933 76.145L157.272 78.0232C156.374 79.2045 155.311 80.0786 154.082 80.6456C152.877 81.189 151.531 81.4607 150.042 81.4607C148.767 81.4607 147.585 81.2481 146.498 80.8228C145.412 80.3976 144.479 79.8069 143.699 79.0509C142.919 78.2713 142.305 77.3381 141.856 76.2514C141.407 75.1646 141.183 73.9597 141.183 72.6367C141.183 71.3373 141.395 70.1443 141.821 69.0575C142.27 67.9471 142.884 67.0021 143.663 66.2225C144.443 65.4429 145.364 64.8404 146.428 64.4152C147.491 63.9663 148.637 63.7419 149.865 63.7419C151.094 63.7419 152.204 63.9427 153.196 64.3443C154.212 64.7459 155.063 65.3248 155.748 66.0808C156.456 66.8368 157 67.7581 157.378 68.8449C157.756 69.908 157.945 71.1129 157.945 72.4595ZM162.596 67.8172C162.596 67.3683 162.584 66.7895 162.56 66.0808C162.537 65.372 162.501 64.7459 162.454 64.2026H165.608C165.655 64.6278 165.691 65.1239 165.714 65.6909C165.738 66.2343 165.75 66.6832 165.75 67.0376H165.856C166.329 66.0453 167.014 65.2539 167.911 64.6632C168.833 64.049 169.86 63.7419 170.994 63.7419C171.514 63.7419 171.951 63.7891 172.306 63.8836L172.164 66.9667C171.691 66.8486 171.183 66.7895 170.64 66.7895C169.837 66.7895 169.14 66.9431 168.549 67.2502C167.959 67.5337 167.463 67.9235 167.061 68.4196C166.683 68.9158 166.399 69.4946 166.21 70.1561C166.021 70.794 165.927 71.4673 165.927 72.176V81H162.596V67.8172Z" fill="white"/>

</svg>
