<svg viewBox="0 0 111 64" fill="none" xmlns="http://www.w3.org/2000/svg">
<path d="M3.0999 11.4001L7.2999 3.6001L11.4999 13.2001L3.0999 11.4001ZM7.2999 0.600098L0.899902 12.4001L13.6999 15.0001L7.2999 0.600098Z" fill="currentColor"/>
<path d="M19.4001 15.9001C16.9001 15.4001 14.8001 12.5001 14.8001 9.5001C14.8001 6.5001 16.9001 4.4001 19.4001 5.0001C21.9001 5.5001 24.0001 8.4001 24.0001 11.4001C24.0001 14.4001 22.0001 16.4001 19.4001 15.9001ZM19.4001 3.5001C16.2001 2.8001 13.6001 5.40009 13.6001 9.30009C13.6001 13.1001 16.2001 16.8001 19.5001 17.5001C22.7001 18.2001 25.4001 15.6001 25.4001 11.8001C25.3001 7.80009 22.6001 4.1001 19.4001 3.5001Z" fill="currentColor"/>
<path d="M27.3001 16.3L31.5001 8.5L35.7001 18.1L27.3001 16.3ZM31.5001 5.5L25.1001 17.3L37.9001 19.9L31.5001 5.5Z" fill="currentColor"/>
<path d="M43.5997 20.9C41.0997 20.4 38.9997 17.5 38.9997 14.5C38.9997 11.5 41.0997 9.40001 43.5997 10C46.0997 10.5 48.1997 13.4 48.1997 16.4C48.1997 19.4 46.1997 21.4 43.5997 20.9ZM43.5997 8.4C40.3997 7.7 37.6997 10.3 37.6997 14.2C37.6997 18 40.2997 21.7 43.5997 22.4C46.7997 23.1 49.3997 20.5 49.3997 16.7C49.4997 12.8 46.8997 9.1 43.5997 8.4Z" fill="currentColor"/>
<path d="M51.7 21.8V12.3L59.7 13.9V23.4L51.7 21.8ZM61 12.7L50.5 10.5V23L61 25.2V12.7Z" fill="currentColor"/>
<path d="M67.8999 25.9C65.3999 25.4 63.2999 22.5 63.2999 19.5C63.2999 16.5 65.3999 14.4 67.8999 15C70.3999 15.6 72.4999 18.4 72.4999 21.4C72.4999 24.3 70.3999 26.4 67.8999 25.9ZM67.7999 13.4C64.5999 12.7 61.8999 15.3 61.8999 19.2C61.8999 23 64.4999 26.7 67.7999 27.4C70.9999 28.1 73.5999 25.5 73.5999 21.7C73.6999 17.7 71.0999 14.1 67.7999 13.4Z" fill="currentColor"/>
<path d="M75.9997 26.8V17.3L83.9997 18.9V28.4L75.9997 26.8ZM85.1997 17.7L74.6997 15.5V28L85.1997 30.2V17.7Z" fill="currentColor"/>
<path d="M87.7997 28.8L91.9997 21L96.1997 30.6L87.7997 28.8ZM92.0997 18L85.6997 29.8L98.4997 32.4L97.7997 32.3L98.0997 31.7L92.0997 18Z" fill="currentColor"/>
<path d="M99.8999 31.3L104.1 23.5L108.3 33.1L99.8999 31.3ZM104.2 20.5L98.1999 31.7L97.8999 32.3L98.5999 32.4L110.7 34.9L104.2 20.5Z" fill="currentColor"/>
<path d="M7.2999 27.8001C4.7999 27.3001 2.6999 24.4001 2.6999 21.4001C2.6999 18.4001 4.7999 16.4001 7.2999 16.9001C9.7999 17.4001 11.8999 20.3001 11.8999 23.3001C11.8999 26.3001 9.8999 28.3001 7.2999 27.8001ZM7.2999 15.4001C4.0999 14.7001 1.3999 17.3001 1.3999 21.1001C1.3999 24.9001 3.9999 28.6001 7.2999 29.3001C10.4999 30.0001 13.0999 27.4001 13.0999 23.5001C13.1999 19.7001 10.4999 16.0001 7.2999 15.4001Z" fill="currentColor"/>
<path d="M15.3997 28.7V19.2L23.3997 20.8V30.3L15.3997 28.7ZM24.6997 19.7L14.1997 17.5V30L24.6997 32.2V19.7Z" fill="currentColor"/>
<path d="M31.5001 32.8001C29.0001 32.3001 26.9001 29.4001 26.9001 26.4001C26.9001 23.4001 29.0001 21.4001 31.5001 21.9001C34.0001 22.4001 36.1001 25.3001 36.1001 28.3001C36.1001 31.3001 34.1001 33.3001 31.5001 32.8001ZM31.5001 20.4001C28.3001 19.7001 25.6001 22.3001 25.6001 26.1001C25.6001 29.9001 28.2001 33.6001 31.5001 34.3001C34.8001 35.0001 37.3001 32.4001 37.3001 28.5001C37.4001 24.7001 34.8001 21.0001 31.5001 20.4001Z" fill="currentColor"/>
<path d="M39.5999 33.7002V24.2002L47.5999 25.8001V35.3001L39.5999 33.7002ZM48.8999 24.6002L38.3999 22.4001V34.9001L48.8999 37.1002V24.6002Z" fill="currentColor"/>
<path d="M51.4998 35.7002L55.6998 27.9001L59.8998 37.5002L51.4998 35.7002ZM55.6998 24.9001L49.2998 36.7002L62.0998 39.3001L55.6998 24.9001Z" fill="currentColor"/>
<path d="M67.9 40.3C65.4 39.8 63.3 36.9 63.3 33.9C63.3 30.9 65.4 28.9 67.9 29.4C70.4 29.9 72.5 32.8 72.5 35.8C72.5 38.7 70.4 40.8 67.9 40.3ZM67.9 27.8C64.7 27.1 62 29.7001 62 33.5001C62 37.3001 64.6 41.0001 67.9 41.7001C71.1 42.4001 73.7 39.8 73.7 35.9C73.7 32.1 71.1 28.5 67.9 27.8Z" fill="currentColor"/>
<path d="M75.9997 41.2002V31.7002L83.9997 33.3001V42.8001L75.9997 41.2002ZM85.1997 32.1002L74.6997 29.9001V42.4001L85.1997 44.6002V32.1002Z" fill="currentColor"/>
<path d="M88.0998 43.7002V34.2002L96.0998 35.8001V45.3001L88.0998 43.7002ZM97.2998 34.6002L86.7998 32.4001V44.9001L97.2998 47.1002V34.6002Z" fill="currentColor"/>
<path d="M99.8998 45.7002L104.1 37.9001L108.3 47.5002L99.8998 45.7002ZM104.2 34.9001L97.7998 46.7002L110.6 49.3001L104.2 34.9001Z" fill="currentColor"/>
<path d="M3.0999 40.1001L7.2999 32.3L11.4999 41.9001L3.0999 40.1001ZM7.2999 29.3L0.899902 41.1001L13.6999 43.7001L7.2999 29.3Z" fill="currentColor"/>
<path d="M19.4001 44.7001C16.9001 44.2001 14.8001 41.3 14.8001 38.3C14.8001 35.3 16.9001 33.2 19.4001 33.8C21.9001 34.3 24.0001 37.2001 24.0001 40.2001C24.0001 43.2001 22.0001 45.2001 19.4001 44.7001ZM19.4001 32.2001C16.2001 31.5001 13.6001 34.1 13.6001 38C13.6001 41.8 16.2001 45.5001 19.5001 46.2001C22.8001 46.9001 25.4001 44.3 25.4001 40.5C25.3001 36.6 22.7001 32.9001 19.4001 32.2001Z" fill="currentColor"/>
<path d="M27.4998 45.6001V36.1001L35.4998 37.7001V47.2001L27.4998 45.6001ZM36.7998 36.5001L26.2998 34.3V46.8L36.7998 49.0001V36.5001Z" fill="currentColor"/>
<path d="M39.3997 47.6001L43.5997 39.8L47.7997 49.4001L39.3997 47.6001ZM43.5997 36.8L37.1997 48.6001L49.9997 51.2001L43.5997 36.8Z" fill="currentColor"/>
<path d="M55.8 52.2001C53.3 51.7001 51.2 48.8 51.2 45.8C51.2 42.8 53.3 40.7 55.8 41.3C58.3 41.9 60.4 44.7001 60.4 47.7001C60.4 50.6001 58.3 52.7001 55.8 52.2001ZM55.8 39.7001C52.6 39.0001 50 41.6 50 45.5C50 49.3 52.6 53.0001 55.9 53.7001C59.2 54.4001 61.8 51.8 61.8 48C61.6 44 59 40.4001 55.8 39.7001Z" fill="currentColor"/>
<path d="M63.9001 53.1001V43.6001L71.9001 45.2001V54.7001L63.9001 53.1001ZM73.1001 44.0001L62.6001 41.8V54.3L73.1001 56.5001V44.0001Z" fill="currentColor"/>
<path d="M75.7001 55.1001L79.9001 47.3L84.1001 56.9001L75.7001 55.1001ZM80.0001 44.3L73.6001 56.1001L86.4001 58.7001L80.0001 44.3Z" fill="currentColor"/>
<path d="M92.0998 59.6C89.5998 59.1 87.4998 56.2001 87.4998 53.2001C87.4998 50.2001 89.5998 48.1001 92.0998 48.7001C94.5998 49.2001 96.6998 52.1 96.6998 55.1C96.6998 58.1 94.5998 60.1 92.0998 59.6ZM92.0998 47.2001C88.8998 46.5001 86.2998 49.1 86.2998 53C86.2998 56.8 88.8998 60.5001 92.1998 61.2001C95.3998 61.9001 98.0998 59.3 98.0998 55.5C97.8998 51.5 95.2998 47.9001 92.0998 47.2001Z" fill="currentColor"/>
<path d="M100.2 60.6001V51.1001L108.2 52.7001V62.2001L100.2 60.6001ZM109.4 51.5001L98.8999 49.3V61.8L109.4 64.0001V51.5001Z" fill="currentColor"/>
</svg>