<?xml version="1.0" encoding="utf-8"?>
<!-- Generator: Adobe Illustrator 25.0.1, SVG Export Plug-In . SVG Version: 6.00 Build 0)  -->
<svg version="1.1" id="curve" xmlns="http://www.w3.org/2000/svg" xmlns:xlink="http://www.w3.org/1999/xlink" x="0px" y="0px"
	 viewBox="0 0 1920 1080" style="enable-background:new 0 0 1920 1080;" xml:space="preserve">
<style type="text/css">
	.st0{enable-background:new    ;}
	.st1{clip-path:url(#SVGID_2_);}
	.st2{fill:currentColor;}
</style>
<g>
	<g class="st0">
		<defs>
			<polygon id="SVGID_1_" class="st0" points="-332.2,247.3 -332.1,191.3 2097.4,714.5 2097.3,770.5 			"/>
		</defs>
		<clipPath id="SVGID_2_">
			<use xlink:href="#SVGID_1_"  style="overflow:visible;"/>
		</clipPath>
		<g class="st1">
			<path class="st2" d="M1598.5,607c-52.7-11.4-97.2-8.1-140.1-5c-42.7,3.1-86.9,6.4-139.1-4.9c-52.1-11.2-78.6-25.4-104.3-39.1
				c-25.9-13.9-52.7-28.2-105.4-39.6c-52.7-11.3-79.8-11.4-106.2-11.5c-26.1-0.1-53.1-0.2-105.3-11.5
				c-52.2-11.2-78.4-22.6-103.6-33.5c-25.5-11-51.8-22.5-104.6-33.8c-0.7-0.1-68.5-11.5-114.4-16.2c-48.4-5-168.2-22.4-224.5-34.5
				l-683.3-147.1l0,5.8l683.3,147.1c56.4,12.1,176.4,29.7,224.9,34.6c45.7,4.7,113.4,16.1,114,16.2c52.2,11.2,78.4,22.6,103.6,33.6
				c25.5,11,51.8,22.5,104.5,33.8c52.6,11.3,79.8,11.4,106.1,11.5c26.1,0.1,53.1,0.2,105.3,11.4c52.1,11.2,78.6,25.4,104.3,39.1
				c25.9,13.9,52.7,28.2,105.4,39.6c52.7,11.4,97.2,8.1,140.1,5c42.7-3.1,86.9-6.4,139.1,4.9c52.3,11.3,95.5,26.9,137.2,42.1
				c41.9,15.2,85.2,30.9,137.8,42.3c52.6,11.3,82.9,13.6,112.2,15.9c29.2,2.2,59.4,4.5,111.7,15.8l0-5.8
				c-52.6-11.3-82.9-13.6-112.2-15.9c-29.2-2.2-59.4-4.5-111.7-15.8s-95.5-27-137.2-42.1C1694.4,634.1,1651.1,618.4,1598.5,607"/>
		</g>
	</g>
</g>
</svg>
