<svg width="48" height="32" viewBox="0 0 48 32" fill="none" xmlns="http://www.w3.org/2000/svg">
<mask id="path-1-outside-1_9_106" maskUnits="userSpaceOnUse" x="0.498535" y="0" width="47" height="32" fill="currentColor">
<rect fill="currentColor" x="0.498535" width="47" height="32"/>
<path d="M21.4985 26L16.4985 31H6.49854L1.49854 26V23.5H6.49854V23.95L8.54854 26H14.4485L16.4985 23.95V1H21.4985V26Z"/>
<path d="M46.4985 13.5L41.2985 18.5H31.4985V31H26.4985V1H41.4985L46.4985 6V13.5ZM41.4985 11.45V8.05L39.4485 6H31.4985V13.5H39.4485L41.4985 11.45Z"/>
</mask>
<path d="M21.4985 26L16.4985 31H6.49854L1.49854 26V23.5H6.49854V23.95L8.54854 26H14.4485L16.4985 23.95V1H21.4985V26Z" fill="currentColor"/>
<path d="M46.4985 13.5L41.2985 18.5H31.4985V31H26.4985V1H41.4985L46.4985 6V13.5ZM41.4985 11.45V8.05L39.4485 6H31.4985V13.5H39.4485L41.4985 11.45Z" fill="currentColor"/>
<path d="M21.4985 26L22.2056 26.7071L22.4985 26.4142V26H21.4985ZM16.4985 31V32H16.9127L17.2056 31.7071L16.4985 31ZM6.49854 31L5.79143 31.7071L6.08432 32H6.49854V31ZM1.49854 26H0.498535V26.4142L0.791428 26.7071L1.49854 26ZM1.49854 23.5V22.5H0.498535V23.5H1.49854ZM6.49854 23.5H7.49854V22.5H6.49854V23.5ZM6.49854 23.95H5.49854V24.3642L5.79143 24.6571L6.49854 23.95ZM8.54854 26L7.84143 26.7071L8.13432 27H8.54854V26ZM14.4485 26V27H14.8628L15.1556 26.7071L14.4485 26ZM16.4985 23.95L17.2056 24.6571L17.4985 24.3642V23.95H16.4985ZM16.4985 1V0H15.4985V1H16.4985ZM21.4985 1H22.4985V0H21.4985V1ZM46.4985 13.5L47.1916 14.2208L47.4985 13.9257V13.5H46.4985ZM41.2985 18.5V19.5H41.7013L41.9916 19.2208L41.2985 18.5ZM31.4985 18.5V17.5H30.4985V18.5H31.4985ZM31.4985 31V32H32.4985V31H31.4985ZM26.4985 31H25.4985V32H26.4985V31ZM26.4985 1V0H25.4985V1H26.4985ZM41.4985 1L42.2056 0.292893L41.9128 0H41.4985V1ZM46.4985 6H47.4985V5.58579L47.2056 5.29289L46.4985 6ZM41.4985 11.45L42.2056 12.1571L42.4985 11.8642V11.45H41.4985ZM41.4985 8.05H42.4985V7.63579L42.2056 7.34289L41.4985 8.05ZM39.4485 6L40.1556 5.29289L39.8628 5H39.4485V6ZM31.4985 6V5H30.4985V6H31.4985ZM31.4985 13.5H30.4985V14.5H31.4985V13.5ZM39.4485 13.5V14.5H39.8628L40.1556 14.2071L39.4485 13.5ZM20.7914 25.2929L15.7914 30.2929L17.2056 31.7071L22.2056 26.7071L20.7914 25.2929ZM16.4985 30H6.49854V32H16.4985V30ZM7.20564 30.2929L2.20564 25.2929L0.791428 26.7071L5.79143 31.7071L7.20564 30.2929ZM2.49854 26V23.5H0.498535V26H2.49854ZM1.49854 24.5H6.49854V22.5H1.49854V24.5ZM5.49854 23.5V23.95H7.49854V23.5H5.49854ZM5.79143 24.6571L7.84143 26.7071L9.25564 25.2929L7.20564 23.2429L5.79143 24.6571ZM8.54854 27H14.4485V25H8.54854V27ZM15.1556 26.7071L17.2056 24.6571L15.7914 23.2429L13.7414 25.2929L15.1556 26.7071ZM17.4985 23.95V1H15.4985V23.95H17.4985ZM16.4985 2H21.4985V0H16.4985V2ZM20.4985 1V26H22.4985V1H20.4985ZM45.8054 12.7792L40.6054 17.7792L41.9916 19.2208L47.1916 14.2208L45.8054 12.7792ZM41.2985 17.5H31.4985V19.5H41.2985V17.5ZM30.4985 18.5V31H32.4985V18.5H30.4985ZM31.4985 30H26.4985V32H31.4985V30ZM27.4985 31V1H25.4985V31H27.4985ZM26.4985 2H41.4985V0H26.4985V2ZM40.7914 1.70711L45.7914 6.70711L47.2056 5.29289L42.2056 0.292893L40.7914 1.70711ZM45.4985 6V13.5H47.4985V6H45.4985ZM42.4985 11.45V8.05H40.4985V11.45H42.4985ZM42.2056 7.34289L40.1556 5.29289L38.7414 6.70711L40.7914 8.75711L42.2056 7.34289ZM39.4485 5H31.4985V7H39.4485V5ZM30.4985 6V13.5H32.4985V6H30.4985ZM31.4985 14.5H39.4485V12.5H31.4985V14.5ZM40.1556 14.2071L42.2056 12.1571L40.7914 10.7429L38.7414 12.7929L40.1556 14.2071Z" fill="currentColor" mask="url(#path-1-outside-1_9_106)"/>
</svg>
