<svg width="144" height="352" viewBox="0 0 144 352" fill="none" xmlns="http://www.w3.org/2000/svg">
<path d="M101.511 136.045L100.64 136.448V137.407V162.593H90.4186H88.9186V164.093V263.631L79.7013 268.24L78.8721 268.654V269.582V286.325V287.253L79.7013 287.667L88.9186 292.276V334.514L80.7212 350.128H64.9532L56.7558 334.514V317.597L67.4404 314.124L68.4767 313.787V312.698V301.814V300.724L67.4404 300.387L56.7558 296.915V201.462L67.5635 196.869L68.4767 196.481V195.488V181.256V180.264L67.5635 179.875L56.7558 175.282V164.093V162.593H55.2558H45.0349V138.154V137.167L44.1284 136.777C19.0511 125.972 1.5 101.034 1.5 72C1.5 33.0639 33.0639 1.5 72 1.5C110.936 1.5 142.5 33.0639 142.5 72C142.5 100.397 125.711 124.876 101.511 136.045ZM72 65.1279C83.9255 65.1279 93.593 55.4604 93.593 43.5349C93.593 31.6094 83.9255 21.9419 72 21.9419C60.0745 21.9419 50.407 31.6094 50.407 43.5349C50.407 55.4604 60.0745 65.1279 72 65.1279Z" stroke="white" stroke-width="3"/>
</svg>
