<svg width="802" height="334" viewBox="0 0 802 334" fill="none" xmlns="http://www.w3.org/2000/svg">
<g clip-path="url(#clip0_70_116)">
<path d="M734.85 206.174C753.329 206.174 770.836 205.85 788.303 206.174C795.03 206.174 797.624 204.23 798.839 197.59C806.455 159.907 800.468 120.747 781.94 87.053C738.011 6.5594 641.722 -23.0386 558.726 19.1922C531.695 32.9587 506.326 35.5905 478.809 21.6621C427.909 -4.12991 376.037 -4.41332 325.015 20.8523C297.134 34.6188 271.4 34.3354 243.964 19.4756C214.413 3.57758 180.688 -2.86752 147.351 1.0123C41.7012 11.7421 -27.557 123.899 10.6181 223.058C46.5237 316.427 148.648 357.039 240.803 313.229C269.536 299.584 295.188 299.584 323.516 314.241C373.281 340.033 424.465 340.195 475.446 316.185C484.83 311.603 494.463 307.547 504.3 304.038C525.333 296.871 543.934 305.495 562.454 314.12C633.901 347.321 714.465 330.558 763.42 271.484C773.308 259.539 780.765 245.611 789.357 232.573L787.087 229.982H734.85V206.174Z" fill="black"/>
<path d="M789.357 232.654C780.765 245.692 773.146 259.62 763.42 271.565C714.465 330.639 633.739 347.402 562.454 314.201C543.934 305.576 525.333 296.952 504.3 304.119C494.463 307.628 484.83 311.684 475.446 316.266C424.465 340.276 373.281 340.114 323.516 314.322C295.148 299.665 269.536 299.665 240.803 313.31C148.648 357.12 46.5237 316.509 10.6181 223.139C-27.557 124.02 41.7012 11.8636 147.351 1.01234C180.769 -2.96389 214.602 3.44039 244.248 19.3542C271.481 34.2139 297.215 34.4974 325.299 20.7309C376.32 -4.53474 428.193 -4.25132 479.296 21.5406C506.813 35.4691 532.182 32.8373 559.212 19.0708C642.208 -23.16 738.497 6.43798 782.427 86.9316C800.965 120.681 806.925 159.905 799.245 197.631L789.357 232.654ZM256.608 211.559C256.608 188.277 257.581 165.725 256.284 143.253C255.109 122.603 238.331 113.736 219.325 121.955C217.622 122.684 215.272 124.061 214.056 123.372C199.305 113.29 183.865 123.899 168.424 120.498V211.559H190.551V155.319C190.551 148.962 192.01 143.698 201.007 141.512V211.235H223.904C223.904 192.245 223.58 174.066 224.147 155.926C224.147 150.905 227.389 146.006 229.091 141.066L233.63 142.119V211.559H256.608ZM722.651 210.79V84.0568H700.768V120.781C699.703 120.877 698.631 120.877 697.566 120.781C675.358 116.044 657.486 123.291 647.436 141.026C636.899 159.854 639.047 189.371 654.204 202.003C662.315 208.315 672.055 212.191 682.288 213.179C695.094 214.596 708.427 211.923 722.53 210.871L722.651 210.79ZM261.309 166.251C261.309 193.541 280.153 213.826 305.887 213.826C331.621 213.826 350.465 193.582 350.222 166.251C349.979 138.92 331.702 118.919 305.887 118.919C280.072 118.919 261.228 138.678 261.187 166.292L261.309 166.251ZM451.374 166.251C451.374 193.946 469.691 213.827 495.465 213.867C521.24 213.908 540.044 193.622 539.841 166.372C539.638 139.123 521.321 118.959 495.546 118.959C469.772 118.959 451.333 138.394 451.252 166.251H451.374ZM384.79 211.559C384.79 194.27 384.79 178.115 384.79 161.959C385.115 156.456 387.5 151.277 391.472 147.45C395.444 143.624 400.712 141.432 406.228 141.309C415.752 141.309 418.629 145.723 418.751 160.097C418.751 165.846 418.751 171.596 418.751 177.305V211.559H441.526C441.526 192.65 441.729 174.47 441.526 156.291C441.08 126.49 419.277 111.752 391.153 121.996C389.183 122.906 387.042 123.389 384.871 123.413C377.658 122.563 370.485 121.267 362.987 120.133V211.559H384.79ZM65.8544 225.528C89.1971 206.984 110.432 190.059 131.83 172.891C133.81 171.405 135.417 169.479 136.523 167.265C137.63 165.052 138.206 162.611 138.206 160.137C138.206 157.663 137.63 155.222 136.523 153.009C135.417 150.795 133.81 148.869 131.83 147.383C112.324 131.835 92.8038 116.314 73.2705 100.82C71.3253 99.3215 69.218 98.1877 65.8949 96.2442C66.2677 101.393 66.2677 106.562 65.8949 111.711C64.2739 122.36 68.529 129.162 77.242 135.155C88.1839 142.605 98.1532 151.351 109.055 160.218C95.9243 170.624 83.6856 180.098 71.7711 190.018C68.9717 192.18 67.0325 195.266 66.3001 198.724C65.4491 206.984 65.9759 215.041 65.9759 225.609L65.8544 225.528ZM605.735 118.635C614.286 109.727 615.745 101.265 609.14 94.3412C603.263 88.1463 595.685 86.7696 589.282 92.3572C587.417 94.1685 585.934 96.3335 584.918 98.7253C583.902 101.117 583.374 103.687 583.365 106.286C583.568 111.144 587.418 115.882 590.336 121.631H551.148V143.658H588.391V211.559H611.125C611.125 182.406 611.125 153.861 610.923 125.275C610.923 123.291 608.005 121.348 605.857 118.716L605.735 118.635Z" fill="black"/>
<path d="M734.85 206.174V230.063H787.087L789.357 232.654C780.765 245.692 773.146 259.62 763.42 271.565C714.465 330.639 633.739 347.402 562.454 314.201C543.934 305.576 525.333 296.952 504.3 304.119C494.463 307.628 484.83 311.684 475.446 316.266C424.465 340.276 373.281 340.114 323.516 314.322C295.148 299.665 269.536 299.665 240.803 313.31C148.648 357.12 46.5237 316.509 10.6181 223.139C-27.557 124.02 41.7012 11.8636 147.351 1.01234C180.769 -2.96389 214.602 3.44039 244.248 19.3542C271.481 34.2139 297.215 34.4974 325.299 20.7309C376.32 -4.53474 428.193 -4.25132 479.296 21.5406C506.813 35.4691 532.182 32.8373 559.212 19.0708C642.208 -23.16 738.497 6.43798 782.427 86.9316C800.965 120.681 806.925 159.905 799.245 197.631C798.029 204.271 795.435 206.376 788.708 206.214C770.836 205.85 753.329 206.174 734.85 206.174ZM256.608 211.559C256.608 188.277 257.581 165.725 256.284 143.253C255.109 122.603 238.331 113.736 219.325 121.955C217.622 122.684 215.272 124.061 214.056 123.372C199.305 113.29 183.865 123.899 168.424 120.498V211.559H190.551V155.319C190.551 148.962 192.01 143.698 201.007 141.512V211.235H223.904C223.904 192.245 223.58 174.066 224.147 155.926C224.147 150.905 227.389 146.006 229.091 141.066L233.63 142.119V211.559H256.608ZM722.651 210.79V84.0568H700.768V120.781C699.703 120.877 698.631 120.877 697.566 120.781C675.358 116.044 657.486 123.291 647.436 141.026C636.9 159.854 639.047 189.371 654.204 202.003C662.315 208.315 672.055 212.191 682.288 213.179C695.094 214.596 708.427 211.923 722.53 210.871L722.651 210.79ZM261.309 166.251C261.309 193.541 280.153 213.826 305.887 213.826C331.621 213.826 350.465 193.582 350.222 166.251C349.979 138.92 331.702 118.919 305.887 118.919C280.072 118.919 261.228 138.678 261.187 166.292L261.309 166.251ZM451.374 166.251C451.374 193.946 469.691 213.827 495.465 213.867C521.24 213.907 540.043 193.622 539.841 166.372C539.638 139.123 521.321 118.959 495.546 118.959C469.772 118.959 451.333 138.394 451.252 166.251H451.374ZM384.79 211.559C384.79 194.27 384.79 178.115 384.79 161.959C385.115 156.456 387.5 151.277 391.472 147.45C395.444 143.624 400.712 141.432 406.228 141.309C415.752 141.309 418.629 145.723 418.751 160.097C418.751 165.846 418.751 171.596 418.751 177.305V211.559H441.526C441.526 192.65 441.729 174.47 441.526 156.291C441.08 126.49 419.277 111.752 391.153 121.996C389.183 122.906 387.042 123.389 384.871 123.413C377.658 122.563 370.485 121.267 362.987 120.133V211.559H384.79ZM65.8544 225.528C89.1971 206.984 110.432 190.059 131.83 172.891C133.81 171.405 135.417 169.479 136.523 167.265C137.63 165.052 138.206 162.611 138.206 160.137C138.206 157.663 137.63 155.222 136.523 153.009C135.417 150.795 133.81 148.869 131.83 147.383C112.324 131.835 92.8038 116.314 73.2705 100.82C71.3253 99.3215 69.218 98.1877 65.8949 96.2442C66.2677 101.393 66.2677 106.562 65.8949 111.711C64.2739 122.36 68.529 129.162 77.242 135.155C88.1839 142.605 98.1532 151.351 109.055 160.218C95.9243 170.624 83.6856 180.098 71.7711 190.018C68.9717 192.18 67.0325 195.266 66.3001 198.724C65.4491 206.984 65.9759 215.041 65.9759 225.609L65.8544 225.528ZM605.735 118.635C614.286 109.727 615.745 101.265 609.14 94.3412C603.263 88.1463 595.685 86.7696 589.282 92.3572C587.417 94.1685 585.934 96.3335 584.918 98.7253C583.902 101.117 583.374 103.687 583.365 106.286C583.568 111.144 587.418 115.882 590.336 121.631H551.148V143.658H588.39V211.559H611.125C611.125 182.406 611.125 153.861 610.923 125.275C610.923 123.291 608.005 121.348 605.857 118.716L605.735 118.635Z" fill="white"/>
<path d="M256.608 211.559H233.63V142.119L229.091 141.066C227.389 146.006 224.309 150.905 224.147 155.926C223.58 174.066 223.904 192.367 223.904 211.235H201.007V141.512C192.01 143.698 190.511 148.962 190.551 155.319V211.559H168.424V120.579C183.865 123.98 199.305 113.371 214.056 123.453C215.069 124.142 217.622 122.765 219.324 122.036C238.331 113.938 255.108 122.684 256.284 143.334C257.58 165.806 256.608 188.358 256.608 211.559Z" fill="black"/>
<path d="M722.529 210.871C708.427 211.923 695.094 214.596 682.004 213.3C671.771 212.312 662.031 208.436 653.92 202.125C638.763 189.492 636.616 159.975 647.152 141.147C657.202 123.251 675.074 116.003 697.282 120.902C698.347 120.999 699.419 120.999 700.484 120.902V84.1782H722.367L722.529 210.871ZM700.646 165.684C700.646 146.856 697.323 141.633 685.287 141.39C673.251 141.147 664.294 152.282 664.173 166.332C664.173 181.313 670.86 190.626 682.045 191.152C694.689 191.557 700.646 183.216 700.646 165.684Z" fill="black"/>
<path d="M261.187 166.292C261.187 138.678 279.748 118.959 305.765 118.959C331.783 118.959 350.06 138.678 350.1 166.292C350.141 193.906 331.296 213.867 305.765 213.867C280.234 213.867 261.106 193.582 261.187 166.292ZM284.652 166.292C284.652 181.111 292.757 191.031 305.239 191.233C317.72 191.436 326.312 181.637 326.514 166.939C326.717 152.242 318.126 141.35 305.401 141.431C292.676 141.512 284.733 151.432 284.652 166.251V166.292Z" fill="black"/>
<path d="M451.252 166.251C451.252 138.394 469.488 118.959 495.425 118.959C521.361 118.959 539.678 138.718 539.719 166.372C539.76 194.027 520.915 213.908 495.344 213.867C469.772 213.827 451.211 193.946 451.252 166.251ZM516.376 166.615C516.376 151.877 508.271 141.755 496.114 141.39C483.956 141.026 474.27 151.634 474.311 166.534C474.351 181.435 483.186 191.193 495.506 191.193C507.825 191.193 516.295 181.394 516.376 166.615Z" fill="black"/>
<path d="M384.79 211.559H362.825V119.931C370.322 121.064 377.495 122.36 384.709 123.21C386.879 123.187 389.02 122.704 390.99 121.793C419.115 111.549 440.918 126.288 441.364 156.088C441.607 174.268 441.364 192.529 441.364 211.357H418.75V177.386C418.75 171.677 418.75 165.927 418.75 160.177C418.75 145.804 415.751 141.471 406.228 141.39C400.712 141.513 395.444 143.705 391.472 147.531C387.5 151.357 385.114 156.537 384.79 162.04C384.79 178.195 384.79 194.351 384.79 211.559Z" fill="black"/>
<path d="M65.9758 225.609C65.9758 215.041 65.449 206.983 66.2189 199.007C66.9513 195.549 68.8905 192.463 71.6899 190.302C83.6044 180.382 96.0052 170.907 108.973 160.501C98.072 151.796 88.1027 142.888 77.1608 135.438C68.4478 129.446 64.1927 122.643 65.8137 111.995C66.1865 106.846 66.1865 101.676 65.8137 96.5275C68.9747 98.471 71.2441 99.6047 73.1893 101.103C92.7226 116.624 112.242 132.145 131.749 147.666C133.729 149.152 135.335 151.078 136.442 153.292C137.549 155.506 138.125 157.946 138.125 160.42C138.125 162.895 137.549 165.335 136.442 167.549C135.335 169.762 133.729 171.688 131.749 173.175C110.675 190.14 89.3185 207.065 65.9758 225.609Z" fill="black"/>
<path d="M605.857 118.716C608.005 121.348 610.922 123.291 610.963 125.235C611.247 153.821 611.166 182.366 611.166 211.518H588.431V143.536H551.188V121.51H590.376C587.58 115.76 583.608 111.023 583.406 106.164C583.446 103.587 583.997 101.044 585.026 98.6815C586.056 96.3187 587.543 94.183 589.403 92.3976C595.806 86.81 603.385 88.3486 609.261 94.3816C615.785 101.346 614.408 109.808 605.857 118.716Z" fill="black"/>
<path d="M700.646 165.684C700.646 183.378 694.689 191.557 682.045 191.152C670.86 190.828 664.011 181.313 664.173 166.332C664.173 152.282 673.737 141.188 685.287 141.39C696.836 141.593 700.646 146.775 700.646 165.684Z" fill="white"/>
<path d="M284.651 166.251C284.651 151.432 293 141.512 305.401 141.39C317.801 141.269 326.676 151.675 326.514 166.899C326.352 182.123 317.72 191.395 305.238 191.193C292.757 190.99 284.57 181.07 284.651 166.251Z" fill="white"/>
<path d="M516.376 166.615C516.376 181.394 507.866 191.233 495.344 191.193C482.821 191.152 474.189 180.868 474.149 166.534C474.108 152.201 483.267 141.066 495.951 141.39C508.636 141.714 516.417 151.877 516.376 166.615Z" fill="white"/>
</g>
<defs>
<clipPath id="clip0_70_116">
<rect width="802" height="334" fill="white"/>
</clipPath>
</defs>
</svg>
