<svg viewBox="0 0 225 94" fill="none" xmlns="http://www.w3.org/2000/svg">
<g clip-path="url(#clip0_4_37)">
<path d="M206.236 58.2008C211.4 58.2008 216.292 58.1102 221.173 58.2008C223.052 58.2008 223.777 57.6573 224.117 55.8001C226.245 45.2611 224.572 34.309 219.395 24.8859C207.12 2.37396 180.214 -5.90382 157.023 5.90701C149.47 9.75714 142.381 10.4932 134.692 6.59777C120.469 -0.615556 105.975 -0.69482 91.7177 6.3713C83.9269 10.2214 76.7362 10.1422 69.0699 5.98628C60.8127 1.54002 51.389 -0.2625 42.0737 0.822582C12.5523 3.82342 -6.80024 35.1906 3.86688 62.9229C13.8999 89.0358 42.4361 100.394 68.1867 88.1412C76.2153 84.3251 83.3833 84.3251 91.2987 88.4243C105.204 95.6376 119.507 95.6829 133.752 88.9678C136.374 87.6864 139.066 86.5523 141.815 85.5707C147.692 83.5664 152.889 85.9783 158.064 88.3903C178.029 97.6759 200.54 92.9878 214.22 76.4663C216.983 73.1257 219.066 69.2303 221.467 65.584L220.833 64.8593H206.236V58.2008Z" fill="white"/>
<path d="M221.467 65.6067C219.066 69.253 216.937 73.1485 214.22 76.489C200.54 93.0106 177.983 97.6987 158.064 88.4131C152.889 86.0011 147.692 83.5891 141.815 85.5934C139.066 86.575 136.374 87.7092 133.752 88.9906C119.507 95.7057 105.204 95.6604 91.2987 88.4471C83.372 84.3478 76.2153 84.3478 68.1867 88.164C42.4361 100.416 13.8999 89.0585 3.86688 62.9456C-6.80024 35.2247 12.5523 3.85748 42.0737 0.822673C51.4116 -0.289375 60.8653 1.50173 69.1492 5.9524C76.7589 10.1083 83.9495 10.1875 91.797 6.33742C106.054 -0.728699 120.548 -0.649435 134.828 6.56389C142.517 10.4593 149.606 9.72326 157.159 5.87313C180.35 -5.9377 207.256 2.34008 219.531 24.852C224.711 34.2908 226.376 45.2607 224.23 55.8116L221.467 65.6067ZM72.603 59.707C72.603 53.1957 72.8748 46.8883 72.5124 40.6035C72.184 34.8284 67.4959 32.3484 62.185 34.6472C61.7094 34.851 61.0526 35.236 60.7129 35.0435C56.591 32.2239 52.2766 35.1907 47.9622 34.2395V59.707H54.145V43.9781C54.145 42.2002 54.5527 40.7281 57.0666 40.1166V59.6164H63.4646C63.4646 54.3055 63.374 49.221 63.5325 44.1479C63.5325 42.7438 64.4384 41.3736 64.9141 39.9921L66.1823 40.2865V59.707H72.603ZM202.828 59.4918V24.048H196.713V34.3188C196.415 34.3457 196.116 34.3457 195.818 34.3188C189.613 32.9939 184.619 35.0209 181.811 39.9807C178.867 45.2464 179.467 53.5015 183.702 57.0345C185.968 58.7997 188.69 59.8837 191.549 60.1599C195.128 60.5563 198.853 59.8089 202.794 59.5145L202.828 59.4918ZM73.9165 47.0355C73.9165 54.6678 79.1822 60.3411 86.3728 60.3411C93.5635 60.3411 98.8291 54.6792 98.7612 47.0355C98.6933 39.3919 93.5862 33.7979 86.3728 33.7979C79.1595 33.7979 73.8939 39.3239 73.8826 47.0469L73.9165 47.0355ZM127.026 47.0355C127.026 54.7811 132.144 60.3411 139.346 60.3524C146.548 60.3638 151.802 54.6905 151.746 47.0695C151.689 39.4485 146.571 33.8092 139.369 33.8092C132.167 33.8092 127.014 39.2447 126.992 47.0355H127.026ZM108.42 59.707C108.42 54.8717 108.42 50.3534 108.42 45.8352C108.511 44.2961 109.178 42.8476 110.288 41.7775C111.398 40.7075 112.869 40.0943 114.411 40.06C117.072 40.06 117.876 41.2943 117.91 45.3143C117.91 46.9223 117.91 48.5303 117.91 50.127V59.707H124.274C124.274 54.4187 124.331 49.3343 124.274 44.2498C124.149 35.9155 118.057 31.7936 110.198 34.6585C109.648 34.9132 109.05 35.0482 108.443 35.0548C106.427 34.817 104.423 34.4547 102.328 34.1376V59.707H108.42ZM19.3014 63.6137C25.8239 58.4274 31.7577 53.694 37.7367 48.8926C38.2899 48.477 38.7389 47.9383 39.0481 47.3192C39.3573 46.7001 39.5183 46.0176 39.5183 45.3256C39.5183 44.6336 39.3573 43.9511 39.0481 43.332C38.7389 42.7129 38.2899 42.1743 37.7367 41.7586C32.2861 37.4102 26.8318 33.0694 21.3736 28.7361C20.8301 28.3171 20.2412 28 19.3127 27.4565C19.4169 28.8965 19.4169 30.3422 19.3127 31.7822C18.8597 34.7604 20.0487 36.6628 22.4834 38.3388C25.5408 40.4224 28.3265 42.8683 31.3726 45.3483C27.7037 48.2585 24.2839 50.9083 20.9547 53.6827C20.1724 54.2872 19.6306 55.1501 19.4259 56.1173C19.1881 58.4274 19.3353 60.6808 19.3353 63.6364L19.3014 63.6137ZM170.158 33.7186C172.548 31.2274 172.955 28.8607 171.11 26.9243C169.468 25.1917 167.35 24.8067 165.561 26.3694C165.04 26.876 164.625 27.4815 164.341 28.1504C164.058 28.8193 163.91 29.5382 163.908 30.2648C163.964 31.6237 165.04 32.9486 165.855 34.5566H154.905V40.7168H165.312V59.707H171.665C171.665 51.5538 171.665 43.5704 171.608 35.5757C171.608 35.0209 170.793 34.4773 170.192 33.7413L170.158 33.7186Z" fill="white"/>
<path d="M206.236 58.2009V64.882H220.833L221.467 65.6067C219.066 69.253 216.937 73.1485 214.22 76.489C200.54 93.0106 177.983 97.6987 158.064 88.4131C152.889 86.0011 147.692 83.5891 141.815 85.5934C139.066 86.575 136.374 87.7092 133.752 88.9906C119.507 95.7057 105.204 95.6604 91.2987 88.4471C83.372 84.3478 76.2153 84.3478 68.1867 88.164C42.4361 100.416 13.8999 89.0585 3.86688 62.9456C-6.80024 35.2247 12.5523 3.85748 42.0737 0.822673C51.4116 -0.289375 60.8653 1.50173 69.1492 5.9524C76.7589 10.1083 83.9495 10.1875 91.797 6.33742C106.054 -0.728699 120.548 -0.649435 134.828 6.56389C142.517 10.4593 149.606 9.72326 157.159 5.87313C180.35 -5.9377 207.256 2.34008 219.531 24.852C224.711 34.2908 226.376 45.2607 224.23 55.8116C223.89 57.6687 223.166 58.2575 221.286 58.2122C216.292 58.1103 211.4 58.2009 206.236 58.2009ZM72.603 59.707C72.603 53.1957 72.8748 46.8883 72.5124 40.6035C72.184 34.8284 67.4959 32.3484 62.185 34.6472C61.7094 34.851 61.0526 35.236 60.7129 35.0435C56.591 32.2239 52.2766 35.1907 47.9622 34.2395V59.707H54.145V43.9781C54.145 42.2002 54.5527 40.7281 57.0666 40.1166V59.6164H63.4646C63.4646 54.3055 63.374 49.221 63.5325 44.1479C63.5325 42.7438 64.4384 41.3736 64.9141 39.9921L66.1823 40.2865V59.707H72.603ZM202.828 59.4918V24.048H196.713V34.3188C196.415 34.3457 196.116 34.3457 195.818 34.3188C189.613 32.9939 184.619 35.0209 181.811 39.9807C178.867 45.2464 179.467 53.5015 183.702 57.0345C185.968 58.7997 188.69 59.8837 191.549 60.1599C195.128 60.5563 198.853 59.8089 202.794 59.5145L202.828 59.4918ZM73.9165 47.0355C73.9165 54.6678 79.1822 60.3411 86.3728 60.3411C93.5635 60.3411 98.8291 54.6792 98.7612 47.0355C98.6933 39.3919 93.5862 33.7979 86.3728 33.7979C79.1595 33.7979 73.8939 39.3239 73.8826 47.0469L73.9165 47.0355ZM127.026 47.0355C127.026 54.7811 132.144 60.3411 139.346 60.3524C146.548 60.3638 151.802 54.6905 151.746 47.0695C151.689 39.4485 146.571 33.8092 139.369 33.8092C132.167 33.8092 127.014 39.2447 126.992 47.0355H127.026ZM108.42 59.707C108.42 54.8717 108.42 50.3534 108.42 45.8352C108.511 44.2961 109.178 42.8476 110.288 41.7775C111.398 40.7075 112.869 40.0943 114.411 40.06C117.072 40.06 117.876 41.2943 117.91 45.3143C117.91 46.9223 117.91 48.5303 117.91 50.127V59.707H124.274C124.274 54.4187 124.331 49.3343 124.274 44.2498C124.149 35.9155 118.057 31.7936 110.198 34.6585C109.648 34.9132 109.05 35.0482 108.443 35.0548C106.427 34.817 104.423 34.4547 102.328 34.1376V59.707H108.42ZM19.3014 63.6137C25.8239 58.4274 31.7577 53.694 37.7367 48.8926C38.2899 48.477 38.7389 47.9383 39.0481 47.3192C39.3573 46.7001 39.5183 46.0176 39.5183 45.3256C39.5183 44.6336 39.3573 43.9511 39.0481 43.332C38.7389 42.7129 38.2899 42.1743 37.7367 41.7586C32.2861 37.4102 26.8318 33.0694 21.3736 28.7361C20.8301 28.3171 20.2412 28 19.3127 27.4565C19.4169 28.8965 19.4169 30.3422 19.3127 31.7822C18.8597 34.7604 20.0487 36.6628 22.4834 38.3388C25.5408 40.4224 28.3265 42.8683 31.3726 45.3483C27.7037 48.2585 24.2839 50.9083 20.9547 53.6827C20.1724 54.2872 19.6306 55.1501 19.4259 56.1173C19.1881 58.4274 19.3353 60.6808 19.3353 63.6364L19.3014 63.6137ZM170.158 33.7186C172.548 31.2274 172.955 28.8607 171.11 26.9243C169.468 25.1917 167.35 24.8067 165.561 26.3694C165.04 26.876 164.625 27.4815 164.341 28.1504C164.058 28.8193 163.91 29.5382 163.908 30.2648C163.964 31.6237 165.04 32.9486 165.855 34.5566H154.905V40.7168H165.312V59.707H171.665C171.665 51.5538 171.665 43.5704 171.608 35.5757C171.608 35.0209 170.793 34.4773 170.192 33.7413L170.158 33.7186Z" fill="black"/>
<path d="M72.6029 59.707H66.1823V40.2865L64.914 39.9921C64.4384 41.3736 63.5778 42.7438 63.5325 44.1479C63.3739 49.221 63.4645 54.3394 63.4645 59.6164H57.0665V40.1166C54.5526 40.7281 54.1336 42.2002 54.1449 43.9781V59.707H47.9621V34.2622C52.2765 35.2134 56.5909 32.2465 60.7128 35.0662C60.9959 35.2587 61.7093 34.8736 62.1849 34.6698C67.4958 32.405 72.1839 34.851 72.5123 40.6262C72.8747 46.911 72.6029 53.2184 72.6029 59.707Z" fill="white"/>
<path d="M202.794 59.5145C198.853 59.809 195.128 60.5563 191.47 60.194C188.611 59.9177 185.889 58.8338 183.622 57.0686C179.387 53.5355 178.787 45.2804 181.731 40.0148C184.54 35.0096 189.534 32.9826 195.739 34.3528C196.037 34.3798 196.336 34.3798 196.634 34.3528V24.082H202.749L202.794 59.5145ZM196.679 46.877C196.679 41.6114 195.75 40.1507 192.387 40.0827C189.024 40.0148 186.521 43.1288 186.487 47.0582C186.487 51.2481 188.356 53.8526 191.481 53.9998C195.014 54.113 196.679 51.7803 196.679 46.877Z" fill="white"/>
<path d="M73.8826 47.0467C73.8826 39.3238 79.0689 33.8091 86.3389 33.8091C93.6088 33.8091 98.7159 39.3238 98.7272 47.0467C98.7386 54.7696 93.4729 60.3523 86.3389 60.3523C79.2048 60.3523 73.8599 54.679 73.8826 47.0467ZM80.4391 47.0467C80.4391 51.1913 82.7039 53.9656 86.1917 54.0223C89.6794 54.0789 92.0801 51.3385 92.1367 47.2279C92.1933 43.1173 89.7927 40.0712 86.237 40.0939C82.6813 40.1165 80.4618 42.8909 80.4391 47.0354V47.0467Z" fill="white"/>
<path d="M126.992 47.0354C126.992 39.2446 132.087 33.8091 139.335 33.8091C146.582 33.8091 151.7 39.3351 151.712 47.0694C151.723 54.8036 146.457 60.3636 139.312 60.3523C132.167 60.341 126.98 54.781 126.992 47.0354ZM145.189 47.1373C145.189 43.0154 142.924 40.1844 139.527 40.0825C136.13 39.9806 133.424 42.9475 133.435 47.1147C133.446 51.2819 135.915 54.0109 139.357 54.0109C142.8 54.0109 145.167 51.2705 145.189 47.1373Z" fill="white"/>
<path d="M108.42 59.707H102.283V34.081C104.378 34.3981 106.382 34.7604 108.398 34.9982C109.004 34.9916 109.603 34.8565 110.153 34.6019C118.012 31.7369 124.104 35.8588 124.229 44.1932C124.297 49.2777 124.229 54.3847 124.229 59.6504H117.91V50.1496C117.91 48.5529 117.91 46.9449 117.91 45.3369C117.91 41.317 117.072 40.1053 114.411 40.0827C112.869 40.117 111.397 40.7301 110.288 41.8002C109.178 42.8702 108.511 44.3188 108.42 45.8578C108.42 50.3761 108.42 54.8943 108.42 59.707Z" fill="white"/>
<path d="M19.3353 63.6363C19.3353 60.6807 19.1881 58.4273 19.4032 56.1964C19.6079 55.2293 20.1497 54.3663 20.9319 53.7618C24.2612 50.9875 27.7263 48.3377 31.3499 45.4274C28.3038 42.9928 25.5181 40.5015 22.4607 38.4179C20.026 36.742 18.837 34.8396 19.29 31.8614C19.3942 30.4214 19.3942 28.9757 19.29 27.5356C20.1732 28.0792 20.8074 28.3963 21.3509 28.8153C26.809 33.1561 32.2634 37.4969 37.714 41.8377C38.2672 42.2534 38.7162 42.7921 39.0254 43.4112C39.3346 44.0302 39.4956 44.7128 39.4956 45.4048C39.4956 46.0968 39.3346 46.7793 39.0254 47.3984C38.7162 48.0175 38.2672 48.5561 37.714 48.9718C31.8255 53.7165 25.8578 58.4499 19.3353 63.6363Z" fill="white"/>
<path d="M170.192 33.7411C170.793 34.4772 171.608 35.0207 171.619 35.5643C171.698 43.559 171.676 51.5423 171.676 59.6955H165.323V40.6827H154.916V34.5225H165.867C165.085 32.9145 163.976 31.5896 163.919 30.2307C163.93 29.5101 164.084 28.7989 164.372 28.1381C164.659 27.4772 165.075 26.8799 165.595 26.3806C167.384 24.8179 169.502 25.2482 171.144 26.9355C172.967 28.8832 172.582 31.2499 170.192 33.7411Z" fill="white"/>
<path d="M196.679 46.8769C196.679 51.8254 195.014 54.1129 191.481 53.9996C188.356 53.909 186.442 51.2479 186.487 47.0581C186.487 43.1287 189.16 40.0259 192.387 40.0825C195.614 40.1392 196.679 41.5886 196.679 46.8769Z" fill="black"/>
<path d="M80.4391 47.0354C80.4391 42.8909 82.7718 40.1165 86.2369 40.0826C89.702 40.0486 92.182 42.9588 92.1367 47.2166C92.0914 51.4744 89.6794 54.0676 86.1916 54.011C82.7039 53.9544 80.4164 51.18 80.4391 47.0354Z" fill="black"/>
<path d="M145.189 47.1373C145.189 51.2705 142.811 54.0222 139.312 54.0109C135.813 53.9996 133.401 51.1233 133.39 47.1146C133.378 43.106 135.938 39.9919 139.482 40.0825C143.026 40.1731 145.201 43.0154 145.189 47.1373Z" fill="black"/>
</g>
<defs>
<clipPath id="clip0_4_37">
<rect width="224.1" height="93.4109" fill="white" transform="translate(0.899902 0.539551)"/>
</clipPath>
</defs>
</svg>
