<svg viewBox="0 0 71 48" fill="none" xmlns="http://www.w3.org/2000/svg">
<path d="M0 5.98201C0.00470116 4.39124 0.632169 2.86746 1.74445 1.7457C2.85673 0.623946 4.36277 -0.00396528 5.93146 1.88443e-05H65.0685C66.6372 -0.00396528 68.1433 0.623946 69.2556 1.7457C70.3678 2.86746 70.9953 4.39124 71 5.98201V42.018C70.9953 43.6088 70.3678 45.1325 69.2556 46.2543C68.1433 47.3761 66.6372 48.004 65.0685 48H5.93146C4.36277 48.004 2.85673 47.3761 1.74445 46.2543C0.632169 45.1325 0.00470116 43.6088 0 42.018L0 5.98201ZM5.91667 5.98201V42.018C5.91667 41.997 5.91667 42 5.93146 42H65.0685C65.0863 42 65.0833 42 65.0833 42.018V5.98201C65.0833 6.00301 65.0833 6.00001 65.0685 6.00001H5.93146C5.91371 6.00001 5.91667 6.00001 5.91667 5.98201ZM8.875 18V12L35.5 21L62.125 12V18L35.5 27L8.875 18V18Z" fill="black"/>
</svg>
