<svg
  width="327"
  height="209"
  viewBox="0 0 327 209"
  fill="none"
  xmlns="http://www.w3.org/2000/svg"
>
  <rect
    x="1.28974"
    y="1.28974"
    width="324.037"
    height="205.825"
    rx="24.9797"
    stroke="white"
    stroke-width="2.57949"
  />
  <mask
    id="mask0_2480_1613"
    style="mask-type: alpha"
    maskUnits="userSpaceOnUse"
    x="0"
    y="0"
    width="327"
    height="209"
  >
    <rect width="326.617" height="208.404" rx="26.2694" fill="#C4C4C4" />
  </mask>
  <g mask="url(#mask0_2480_1613)">
    <path
      d="M194 41L207.891 54.7629"
      stroke="white"
      stroke-width="3.65194"
      stroke-miterlimit="10"
    />
    <path
      d="M194 54.7629L207.891 41"
      stroke="white"
      stroke-width="3.65194"
      stroke-miterlimit="10"
    />
    <path
      d="M213.68 95.0225L227.571 108.914"
      stroke="white"
      stroke-width="3.65194"
      stroke-miterlimit="10"
    />
    <path
      d="M213.68 108.914L227.571 95.0225"
      stroke="white"
      stroke-width="3.65194"
      stroke-miterlimit="10"
    />
    <path
      d="M277.907 0L291.799 13.8915"
      stroke="white"
      stroke-width="3.65194"
      stroke-miterlimit="10"
    />
    <path
      d="M277.907 13.8915L291.799 0"
      stroke="white"
      stroke-width="3.65194"
      stroke-miterlimit="10"
    />
    <path
      d="M297.844 55.437L311.607 69.1998"
      stroke="white"
      stroke-width="3.65194"
      stroke-miterlimit="10"
    />
    <path
      d="M297.844 69.1998L311.607 55.437"
      stroke="white"
      stroke-width="3.65194"
      stroke-miterlimit="10"
    />
    <path
      d="M278.036 99.4265L291.927 113.318"
      stroke="white"
      stroke-width="3.65194"
      stroke-miterlimit="10"
    />
    <path
      d="M278.036 113.318L291.927 99.4265"
      stroke="white"
      stroke-width="3.65194"
      stroke-miterlimit="10"
    />
    <path
      d="M297.844 153.578L311.607 167.341"
      stroke="white"
      stroke-width="3.65194"
      stroke-miterlimit="10"
    />
    <path
      d="M297.844 167.341L311.607 153.578"
      stroke="white"
      stroke-width="3.65194"
      stroke-miterlimit="10"
    />
    <path
      d="M213.808 194.449L227.7 208.212"
      stroke="white"
      stroke-width="3.65194"
      stroke-miterlimit="10"
    />
    <path
      d="M213.808 208.212L227.7 194.449"
      stroke="white"
      stroke-width="3.65194"
      stroke-miterlimit="10"
    />
    <path
      d="M194.129 140.299L208.02 154.19"
      stroke="white"
      stroke-width="3.65194"
      stroke-miterlimit="10"
    />
    <path
      d="M194.129 154.19L208.02 140.299"
      stroke="white"
      stroke-width="3.65194"
      stroke-miterlimit="10"
    />
  </g>
  <path
    d="M33.0178 38.1882H33.0887L40.4952 18.9102H45.9526V44H42.4442V23.0209H42.3733L34.0455 44H31.8129L23.5205 23.0209H23.4497V44H20.0476V18.9102H25.505L33.0178 38.1882ZM62.3361 33.1206C62.3361 31.8685 61.9581 30.9471 61.2021 30.3565C60.4461 29.7423 59.442 29.4351 58.1899 29.4351C57.2449 29.4351 56.3471 29.6241 55.4966 30.0021C54.6697 30.3565 53.9728 30.8172 53.4058 31.3842L51.6339 29.2579C52.4608 28.4783 53.4649 27.8641 54.6461 27.4152C55.851 26.9663 57.1386 26.7419 58.5088 26.7419C59.7137 26.7419 60.7532 26.9191 61.6273 27.2734C62.5251 27.6042 63.2575 28.0649 63.8245 28.6555C64.3915 29.2461 64.8167 29.9431 65.1002 30.7463C65.3837 31.5496 65.5255 32.4119 65.5255 33.3333V40.6689C65.5255 41.2359 65.5373 41.8383 65.5609 42.4762C65.6082 43.0904 65.679 43.5984 65.7735 44H62.7613C62.5723 43.1967 62.4778 42.3935 62.4778 41.5902H62.3715C61.7573 42.488 60.9776 43.1849 60.0326 43.6811C59.1113 44.1772 58.0127 44.4253 56.7369 44.4253C56.0754 44.4253 55.3785 44.3308 54.6461 44.1418C53.9374 43.9764 53.2877 43.6929 52.6971 43.2912C52.1064 42.8896 51.6103 42.3581 51.2087 41.6966C50.8307 41.0351 50.6417 40.22 50.6417 39.2514C50.6417 37.9756 50.9842 36.9715 51.6694 36.2392C52.3545 35.4832 53.2522 34.9162 54.3626 34.5382C55.473 34.1365 56.7251 33.8766 58.119 33.7585C59.5129 33.6404 60.9186 33.5813 62.3361 33.5813V33.1206ZM61.521 35.9911C60.6941 35.9911 59.8318 36.0265 58.9341 36.0974C58.0599 36.1683 57.2567 36.31 56.5243 36.5227C55.8156 36.7353 55.2249 37.0542 54.7524 37.4795C54.2799 37.9047 54.0437 38.4717 54.0437 39.1805C54.0437 39.6766 54.1382 40.09 54.3272 40.4208C54.5398 40.7515 54.8115 41.0232 55.1423 41.2359C55.473 41.4485 55.8392 41.6021 56.2408 41.6966C56.6424 41.7674 57.0559 41.8029 57.4811 41.8029C59.0404 41.8029 60.2335 41.3422 61.0603 40.4208C61.9108 39.4758 62.3361 38.2945 62.3361 36.877V35.9911H61.521ZM71.0889 30.8172C71.0889 30.3683 71.0771 29.7895 71.0535 29.0808C71.0298 28.372 70.9944 27.7459 70.9472 27.2026H74.1011C74.1484 27.6278 74.1838 28.1239 74.2074 28.6909C74.231 29.2343 74.2429 29.6832 74.2429 30.0376H74.3492C74.8217 29.0453 75.5068 28.2539 76.4046 27.6632C77.3259 27.049 78.3536 26.7419 79.4876 26.7419C80.0074 26.7419 80.4444 26.7891 80.7988 26.8836L80.6571 29.9667C80.1846 29.8486 79.6766 29.7895 79.1333 29.7895C78.33 29.7895 77.6331 29.9431 77.0424 30.2502C76.4518 30.5337 75.9557 30.9235 75.5541 31.4196C75.1761 31.9158 74.8925 32.4946 74.7035 33.1561C74.5145 33.794 74.42 34.4673 74.42 35.176V44H71.0889V30.8172ZM87.3301 34.5027H87.4365L94.4886 27.2026H98.9537L91.0865 34.8217L99.627 44H95.0201L87.4365 35.2823H87.3301V44H83.999V17.2091H87.3301V34.5027ZM114.29 34.1129C114.266 33.4514 114.148 32.8371 113.936 32.2701C113.747 31.6795 113.451 31.1716 113.05 30.7463C112.672 30.3211 112.187 29.9903 111.597 29.7541C111.03 29.4942 110.356 29.3643 109.577 29.3643C108.868 29.3643 108.195 29.4942 107.557 29.7541C106.942 29.9903 106.399 30.3211 105.927 30.7463C105.478 31.1716 105.1 31.6795 104.793 32.2701C104.509 32.8371 104.344 33.4514 104.296 34.1129H114.29ZM117.656 35.4595C117.656 35.6485 117.656 35.8375 117.656 36.0265C117.656 36.2155 117.645 36.4045 117.621 36.5935H104.296C104.32 37.3023 104.474 37.9756 104.757 38.6135C105.064 39.2277 105.466 39.7711 105.962 40.2436C106.458 40.6925 107.025 41.0469 107.663 41.3067C108.325 41.5666 109.021 41.6966 109.754 41.6966C110.888 41.6966 111.868 41.4485 112.695 40.9524C113.522 40.4562 114.172 39.8538 114.644 39.145L116.983 41.0232C116.085 42.2045 115.022 43.0786 113.794 43.6456C112.589 44.189 111.242 44.4607 109.754 44.4607C108.478 44.4607 107.297 44.2481 106.21 43.8228C105.123 43.3976 104.19 42.8069 103.411 42.0509C102.631 41.2713 102.017 40.3381 101.568 39.2514C101.119 38.1646 100.894 36.9597 100.894 35.6367C100.894 34.3373 101.107 33.1443 101.532 32.0575C101.981 30.9471 102.595 30.0021 103.375 29.2225C104.155 28.4429 105.076 27.8404 106.139 27.4152C107.202 26.9663 108.348 26.7419 109.577 26.7419C110.805 26.7419 111.916 26.9427 112.908 27.3443C113.924 27.7459 114.774 28.3248 115.459 29.0808C116.168 29.8368 116.711 30.7581 117.089 31.8449C117.467 32.908 117.656 34.1129 117.656 35.4595ZM130.529 29.9313H126.064V38.6844C126.064 39.7002 126.253 40.4326 126.631 40.8815C127.009 41.3067 127.611 41.5194 128.438 41.5194C128.745 41.5194 129.076 41.4839 129.43 41.4131C129.785 41.3422 130.104 41.2359 130.387 41.0941L130.493 43.8228C130.092 43.9646 129.643 44.0709 129.147 44.1418C128.674 44.2363 128.178 44.2835 127.658 44.2835C126.076 44.2835 124.859 43.8464 124.008 42.9723C123.181 42.0982 122.768 40.787 122.768 39.0387V29.9313H119.543V27.2026H122.768V22.383H126.064V27.2026H130.529V29.9313ZM137.337 44H134.005V27.2026H137.337V44ZM137.904 21.1427C137.904 21.757 137.679 22.2649 137.23 22.6665C136.805 23.0682 136.285 23.269 135.671 23.269C135.057 23.269 134.537 23.0682 134.112 22.6665C133.686 22.2413 133.474 21.7334 133.474 21.1427C133.474 20.5285 133.686 20.0205 134.112 19.6189C134.537 19.1937 135.057 18.981 135.671 18.981C136.285 18.981 136.805 19.1937 137.23 19.6189C137.679 20.0205 137.904 20.5285 137.904 21.1427ZM146.153 27.2026C146.2 27.6278 146.236 28.1121 146.259 28.6555C146.283 29.1753 146.295 29.6123 146.295 29.9667H146.401C146.614 29.5178 146.897 29.1044 147.252 28.7264C147.63 28.3248 148.055 27.9822 148.527 27.6987C149 27.3916 149.52 27.1553 150.087 26.9899C150.654 26.8246 151.244 26.7419 151.858 26.7419C152.945 26.7419 153.878 26.9309 154.658 27.3089C155.438 27.6632 156.087 28.1476 156.607 28.7618C157.127 29.3761 157.505 30.0966 157.741 30.9235C158.001 31.7504 158.131 32.6363 158.131 33.5813V44H154.8V34.6799C154.8 33.9948 154.741 33.3451 154.623 32.7308C154.528 32.1166 154.339 31.5732 154.056 31.1007C153.772 30.6282 153.382 30.2502 152.886 29.9667C152.39 29.6832 151.752 29.5414 150.973 29.5414C149.65 29.5414 148.563 30.0494 147.712 31.0653C146.885 32.0575 146.472 33.3923 146.472 35.0697V44H143.141V30.8172C143.141 30.3683 143.129 29.7895 143.105 29.0808C143.082 28.372 143.046 27.7459 142.999 27.2026H146.153ZM165.078 46.8704C165.81 47.6973 166.72 48.3588 167.807 48.855C168.917 49.3511 170.051 49.5991 171.209 49.5991C172.319 49.5991 173.252 49.4338 174.008 49.103C174.764 48.7959 175.367 48.3588 175.815 47.7918C176.288 47.2485 176.619 46.5988 176.808 45.8428C177.02 45.0868 177.127 44.2717 177.127 43.3976V41.2359H177.056C176.442 42.1809 175.603 42.9014 174.54 43.3976C173.477 43.8937 172.343 44.1418 171.138 44.1418C169.862 44.1418 168.692 43.9173 167.629 43.4684C166.59 43.0196 165.704 42.4053 164.972 41.6257C164.239 40.8461 163.672 39.9365 163.271 38.897C162.869 37.8339 162.668 36.6998 162.668 35.495C162.668 34.2901 162.869 33.1561 163.271 32.093C163.672 31.0298 164.239 30.1084 164.972 29.3288C165.704 28.5256 166.59 27.8995 167.629 27.4506C168.669 26.9781 169.826 26.7419 171.102 26.7419C172.307 26.7419 173.453 27.0017 174.54 27.5215C175.65 28.0412 176.524 28.8327 177.162 29.8958H177.233V27.2026H180.458V43.1495C180.458 44.378 180.304 45.5474 179.997 46.6578C179.69 47.7918 179.17 48.7841 178.438 49.6346C177.705 50.5087 176.749 51.2057 175.567 51.7254C174.386 52.2452 172.921 52.505 171.173 52.505C169.708 52.505 168.232 52.2333 166.743 51.69C165.279 51.1702 164.015 50.426 162.952 49.4574L165.078 46.8704ZM166.106 35.4241C166.106 36.2037 166.224 36.9479 166.46 37.6567C166.72 38.3654 167.086 38.9915 167.558 39.5349C168.055 40.0782 168.645 40.5153 169.33 40.8461C170.015 41.1768 170.795 41.3422 171.669 41.3422C172.52 41.3422 173.299 41.1886 174.008 40.8815C174.717 40.5744 175.319 40.1609 175.815 39.6412C176.312 39.0978 176.69 38.4717 176.949 37.763C177.233 37.0306 177.375 36.251 177.375 35.4241C177.375 34.6208 177.233 33.8648 176.949 33.1561C176.69 32.4473 176.3 31.8213 175.78 31.2779C175.284 30.7345 174.681 30.3093 173.973 30.0021C173.288 29.6714 172.52 29.506 171.669 29.506C170.795 29.506 170.015 29.6714 169.33 30.0021C168.645 30.3093 168.055 30.7345 167.558 31.2779C167.086 31.7976 166.72 32.4237 166.46 33.1561C166.224 33.8648 166.106 34.6208 166.106 35.4241ZM20.0476 54.9102H28.659C30.2655 54.9102 31.872 55.1464 33.4785 55.6189C35.085 56.0914 36.538 56.8356 37.8373 57.8515C39.1367 58.8674 40.188 60.1667 40.9913 61.7496C41.7945 63.3325 42.1962 65.2343 42.1962 67.4551C42.1962 69.605 41.7945 71.4713 40.9913 73.0542C40.188 74.6135 39.1367 75.9129 37.8373 76.9524C36.538 77.9682 35.085 78.7361 33.4785 79.2558C31.872 79.7519 30.2655 80 28.659 80H20.0476V54.9102ZM23.556 76.9169H27.9502C29.4622 76.9169 30.8561 76.7043 32.1319 76.279C33.4313 75.8538 34.5416 75.2395 35.463 74.4363C36.408 73.633 37.1404 72.6408 37.6601 71.4595C38.1799 70.2783 38.4398 68.9435 38.4398 67.4551C38.4398 65.8958 38.1799 64.5256 37.6601 63.3443C37.1404 62.1631 36.408 61.1826 35.463 60.403C34.5416 59.5997 33.4313 58.9973 32.1319 58.5957C30.8561 58.1704 29.4622 57.9578 27.9502 57.9578H23.556V76.9169ZM50.1959 80H46.8648V63.2026H50.1959V80ZM50.7629 57.1427C50.7629 57.757 50.5385 58.2649 50.0896 58.6665C49.6644 59.0682 49.1446 59.269 48.5304 59.269C47.9161 59.269 47.3964 59.0682 46.9711 58.6665C46.5459 58.2413 46.3332 57.7334 46.3332 57.1427C46.3332 56.5285 46.5459 56.0205 46.9711 55.6189C47.3964 55.1937 47.9161 54.981 48.5304 54.981C49.1446 54.981 49.6644 55.1937 50.0896 55.6189C50.5385 56.0205 50.7629 56.5285 50.7629 57.1427ZM56.0002 66.8172C56.0002 66.3683 55.9884 65.7895 55.9648 65.0808C55.9412 64.372 55.9057 63.7459 55.8585 63.2026H59.0124C59.0597 63.6278 59.0951 64.1239 59.1187 64.6909C59.1424 65.2343 59.1542 65.6832 59.1542 66.0376H59.2605C59.733 65.0453 60.4181 64.2539 61.3159 63.6632C62.2373 63.049 63.2649 62.7419 64.3989 62.7419C64.9187 62.7419 65.3558 62.7891 65.7101 62.8836L65.5684 65.9667C65.0959 65.8486 64.588 65.7895 64.0446 65.7895C63.2413 65.7895 62.5444 65.9431 61.9538 66.2502C61.3631 66.5337 60.867 66.9235 60.4654 67.4196C60.0874 67.9158 59.8039 68.4946 59.6149 69.1561C59.4259 69.794 59.3314 70.4673 59.3314 71.176V80H56.0002V66.8172ZM80.5134 70.1129C80.4898 69.4514 80.3716 68.8371 80.159 68.2701C79.97 67.6795 79.6747 67.1716 79.2731 66.7463C78.8951 66.3211 78.4107 65.9903 77.8201 65.7541C77.2531 65.4942 76.5798 65.3643 75.8002 65.3643C75.0914 65.3643 74.4181 65.4942 73.7802 65.7541C73.166 65.9903 72.6226 66.3211 72.1501 66.7463C71.7012 67.1716 71.3232 67.6795 71.0161 68.2701C70.7326 68.8371 70.5672 69.4514 70.52 70.1129H80.5134ZM83.88 71.4595C83.88 71.6485 83.88 71.8375 83.88 72.0265C83.88 72.2155 83.8681 72.4045 83.8445 72.5935H70.52C70.5436 73.3023 70.6972 73.9756 70.9807 74.6135C71.2878 75.2277 71.6894 75.7711 72.1855 76.2436C72.6817 76.6925 73.2487 77.0469 73.8865 77.3067C74.548 77.5666 75.245 77.6966 75.9774 77.6966C77.1114 77.6966 78.0918 77.4485 78.9187 76.9524C79.7456 76.4562 80.3953 75.8538 80.8678 75.145L83.2066 77.0232C82.3089 78.2045 81.2458 79.0786 80.0173 79.6456C78.8124 80.189 77.4657 80.4607 75.9774 80.4607C74.7016 80.4607 73.5204 80.2481 72.4336 79.8228C71.3468 79.3976 70.4137 78.8069 69.634 78.0509C68.8544 77.2713 68.2401 76.3381 67.7913 75.2514C67.3424 74.1646 67.118 72.9597 67.118 71.6367C67.118 70.3373 67.3306 69.1443 67.7558 68.0575C68.2047 66.9471 68.819 66.0021 69.5986 65.2225C70.3782 64.4429 71.2996 63.8404 72.3627 63.4152C73.4259 62.9663 74.5717 62.7419 75.8002 62.7419C77.0287 62.7419 78.1391 62.9427 79.1313 63.3443C80.1472 63.7459 80.9977 64.3248 81.6828 65.0808C82.3916 65.8368 82.935 66.7581 83.313 67.8449C83.691 68.908 83.88 70.1129 83.88 71.4595ZM100.296 67.4551C99.9418 66.9117 99.4102 66.4628 98.7015 66.1084C97.9927 65.7304 97.2367 65.5414 96.4335 65.5414C95.5593 65.5414 94.7797 65.7068 94.0946 66.0376C93.4331 66.3683 92.8661 66.8172 92.3936 67.3842C91.9211 67.9276 91.5549 68.5655 91.295 69.2978C91.0588 70.0302 90.9406 70.798 90.9406 71.6013C90.9406 72.4045 91.0588 73.1723 91.295 73.9047C91.5549 74.6371 91.9211 75.2868 92.3936 75.8538C92.8661 76.3972 93.4449 76.8342 94.13 77.165C94.8151 77.4957 95.5948 77.6611 96.4689 77.6611C97.3194 77.6611 98.0872 77.4957 98.7723 77.165C99.4811 76.8342 100.06 76.3854 100.509 75.8184L102.741 77.8383C102.033 78.6652 101.147 79.3149 100.084 79.7874C99.0204 80.2363 97.8155 80.4607 96.4689 80.4607C95.1695 80.4607 93.9646 80.2481 92.8543 79.8228C91.7675 79.3976 90.8225 78.8069 90.0193 78.0509C89.216 77.2713 88.5781 76.3381 88.1056 75.2514C87.6567 74.1646 87.4323 72.9479 87.4323 71.6013C87.4323 70.2783 87.6567 69.0734 88.1056 67.9866C88.5545 66.8999 89.1806 65.9667 89.9838 65.1871C90.7871 64.4074 91.7321 63.805 92.8188 63.3797C93.9292 62.9545 95.1223 62.7419 96.398 62.7419C97.5793 62.7419 98.7487 62.9781 99.9064 63.4506C101.088 63.9231 102.021 64.6083 102.706 65.506L100.296 67.4551ZM114.264 65.9313H109.798V74.6844C109.798 75.7002 109.987 76.4326 110.365 76.8815C110.743 77.3067 111.346 77.5194 112.173 77.5194C112.48 77.5194 112.811 77.4839 113.165 77.4131C113.519 77.3422 113.838 77.2359 114.122 77.0941L114.228 79.8228C113.827 79.9646 113.378 80.0709 112.882 80.1418C112.409 80.2363 111.913 80.2835 111.393 80.2835C109.81 80.2835 108.594 79.8464 107.743 78.9723C106.916 78.0982 106.503 76.787 106.503 75.0387V65.9313H103.278V63.2026H106.503V58.383H109.798V63.2026H114.264V65.9313ZM134.715 71.5658C134.715 72.8652 134.478 74.0583 134.006 75.145C133.557 76.2318 132.919 77.1768 132.092 77.9801C131.289 78.7597 130.332 79.3739 129.222 79.8228C128.111 80.2481 126.918 80.4607 125.643 80.4607C124.367 80.4607 123.174 80.2481 122.063 79.8228C120.953 79.3739 119.996 78.7597 119.193 77.9801C118.39 77.1768 117.752 76.2318 117.279 75.145C116.831 74.0583 116.606 72.8652 116.606 71.5658C116.606 70.2665 116.831 69.0852 117.279 68.0221C117.752 66.9353 118.39 66.0021 119.193 65.2225C119.996 64.4429 120.953 63.8404 122.063 63.4152C123.174 62.9663 124.367 62.7419 125.643 62.7419C126.918 62.7419 128.111 62.9663 129.222 63.4152C130.332 63.8404 131.289 64.4429 132.092 65.2225C132.919 66.0021 133.557 66.9353 134.006 68.0221C134.478 69.0852 134.715 70.2665 134.715 71.5658ZM131.242 71.5658C131.242 70.7626 131.112 69.9948 130.852 69.2624C130.616 68.53 130.261 67.8921 129.789 67.3488C129.316 66.7818 128.726 66.3329 128.017 66.0021C127.332 65.6714 126.54 65.506 125.643 65.506C124.745 65.506 123.942 65.6714 123.233 66.0021C122.548 66.3329 121.969 66.7818 121.496 67.3488C121.024 67.8921 120.658 68.53 120.398 69.2624C120.162 69.9948 120.044 70.7626 120.044 71.5658C120.044 72.3691 120.162 73.1369 120.398 73.8693C120.658 74.6017 121.024 75.2514 121.496 75.8184C121.969 76.3854 122.548 76.8342 123.233 77.165C123.942 77.4957 124.745 77.6611 125.643 77.6611C126.54 77.6611 127.332 77.4957 128.017 77.165C128.726 76.8342 129.316 76.3854 129.789 75.8184C130.261 75.2514 130.616 74.6017 130.852 73.8693C131.112 73.1369 131.242 72.3691 131.242 71.5658ZM139.334 66.8172C139.334 66.3683 139.322 65.7895 139.299 65.0808C139.275 64.372 139.24 63.7459 139.192 63.2026H142.346C142.393 63.6278 142.429 64.1239 142.453 64.6909C142.476 65.2343 142.488 65.6832 142.488 66.0376H142.594C143.067 65.0453 143.752 64.2539 144.65 63.6632C145.571 63.049 146.599 62.7419 147.733 62.7419C148.253 62.7419 148.69 62.7891 149.044 62.8836L148.902 65.9667C148.43 65.8486 147.922 65.7895 147.378 65.7895C146.575 65.7895 145.878 65.9431 145.288 66.2502C144.697 66.5337 144.201 66.9235 143.799 67.4196C143.421 67.9158 143.138 68.4946 142.949 69.1561C142.76 69.794 142.665 70.4673 142.665 71.176V80H139.334V66.8172Z"
    fill="white"
  />
</svg>
