<svg
  width="327"
  height="212"
  viewBox="0 0 327 212"
  fill="none"
  xmlns="http://www.w3.org/2000/svg"
>
  <path
    d="M194 43L207.891 56.7629"
    stroke="white"
    stroke-width="3.65194"
    stroke-miterlimit="10"
  />
  <path
    d="M194 56.7629L207.891 43"
    stroke="white"
    stroke-width="3.65194"
    stroke-miterlimit="10"
  />
  <path
    d="M213.68 97.0225L227.571 110.914"
    stroke="white"
    stroke-width="3.65194"
    stroke-miterlimit="10"
  />
  <path
    d="M213.68 110.914L227.571 97.0225"
    stroke="white"
    stroke-width="3.65194"
    stroke-miterlimit="10"
  />
  <path
    d="M277.907 2L291.799 15.8915"
    stroke="white"
    stroke-width="3.65194"
    stroke-miterlimit="10"
  />
  <path
    d="M277.907 15.8915L291.799 2"
    stroke="white"
    stroke-width="3.65194"
    stroke-miterlimit="10"
  />
  <path
    d="M297.844 57.437L311.607 71.1998"
    stroke="white"
    stroke-width="3.65194"
    stroke-miterlimit="10"
  />
  <path
    d="M297.844 71.1998L311.607 57.437"
    stroke="white"
    stroke-width="3.65194"
    stroke-miterlimit="10"
  />
  <path
    d="M278.036 101.427L291.927 115.318"
    stroke="white"
    stroke-width="3.65194"
    stroke-miterlimit="10"
  />
  <path
    d="M278.036 115.318L291.927 101.427"
    stroke="white"
    stroke-width="3.65194"
    stroke-miterlimit="10"
  />
  <path
    d="M297.844 155.578L311.607 169.341"
    stroke="white"
    stroke-width="3.65194"
    stroke-miterlimit="10"
  />
  <path
    d="M297.844 169.341L311.607 155.578"
    stroke="white"
    stroke-width="3.65194"
    stroke-miterlimit="10"
  />
  <path
    d="M213.808 196.449L227.7 210.212"
    stroke="white"
    stroke-width="3.65194"
    stroke-miterlimit="10"
  />
  <path
    d="M213.808 210.212L227.7 196.449"
    stroke="white"
    stroke-width="3.65194"
    stroke-miterlimit="10"
  />
  <path
    d="M194.129 142.299L208.02 156.19"
    stroke="white"
    stroke-width="3.65194"
    stroke-miterlimit="10"
  />
  <path
    d="M194.129 156.19L208.02 142.299"
    stroke="white"
    stroke-width="3.65194"
    stroke-miterlimit="10"
  />
  <path
    d="M33.0178 40.1882H33.0887L40.4952 20.9102H45.9526V46H42.4442V25.0209H42.3733L34.0455 46H31.8129L23.5205 25.0209H23.4497V46H20.0476V20.9102H25.505L33.0178 40.1882ZM62.3361 35.1206C62.3361 33.8685 61.9581 32.9471 61.2021 32.3565C60.4461 31.7423 59.442 31.4351 58.1899 31.4351C57.2449 31.4351 56.3471 31.6241 55.4966 32.0021C54.6697 32.3565 53.9728 32.8172 53.4058 33.3842L51.6339 31.2579C52.4608 30.4783 53.4649 29.8641 54.6461 29.4152C55.851 28.9663 57.1386 28.7419 58.5088 28.7419C59.7137 28.7419 60.7532 28.9191 61.6273 29.2734C62.5251 29.6042 63.2575 30.0649 63.8245 30.6555C64.3915 31.2461 64.8167 31.9431 65.1002 32.7463C65.3837 33.5496 65.5255 34.4119 65.5255 35.3333V42.6689C65.5255 43.2359 65.5373 43.8383 65.5609 44.4762C65.6082 45.0904 65.679 45.5984 65.7735 46H62.7613C62.5723 45.1967 62.4778 44.3935 62.4778 43.5902H62.3715C61.7573 44.488 60.9776 45.1849 60.0326 45.6811C59.1113 46.1772 58.0127 46.4253 56.7369 46.4253C56.0754 46.4253 55.3785 46.3308 54.6461 46.1418C53.9374 45.9764 53.2877 45.6929 52.6971 45.2912C52.1064 44.8896 51.6103 44.3581 51.2087 43.6966C50.8307 43.0351 50.6417 42.22 50.6417 41.2514C50.6417 39.9756 50.9842 38.9715 51.6694 38.2392C52.3545 37.4832 53.2522 36.9162 54.3626 36.5382C55.473 36.1365 56.7251 35.8766 58.119 35.7585C59.5129 35.6404 60.9186 35.5813 62.3361 35.5813V35.1206ZM61.521 37.9911C60.6941 37.9911 59.8318 38.0265 58.9341 38.0974C58.0599 38.1683 57.2567 38.31 56.5243 38.5227C55.8156 38.7353 55.2249 39.0542 54.7524 39.4795C54.2799 39.9047 54.0437 40.4717 54.0437 41.1805C54.0437 41.6766 54.1382 42.09 54.3272 42.4208C54.5398 42.7515 54.8115 43.0232 55.1423 43.2359C55.473 43.4485 55.8392 43.6021 56.2408 43.6966C56.6424 43.7674 57.0559 43.8029 57.4811 43.8029C59.0404 43.8029 60.2335 43.3422 61.0603 42.4208C61.9108 41.4758 62.3361 40.2945 62.3361 38.877V37.9911H61.521ZM71.0889 32.8172C71.0889 32.3683 71.0771 31.7895 71.0535 31.0808C71.0298 30.372 70.9944 29.7459 70.9472 29.2026H74.1011C74.1484 29.6278 74.1838 30.1239 74.2074 30.6909C74.231 31.2343 74.2429 31.6832 74.2429 32.0376H74.3492C74.8217 31.0453 75.5068 30.2539 76.4046 29.6632C77.3259 29.049 78.3536 28.7419 79.4876 28.7419C80.0074 28.7419 80.4444 28.7891 80.7988 28.8836L80.6571 31.9667C80.1846 31.8486 79.6766 31.7895 79.1333 31.7895C78.33 31.7895 77.6331 31.9431 77.0424 32.2502C76.4518 32.5337 75.9557 32.9235 75.5541 33.4196C75.1761 33.9158 74.8925 34.4946 74.7035 35.1561C74.5145 35.794 74.42 36.4673 74.42 37.176V46H71.0889V32.8172ZM87.3301 36.5027H87.4365L94.4886 29.2026H98.9537L91.0865 36.8217L99.627 46H95.0201L87.4365 37.2823H87.3301V46H83.999V19.2091H87.3301V36.5027ZM114.29 36.1129C114.266 35.4514 114.148 34.8371 113.936 34.2701C113.747 33.6795 113.451 33.1716 113.05 32.7463C112.672 32.3211 112.187 31.9903 111.597 31.7541C111.03 31.4942 110.356 31.3643 109.577 31.3643C108.868 31.3643 108.195 31.4942 107.557 31.7541C106.942 31.9903 106.399 32.3211 105.927 32.7463C105.478 33.1716 105.1 33.6795 104.793 34.2701C104.509 34.8371 104.344 35.4514 104.296 36.1129H114.29ZM117.656 37.4595C117.656 37.6485 117.656 37.8375 117.656 38.0265C117.656 38.2155 117.645 38.4045 117.621 38.5935H104.296C104.32 39.3023 104.474 39.9756 104.757 40.6135C105.064 41.2277 105.466 41.7711 105.962 42.2436C106.458 42.6925 107.025 43.0469 107.663 43.3067C108.325 43.5666 109.021 43.6966 109.754 43.6966C110.888 43.6966 111.868 43.4485 112.695 42.9524C113.522 42.4562 114.172 41.8538 114.644 41.145L116.983 43.0232C116.085 44.2045 115.022 45.0786 113.794 45.6456C112.589 46.189 111.242 46.4607 109.754 46.4607C108.478 46.4607 107.297 46.2481 106.21 45.8228C105.123 45.3976 104.19 44.8069 103.411 44.0509C102.631 43.2713 102.017 42.3381 101.568 41.2514C101.119 40.1646 100.894 38.9597 100.894 37.6367C100.894 36.3373 101.107 35.1443 101.532 34.0575C101.981 32.9471 102.595 32.0021 103.375 31.2225C104.155 30.4429 105.076 29.8404 106.139 29.4152C107.202 28.9663 108.348 28.7419 109.577 28.7419C110.805 28.7419 111.916 28.9427 112.908 29.3443C113.924 29.7459 114.774 30.3248 115.459 31.0808C116.168 31.8368 116.711 32.7581 117.089 33.8449C117.467 34.908 117.656 36.1129 117.656 37.4595ZM130.529 31.9313H126.064V40.6844C126.064 41.7002 126.253 42.4326 126.631 42.8815C127.009 43.3067 127.611 43.5194 128.438 43.5194C128.745 43.5194 129.076 43.4839 129.43 43.4131C129.785 43.3422 130.104 43.2359 130.387 43.0941L130.493 45.8228C130.092 45.9646 129.643 46.0709 129.147 46.1418C128.674 46.2363 128.178 46.2835 127.658 46.2835C126.076 46.2835 124.859 45.8464 124.008 44.9723C123.181 44.0982 122.768 42.787 122.768 41.0387V31.9313H119.543V29.2026H122.768V24.383H126.064V29.2026H130.529V31.9313ZM137.337 46H134.005V29.2026H137.337V46ZM137.904 23.1427C137.904 23.757 137.679 24.2649 137.23 24.6665C136.805 25.0682 136.285 25.269 135.671 25.269C135.057 25.269 134.537 25.0682 134.112 24.6665C133.686 24.2413 133.474 23.7334 133.474 23.1427C133.474 22.5285 133.686 22.0205 134.112 21.6189C134.537 21.1937 135.057 20.981 135.671 20.981C136.285 20.981 136.805 21.1937 137.23 21.6189C137.679 22.0205 137.904 22.5285 137.904 23.1427ZM146.153 29.2026C146.2 29.6278 146.236 30.1121 146.259 30.6555C146.283 31.1753 146.295 31.6123 146.295 31.9667H146.401C146.614 31.5178 146.897 31.1044 147.252 30.7264C147.63 30.3248 148.055 29.9822 148.527 29.6987C149 29.3916 149.52 29.1553 150.087 28.9899C150.654 28.8246 151.244 28.7419 151.858 28.7419C152.945 28.7419 153.878 28.9309 154.658 29.3089C155.438 29.6632 156.087 30.1476 156.607 30.7618C157.127 31.3761 157.505 32.0966 157.741 32.9235C158.001 33.7504 158.131 34.6363 158.131 35.5813V46H154.8V36.6799C154.8 35.9948 154.741 35.3451 154.623 34.7308C154.528 34.1166 154.339 33.5732 154.056 33.1007C153.772 32.6282 153.382 32.2502 152.886 31.9667C152.39 31.6832 151.752 31.5414 150.973 31.5414C149.65 31.5414 148.563 32.0494 147.712 33.0653C146.885 34.0575 146.472 35.3923 146.472 37.0697V46H143.141V32.8172C143.141 32.3683 143.129 31.7895 143.105 31.0808C143.082 30.372 143.046 29.7459 142.999 29.2026H146.153ZM165.078 48.8704C165.81 49.6973 166.72 50.3588 167.807 50.855C168.917 51.3511 170.051 51.5991 171.209 51.5991C172.319 51.5991 173.252 51.4338 174.008 51.103C174.764 50.7959 175.367 50.3588 175.815 49.7918C176.288 49.2485 176.619 48.5988 176.808 47.8428C177.02 47.0868 177.127 46.2717 177.127 45.3976V43.2359H177.056C176.442 44.1809 175.603 44.9014 174.54 45.3976C173.477 45.8937 172.343 46.1418 171.138 46.1418C169.862 46.1418 168.692 45.9173 167.629 45.4684C166.59 45.0196 165.704 44.4053 164.972 43.6257C164.239 42.8461 163.672 41.9365 163.271 40.897C162.869 39.8339 162.668 38.6998 162.668 37.495C162.668 36.2901 162.869 35.1561 163.271 34.093C163.672 33.0298 164.239 32.1084 164.972 31.3288C165.704 30.5256 166.59 29.8995 167.629 29.4506C168.669 28.9781 169.826 28.7419 171.102 28.7419C172.307 28.7419 173.453 29.0017 174.54 29.5215C175.65 30.0412 176.524 30.8327 177.162 31.8958H177.233V29.2026H180.458V45.1495C180.458 46.378 180.304 47.5474 179.997 48.6578C179.69 49.7918 179.17 50.7841 178.438 51.6346C177.705 52.5087 176.749 53.2057 175.567 53.7254C174.386 54.2452 172.921 54.505 171.173 54.505C169.708 54.505 168.232 54.2333 166.743 53.69C165.279 53.1702 164.015 52.426 162.952 51.4574L165.078 48.8704ZM166.106 37.4241C166.106 38.2037 166.224 38.9479 166.46 39.6567C166.72 40.3654 167.086 40.9915 167.558 41.5349C168.055 42.0782 168.645 42.5153 169.33 42.8461C170.015 43.1768 170.795 43.3422 171.669 43.3422C172.52 43.3422 173.299 43.1886 174.008 42.8815C174.717 42.5744 175.319 42.1609 175.815 41.6412C176.312 41.0978 176.69 40.4717 176.949 39.763C177.233 39.0306 177.375 38.251 177.375 37.4241C177.375 36.6208 177.233 35.8648 176.949 35.1561C176.69 34.4473 176.3 33.8213 175.78 33.2779C175.284 32.7345 174.681 32.3093 173.973 32.0021C173.288 31.6714 172.52 31.506 171.669 31.506C170.795 31.506 170.015 31.6714 169.33 32.0021C168.645 32.3093 168.055 32.7345 167.558 33.2779C167.086 33.7976 166.72 34.4237 166.46 35.1561C166.224 35.8648 166.106 36.6208 166.106 37.4241ZM20.0476 56.9102H28.659C30.2655 56.9102 31.872 57.1464 33.4785 57.6189C35.085 58.0914 36.538 58.8356 37.8373 59.8515C39.1367 60.8674 40.188 62.1667 40.9913 63.7496C41.7945 65.3325 42.1962 67.2343 42.1962 69.4551C42.1962 71.605 41.7945 73.4713 40.9913 75.0542C40.188 76.6135 39.1367 77.9129 37.8373 78.9524C36.538 79.9682 35.085 80.7361 33.4785 81.2558C31.872 81.7519 30.2655 82 28.659 82H20.0476V56.9102ZM23.556 78.9169H27.9502C29.4622 78.9169 30.8561 78.7043 32.1319 78.279C33.4313 77.8538 34.5416 77.2395 35.463 76.4363C36.408 75.633 37.1404 74.6408 37.6601 73.4595C38.1799 72.2783 38.4398 70.9435 38.4398 69.4551C38.4398 67.8958 38.1799 66.5256 37.6601 65.3443C37.1404 64.1631 36.408 63.1826 35.463 62.403C34.5416 61.5997 33.4313 60.9973 32.1319 60.5957C30.8561 60.1704 29.4622 59.9578 27.9502 59.9578H23.556V78.9169ZM50.1959 82H46.8648V65.2026H50.1959V82ZM50.7629 59.1427C50.7629 59.757 50.5385 60.2649 50.0896 60.6665C49.6644 61.0682 49.1446 61.269 48.5304 61.269C47.9161 61.269 47.3964 61.0682 46.9711 60.6665C46.5459 60.2413 46.3332 59.7334 46.3332 59.1427C46.3332 58.5285 46.5459 58.0205 46.9711 57.6189C47.3964 57.1937 47.9161 56.981 48.5304 56.981C49.1446 56.981 49.6644 57.1937 50.0896 57.6189C50.5385 58.0205 50.7629 58.5285 50.7629 59.1427ZM56.0002 68.8172C56.0002 68.3683 55.9884 67.7895 55.9648 67.0808C55.9412 66.372 55.9057 65.7459 55.8585 65.2026H59.0124C59.0597 65.6278 59.0951 66.1239 59.1187 66.6909C59.1424 67.2343 59.1542 67.6832 59.1542 68.0376H59.2605C59.733 67.0453 60.4181 66.2539 61.3159 65.6632C62.2373 65.049 63.2649 64.7419 64.3989 64.7419C64.9187 64.7419 65.3558 64.7891 65.7101 64.8836L65.5684 67.9667C65.0959 67.8486 64.588 67.7895 64.0446 67.7895C63.2413 67.7895 62.5444 67.9431 61.9538 68.2502C61.3631 68.5337 60.867 68.9235 60.4654 69.4196C60.0874 69.9158 59.8039 70.4946 59.6149 71.1561C59.4259 71.794 59.3314 72.4673 59.3314 73.176V82H56.0002V68.8172ZM80.5134 72.1129C80.4898 71.4514 80.3716 70.8371 80.159 70.2701C79.97 69.6795 79.6747 69.1716 79.2731 68.7463C78.8951 68.3211 78.4107 67.9903 77.8201 67.7541C77.2531 67.4942 76.5798 67.3643 75.8002 67.3643C75.0914 67.3643 74.4181 67.4942 73.7802 67.7541C73.166 67.9903 72.6226 68.3211 72.1501 68.7463C71.7012 69.1716 71.3232 69.6795 71.0161 70.2701C70.7326 70.8371 70.5672 71.4514 70.52 72.1129H80.5134ZM83.88 73.4595C83.88 73.6485 83.88 73.8375 83.88 74.0265C83.88 74.2155 83.8681 74.4045 83.8445 74.5935H70.52C70.5436 75.3023 70.6972 75.9756 70.9807 76.6135C71.2878 77.2277 71.6894 77.7711 72.1855 78.2436C72.6817 78.6925 73.2487 79.0469 73.8865 79.3067C74.548 79.5666 75.245 79.6966 75.9774 79.6966C77.1114 79.6966 78.0918 79.4485 78.9187 78.9524C79.7456 78.4562 80.3953 77.8538 80.8678 77.145L83.2066 79.0232C82.3089 80.2045 81.2458 81.0786 80.0173 81.6456C78.8124 82.189 77.4657 82.4607 75.9774 82.4607C74.7016 82.4607 73.5204 82.2481 72.4336 81.8228C71.3468 81.3976 70.4137 80.8069 69.634 80.0509C68.8544 79.2713 68.2401 78.3381 67.7913 77.2514C67.3424 76.1646 67.118 74.9597 67.118 73.6367C67.118 72.3373 67.3306 71.1443 67.7558 70.0575C68.2047 68.9471 68.819 68.0021 69.5986 67.2225C70.3782 66.4429 71.2996 65.8404 72.3627 65.4152C73.4259 64.9663 74.5717 64.7419 75.8002 64.7419C77.0287 64.7419 78.1391 64.9427 79.1313 65.3443C80.1472 65.7459 80.9977 66.3248 81.6828 67.0808C82.3916 67.8368 82.935 68.7581 83.313 69.8449C83.691 70.908 83.88 72.1129 83.88 73.4595ZM100.296 69.4551C99.9418 68.9117 99.4102 68.4628 98.7015 68.1084C97.9927 67.7304 97.2367 67.5414 96.4335 67.5414C95.5593 67.5414 94.7797 67.7068 94.0946 68.0376C93.4331 68.3683 92.8661 68.8172 92.3936 69.3842C91.9211 69.9276 91.5549 70.5655 91.295 71.2978C91.0588 72.0302 90.9406 72.798 90.9406 73.6013C90.9406 74.4045 91.0588 75.1723 91.295 75.9047C91.5549 76.6371 91.9211 77.2868 92.3936 77.8538C92.8661 78.3972 93.4449 78.8342 94.13 79.165C94.8151 79.4957 95.5948 79.6611 96.4689 79.6611C97.3194 79.6611 98.0872 79.4957 98.7723 79.165C99.4811 78.8342 100.06 78.3854 100.509 77.8184L102.741 79.8383C102.033 80.6652 101.147 81.3149 100.084 81.7874C99.0204 82.2363 97.8155 82.4607 96.4689 82.4607C95.1695 82.4607 93.9646 82.2481 92.8543 81.8228C91.7675 81.3976 90.8225 80.8069 90.0193 80.0509C89.216 79.2713 88.5781 78.3381 88.1056 77.2514C87.6567 76.1646 87.4323 74.9479 87.4323 73.6013C87.4323 72.2783 87.6567 71.0734 88.1056 69.9866C88.5545 68.8999 89.1806 67.9667 89.9838 67.1871C90.7871 66.4074 91.7321 65.805 92.8188 65.3797C93.9292 64.9545 95.1223 64.7419 96.398 64.7419C97.5793 64.7419 98.7487 64.9781 99.9064 65.4506C101.088 65.9231 102.021 66.6083 102.706 67.506L100.296 69.4551ZM114.264 67.9313H109.798V76.6844C109.798 77.7002 109.987 78.4326 110.365 78.8815C110.743 79.3067 111.346 79.5194 112.173 79.5194C112.48 79.5194 112.811 79.4839 113.165 79.4131C113.519 79.3422 113.838 79.2359 114.122 79.0941L114.228 81.8228C113.827 81.9646 113.378 82.0709 112.882 82.1418C112.409 82.2363 111.913 82.2835 111.393 82.2835C109.81 82.2835 108.594 81.8464 107.743 80.9723C106.916 80.0982 106.503 78.787 106.503 77.0387V67.9313H103.278V65.2026H106.503V60.383H109.798V65.2026H114.264V67.9313ZM134.715 73.5658C134.715 74.8652 134.478 76.0583 134.006 77.145C133.557 78.2318 132.919 79.1768 132.092 79.9801C131.289 80.7597 130.332 81.3739 129.222 81.8228C128.111 82.2481 126.918 82.4607 125.643 82.4607C124.367 82.4607 123.174 82.2481 122.063 81.8228C120.953 81.3739 119.996 80.7597 119.193 79.9801C118.39 79.1768 117.752 78.2318 117.279 77.145C116.831 76.0583 116.606 74.8652 116.606 73.5658C116.606 72.2665 116.831 71.0852 117.279 70.0221C117.752 68.9353 118.39 68.0021 119.193 67.2225C119.996 66.4429 120.953 65.8404 122.063 65.4152C123.174 64.9663 124.367 64.7419 125.643 64.7419C126.918 64.7419 128.111 64.9663 129.222 65.4152C130.332 65.8404 131.289 66.4429 132.092 67.2225C132.919 68.0021 133.557 68.9353 134.006 70.0221C134.478 71.0852 134.715 72.2665 134.715 73.5658ZM131.242 73.5658C131.242 72.7626 131.112 71.9948 130.852 71.2624C130.616 70.53 130.261 69.8921 129.789 69.3488C129.316 68.7818 128.726 68.3329 128.017 68.0021C127.332 67.6714 126.54 67.506 125.643 67.506C124.745 67.506 123.942 67.6714 123.233 68.0021C122.548 68.3329 121.969 68.7818 121.496 69.3488C121.024 69.8921 120.658 70.53 120.398 71.2624C120.162 71.9948 120.044 72.7626 120.044 73.5658C120.044 74.3691 120.162 75.1369 120.398 75.8693C120.658 76.6017 121.024 77.2514 121.496 77.8184C121.969 78.3854 122.548 78.8342 123.233 79.165C123.942 79.4957 124.745 79.6611 125.643 79.6611C126.54 79.6611 127.332 79.4957 128.017 79.165C128.726 78.8342 129.316 78.3854 129.789 77.8184C130.261 77.2514 130.616 76.6017 130.852 75.8693C131.112 75.1369 131.242 74.3691 131.242 73.5658ZM139.334 68.8172C139.334 68.3683 139.322 67.7895 139.299 67.0808C139.275 66.372 139.24 65.7459 139.192 65.2026H142.346C142.393 65.6278 142.429 66.1239 142.453 66.6909C142.476 67.2343 142.488 67.6832 142.488 68.0376H142.594C143.067 67.0453 143.752 66.2539 144.65 65.6632C145.571 65.049 146.599 64.7419 147.733 64.7419C148.253 64.7419 148.69 64.7891 149.044 64.8836L148.902 67.9667C148.43 67.8486 147.922 67.7895 147.378 67.7895C146.575 67.7895 145.878 67.9431 145.288 68.2502C144.697 68.5337 144.201 68.9235 143.799 69.4196C143.421 69.9158 143.138 70.4946 142.949 71.1561C142.76 71.794 142.665 72.4673 142.665 73.176V82H139.334V68.8172Z"
    fill="white"
  />
</svg>
