<svg width="357" height="517" viewBox="0 0 357 517" fill="none" xmlns="http://www.w3.org/2000/svg">
<path d="M70.2507 286.077V371.448H41.7681L23.573 320.548C21.5002 314.866 19.9647 308.955 18.6596 303.043H17.6616C19.1202 317.016 19.7344 336.746 19.7344 348.646V371.448H2V286.077H30.4826L48.6776 336.9C50.7505 342.581 52.3627 348.493 53.7446 354.404H54.7426C53.284 340.278 52.5163 325.307 52.5163 311.028V286.077H70.2507Z" stroke="black" stroke-width="2.30317" stroke-miterlimit="10"/>
<path d="M140.114 356.631V371.448H87.8315V286.077H139.192V300.817H107.562V321.085H136.045V335.288H107.562V356.631H140.114Z" stroke="black" stroke-width="2.30317" stroke-miterlimit="10"/>
<path d="M200.918 310.644C200.611 317.093 197.617 335.058 196.465 341.583L191.091 371.371H162.532L145.565 286H166.37L174.815 329.76C176.658 339.51 177.656 346.266 178.116 353.944H179.191C179.959 346.42 181.187 339.971 183.26 329.76L192.319 286H211.666L221.186 329.76C223.412 339.51 224.564 347.418 225.101 353.944H226.176C226.483 347.264 227.481 339.51 229.093 329.76L236.54 286H257.115L240.225 371.448H212.894L206.753 341.276C205.524 335.288 202.377 317.323 202.069 310.721H200.918V310.644Z" stroke="black" stroke-width="2.30317" stroke-miterlimit="10"/>
<path d="M67.7172 444.966H44.7622V514.522H25.0317V444.966H2V429.151H67.6405V444.966H67.7172Z" stroke="black" stroke-width="2.30317" stroke-miterlimit="10"/>
<path d="M147.559 429.151V514.522H127.292V478.9H98.809V514.522H78.541V429.151H98.809V463.085H127.292V429.151H147.559Z" stroke="black" stroke-width="2.30317" stroke-miterlimit="10"/>
<path d="M185.332 514.522H165.064V429.151H185.332V514.522Z" stroke="black" stroke-width="2.30317" stroke-miterlimit="10"/>
<path d="M271.011 429.151V514.522H242.528L224.333 463.622C222.26 457.941 220.724 452.03 219.419 446.118H218.421C219.88 460.091 220.494 479.821 220.494 491.721V514.522H202.76V429.151H231.242L249.437 480.052C251.51 485.733 253.123 491.644 254.504 497.556H255.502C254.044 483.43 253.276 468.459 253.276 454.179V429.151H271.011Z" stroke="black" stroke-width="2.30317" stroke-miterlimit="10"/>
<path d="M354.539 467.768C354.846 471.069 355 473.756 355 477.058C355 501.548 343.1 515.674 321.066 515.674C296.806 515.674 284.215 500.78 284.215 471.76C284.215 444.736 298.034 428 320.145 428C337.956 428 349.549 437.597 352.62 455.024L332.275 459.63C331.277 447.731 327.361 442.203 319.761 442.203C310.241 442.203 305.021 452.414 305.021 470.993C305.021 491.644 310.702 501.932 321.987 501.932C330.663 501.932 334.885 495.253 335.039 481.357H319.377V467.768H354.539Z" stroke="black" stroke-width="2.30317" stroke-miterlimit="10"/>
<path d="M67.6405 17.8151H44.6855V87.371H24.955V17.8151H2V2H67.6405V17.8151Z" stroke="black" stroke-width="2.30317" stroke-miterlimit="10"/>
<path d="M147.485 2V87.371H127.217V51.7486H98.734V87.371H78.4661V2H98.734V35.9334H127.217V2H147.485Z" stroke="black" stroke-width="2.30317" stroke-miterlimit="10"/>
<path d="M217.347 72.5539V87.371H165.064V2H216.425V16.7403H184.795V37.0083H213.278V51.2112H184.795V72.5539H217.347Z" stroke="black" stroke-width="2.30317" stroke-miterlimit="10"/>
<path d="M70.2507 144V229.371H41.7681L23.5731 178.471C21.5002 172.79 19.9648 166.878 18.6596 160.967H17.6616C19.1203 174.939 19.7344 194.67 19.7344 206.57V229.371H2V144H30.4826L48.6777 194.823C50.7505 200.505 52.3628 206.416 53.7447 212.328H54.7427C53.284 198.201 52.5163 183.231 52.5163 168.951V144H70.2507Z" stroke="black" stroke-width="2.30317" stroke-miterlimit="10"/>
<path d="M140.114 214.554V229.371H87.8315V144H139.192V158.74H107.562V179.008H136.045V193.211H107.562V214.554H140.114Z" stroke="black" stroke-width="2.30317" stroke-miterlimit="10"/>
<path d="M189.631 186.685L212.509 229.371H190.169L178.653 201.81L167.29 229.371H144.95L167.828 186.685L144.95 144H167.29L178.653 171.561L190.169 144H212.509L189.631 186.685Z" stroke="black" stroke-width="2.30317" stroke-miterlimit="10"/>
<path d="M281.988 159.815H259.033V229.371H239.303V159.815H216.348V144H281.988V159.815Z" stroke="black" stroke-width="2.30317" stroke-miterlimit="10"/>
</svg>
