<svg width="83" height="84" viewBox="0 0 83 84" fill="none" xmlns="http://www.w3.org/2000/svg">
<path d="M43.0644 46.7618L43.0887 46.6483C43.5588 44.7111 44.1505 42.2957 43.6885 40.1072C43.3805 38.3807 42.1079 37.708 41.0218 37.6593C39.7411 37.6026 38.5983 38.3321 38.3146 39.3939C37.7796 41.3392 38.2578 43.9978 39.1332 47.3859C38.0309 50.0121 36.272 53.8297 34.9832 56.0993C32.584 57.3394 29.3661 59.2523 28.8879 61.6677C28.7907 62.1135 28.9041 62.6809 29.1716 63.1916C29.4715 63.7589 29.9497 64.1966 30.509 64.4074C30.7522 64.4965 31.044 64.5695 31.3844 64.5695C32.811 64.5695 35.121 63.4185 38.2011 58.1338C38.6712 57.9798 39.1575 57.8176 39.6277 57.6555C41.8323 56.9098 44.1181 56.1317 46.185 55.7832C48.4707 57.0071 51.0726 57.7933 52.8396 57.7933C54.5904 57.7933 55.2793 56.7558 55.5387 56.1317C55.9926 55.0375 55.7738 53.6595 55.0362 52.9219C53.9662 51.8682 51.3644 51.5926 47.3116 52.0952C45.3177 50.8794 44.0127 49.2258 43.0644 46.7618ZM34.1727 59.074C33.046 60.7113 32.1949 61.5299 31.7329 61.8866C32.276 60.8896 33.3378 59.8359 34.1727 59.074ZM41.2731 39.9856C41.6946 40.707 41.6378 42.8874 41.3136 43.9897C40.9164 42.3767 40.8597 40.091 41.0948 39.8235C41.1596 39.8316 41.2163 39.8802 41.2731 39.9856ZM41.1434 49.7527C42.0107 51.2522 43.1049 52.541 44.3126 53.4974C42.5618 53.8946 40.9651 54.5511 39.5385 55.1347C39.1981 55.2725 38.8657 55.4103 38.5415 55.54C39.6196 53.5866 40.5193 51.3738 41.1434 49.7527ZM53.7555 55.0618C53.7636 55.078 53.7717 55.1023 53.7231 55.1347H53.7069L53.6907 55.159C53.6258 55.1996 52.9612 55.5886 50.0999 54.462C53.3907 54.308 53.7474 55.0537 53.7555 55.0618Z" fill="black"/>
<path d="M69.2693 23.5965L51.8264 6.15352C51.34 5.66719 50.6835 5.3916 49.9945 5.3916H15.5625C14.1278 5.3916 12.9688 6.55068 12.9688 7.98535V75.4229C12.9688 76.8575 14.1278 78.0166 15.5625 78.0166H67.4375C68.8722 78.0166 70.0312 76.8575 70.0312 75.4229V25.4364C70.0312 24.7475 69.7557 24.0828 69.2693 23.5965ZM64.0494 26.6279H48.7949V11.3734L64.0494 26.6279ZM64.1953 72.1807H18.8047V11.2275H43.2832V28.7354C43.2832 30.6158 44.807 32.1396 46.6875 32.1396H64.1953V72.1807Z" fill="black"/>
</svg>
