<svg width="327" height="209" viewBox="0 0 327 209" fill="none" xmlns="http://www.w3.org/2000/svg">

<g>
<path d="M157 44.1179L170.891 57.8808" stroke="white" stroke-width="3.65194" stroke-miterlimit="10"/>
<path d="M157 57.8808L170.891 44.1179" stroke="white" stroke-width="3.65194" stroke-miterlimit="10"/>
<path d="M176.68 98.1404L190.571 112.032" stroke="white" stroke-width="3.65194" stroke-miterlimit="10"/>
<path d="M176.68 112.032L190.571 98.1404" stroke="white" stroke-width="3.65194" stroke-miterlimit="10"/>
<path d="M277.907 0L291.799 13.8915" stroke="white" stroke-width="3.65194" stroke-miterlimit="10"/>
<path d="M277.907 13.8915L291.799 0" stroke="white" stroke-width="3.65194" stroke-miterlimit="10"/>
<path d="M297.844 55.437L311.607 69.1998" stroke="white" stroke-width="3.65194" stroke-miterlimit="10"/>
<path d="M297.844 69.1998L311.607 55.437" stroke="white" stroke-width="3.65194" stroke-miterlimit="10"/>
<path d="M278.036 99.4265L291.927 113.318" stroke="white" stroke-width="3.65194" stroke-miterlimit="10"/>
<path d="M278.036 113.318L291.927 99.4265" stroke="white" stroke-width="3.65194" stroke-miterlimit="10"/>
</g>
<path transform="translate(0 110)" d="M20.0476 18.9102H27.7022C29.0488 18.9102 30.2773 19.0519 31.3877 19.3354C32.4981 19.5953 33.4431 20.0087 34.2227 20.5757C35.0023 21.1427 35.6048 21.8633 36.03 22.7374C36.4553 23.6115 36.6679 24.6629 36.6679 25.8914C36.6679 27.1435 36.4316 28.2184 35.9591 29.1162C35.5103 30.0139 34.8724 30.7463 34.0455 31.3133C33.2423 31.8803 32.2736 32.3056 31.1396 32.5891C30.0292 32.849 28.8244 32.9789 27.525 32.9789H23.556V44H20.0476V18.9102ZM23.556 30.0021H27.2769C28.1274 30.0021 28.907 29.9313 29.6158 29.7895C30.3482 29.6241 30.9742 29.3879 31.494 29.0808C32.0137 28.75 32.4154 28.3248 32.6989 27.805C32.9824 27.2852 33.1241 26.6474 33.1241 25.8914C33.1241 25.1354 32.9706 24.5093 32.6634 24.0132C32.3799 23.4934 31.9783 23.08 31.4586 22.7729C30.9624 22.4421 30.36 22.2177 29.6512 22.0995C28.9425 21.9578 28.1747 21.8869 27.3478 21.8869H23.556V30.0021ZM39.3196 30.8172C39.3196 30.3683 39.3078 29.7895 39.2842 29.0808C39.2606 28.372 39.2251 27.7459 39.1779 27.2026H42.3318C42.3791 27.6278 42.4145 28.1239 42.4381 28.6909C42.4618 29.2343 42.4736 29.6832 42.4736 30.0376H42.5799C43.0524 29.0453 43.7375 28.2539 44.6353 27.6632C45.5566 27.049 46.5843 26.7419 47.7183 26.7419C48.2381 26.7419 48.6752 26.7891 49.0295 26.8836L48.8878 29.9667C48.4153 29.8486 47.9073 29.7895 47.364 29.7895C46.5607 29.7895 45.8638 29.9431 45.2731 30.2502C44.6825 30.5337 44.1864 30.9235 43.7848 31.4196C43.4068 31.9158 43.1233 32.4946 42.9343 33.1561C42.7453 33.794 42.6508 34.4673 42.6508 35.176V44H39.3196V30.8172ZM68.546 35.5658C68.546 36.8652 68.3097 38.0583 67.8372 39.145C67.3884 40.2318 66.7505 41.1768 65.9236 41.9801C65.1203 42.7597 64.1635 43.3739 63.0531 43.8228C61.9428 44.2481 60.7497 44.4607 59.4739 44.4607C58.1982 44.4607 57.0051 44.2481 55.8947 43.8228C54.7844 43.3739 53.8276 42.7597 53.0243 41.9801C52.221 41.1768 51.5832 40.2318 51.1107 39.145C50.6618 38.0583 50.4374 36.8652 50.4374 35.5658C50.4374 34.2665 50.6618 33.0852 51.1107 32.0221C51.5832 30.9353 52.221 30.0021 53.0243 29.2225C53.8276 28.4429 54.7844 27.8404 55.8947 27.4152C57.0051 26.9663 58.1982 26.7419 59.4739 26.7419C60.7497 26.7419 61.9428 26.9663 63.0531 27.4152C64.1635 27.8404 65.1203 28.4429 65.9236 29.2225C66.7505 30.0021 67.3884 30.9353 67.8372 32.0221C68.3097 33.0852 68.546 34.2665 68.546 35.5658ZM65.0731 35.5658C65.0731 34.7626 64.9432 33.9948 64.6833 33.2624C64.447 32.53 64.0927 31.8921 63.6202 31.3488C63.1476 30.7818 62.557 30.3329 61.8483 30.0021C61.1631 29.6714 60.3717 29.506 59.4739 29.506C58.5762 29.506 57.7729 29.6714 57.0642 30.0021C56.3791 30.3329 55.8002 30.7818 55.3277 31.3488C54.8552 31.8921 54.4891 32.53 54.2292 33.2624C53.9929 33.9948 53.8748 34.7626 53.8748 35.5658C53.8748 36.3691 53.9929 37.1369 54.2292 37.8693C54.4891 38.6017 54.8552 39.2514 55.3277 39.8184C55.8002 40.3854 56.3791 40.8342 57.0642 41.165C57.7729 41.4957 58.5762 41.6611 59.4739 41.6611C60.3717 41.6611 61.1631 41.4957 61.8483 41.165C62.557 40.8342 63.1476 40.3854 63.6202 39.8184C64.0927 39.2514 64.447 38.6017 64.6833 37.8693C64.9432 37.1369 65.0731 36.3691 65.0731 35.5658ZM86.5608 41.3422C85.9229 42.3581 85.0488 43.1377 83.9384 43.6811C82.8516 44.2008 81.7058 44.4607 80.5009 44.4607C79.2015 44.4607 78.0321 44.2363 76.9926 43.7874C75.9531 43.3149 75.0672 42.677 74.3348 41.8737C73.6024 41.0705 73.0354 40.1255 72.6338 39.0387C72.2321 37.952 72.0313 36.7943 72.0313 35.5658C72.0313 34.3373 72.2321 33.1915 72.6338 32.1284C73.0354 31.0416 73.6024 30.0966 74.3348 29.2934C75.0908 28.4901 75.9885 27.8641 77.028 27.4152C78.0675 26.9663 79.2134 26.7419 80.4655 26.7419C81.8357 26.7419 83.0288 27.0372 84.0447 27.6278C85.0606 28.1948 85.8638 28.8918 86.4544 29.7186H86.5253V17.2091H89.8565V44H86.6316V41.3422H86.5608ZM75.5042 35.5658C75.5042 36.3455 75.6223 37.1015 75.8586 37.8339C76.0948 38.5662 76.4492 39.2159 76.9217 39.7829C77.3942 40.3499 77.973 40.8106 78.6582 41.165C79.3433 41.4957 80.1465 41.6611 81.0679 41.6611C81.9184 41.6611 82.6862 41.4957 83.3714 41.165C84.0801 40.8342 84.6826 40.3972 85.1787 39.8538C85.6748 39.2868 86.0528 38.6371 86.3127 37.9047C86.5962 37.1723 86.7379 36.4045 86.7379 35.6013C86.7379 34.798 86.5962 34.0302 86.3127 33.2978C86.0528 32.5655 85.6748 31.9158 85.1787 31.3488C84.6826 30.7818 84.0801 30.3329 83.3714 30.0021C82.6862 29.6714 81.9184 29.506 81.0679 29.506C80.1465 29.506 79.3433 29.6714 78.6582 30.0021C77.973 30.3329 77.3942 30.7818 76.9217 31.3488C76.4492 31.9158 76.0948 32.5655 75.8586 33.2978C75.6223 34.0302 75.5042 34.7862 75.5042 35.5658ZM107.496 44C107.449 43.5747 107.413 43.1022 107.39 42.5825C107.366 42.0391 107.354 41.5902 107.354 41.2359H107.283C106.858 42.1336 106.138 42.9014 105.122 43.5393C104.13 44.1536 103.019 44.4607 101.791 44.4607C100.704 44.4607 99.7589 44.2835 98.9556 43.9291C98.176 43.5747 97.5263 43.0904 97.0066 42.4762C96.5104 41.8383 96.1324 41.1059 95.8726 40.279C95.6363 39.4522 95.5182 38.5662 95.5182 37.6212V27.2026H98.8493V36.4872C98.8493 37.1723 98.8966 37.8339 98.9911 38.4717C99.1092 39.086 99.31 39.6294 99.5935 40.1019C99.877 40.5744 100.267 40.9524 100.763 41.2359C101.259 41.5194 101.897 41.6611 102.677 41.6611C104.023 41.6611 105.11 41.165 105.937 40.1727C106.764 39.1569 107.177 37.8102 107.177 36.1328V27.2026H110.508V40.3854C110.508 40.8342 110.52 41.4131 110.544 42.1218C110.567 42.8306 110.603 43.4566 110.65 44H107.496ZM128.051 31.4551C127.697 30.9117 127.165 30.4628 126.456 30.1084C125.748 29.7304 124.992 29.5414 124.188 29.5414C123.314 29.5414 122.535 29.7068 121.849 30.0376C121.188 30.3683 120.621 30.8172 120.148 31.3842C119.676 31.9276 119.31 32.5655 119.05 33.2978C118.814 34.0302 118.695 34.798 118.695 35.6013C118.695 36.4045 118.814 37.1723 119.05 37.9047C119.31 38.6371 119.676 39.2868 120.148 39.8538C120.621 40.3972 121.2 40.8342 121.885 41.165C122.57 41.4957 123.35 41.6611 124.224 41.6611C125.074 41.6611 125.842 41.4957 126.527 41.165C127.236 40.8342 127.815 40.3854 128.264 39.8184L130.496 41.8383C129.787 42.6652 128.902 43.3149 127.838 43.7874C126.775 44.2363 125.57 44.4607 124.224 44.4607C122.924 44.4607 121.72 44.2481 120.609 43.8228C119.522 43.3976 118.577 42.8069 117.774 42.0509C116.971 41.2713 116.333 40.3381 115.86 39.2514C115.412 38.1646 115.187 36.9479 115.187 35.6013C115.187 34.2783 115.412 33.0734 115.86 31.9866C116.309 30.8999 116.935 29.9667 117.739 29.1871C118.542 28.4074 119.487 27.805 120.574 27.3797C121.684 26.9545 122.877 26.7419 124.153 26.7419C125.334 26.7419 126.504 26.9781 127.661 27.4506C128.842 27.9231 129.776 28.6083 130.461 29.506L128.051 31.4551ZM142.018 29.9313H137.553V38.6844C137.553 39.7002 137.742 40.4326 138.12 40.8815C138.498 41.3067 139.101 41.5194 139.928 41.5194C140.235 41.5194 140.566 41.4839 140.92 41.4131C141.274 41.3422 141.593 41.2359 141.877 41.0941L141.983 43.8228C141.581 43.9646 141.133 44.0709 140.636 44.1418C140.164 44.2363 139.668 44.2835 139.148 44.2835C137.565 44.2835 136.348 43.8464 135.498 42.9723C134.671 42.0982 134.258 40.787 134.258 39.0387V29.9313H131.033V27.2026H134.258V22.383H137.553V27.2026H142.018V29.9313ZM33.0178 74.1882H33.0887L40.4952 54.9102H45.9526V80H42.4442V59.0209H42.3733L34.0455 80H31.8129L23.5205 59.0209H23.4497V80H20.0476V54.9102H25.505L33.0178 74.1882ZM62.3361 69.1206C62.3361 67.8685 61.9581 66.9471 61.2021 66.3565C60.4461 65.7423 59.442 65.4351 58.1899 65.4351C57.2449 65.4351 56.3471 65.6241 55.4966 66.0021C54.6697 66.3565 53.9728 66.8172 53.4058 67.3842L51.6339 65.2579C52.4608 64.4783 53.4649 63.8641 54.6461 63.4152C55.851 62.9663 57.1386 62.7419 58.5088 62.7419C59.7137 62.7419 60.7532 62.9191 61.6273 63.2734C62.5251 63.6042 63.2575 64.0649 63.8245 64.6555C64.3915 65.2461 64.8167 65.9431 65.1002 66.7463C65.3837 67.5496 65.5255 68.4119 65.5255 69.3333V76.6689C65.5255 77.2359 65.5373 77.8383 65.5609 78.4762C65.6082 79.0904 65.679 79.5984 65.7735 80H62.7613C62.5723 79.1967 62.4778 78.3935 62.4778 77.5902H62.3715C61.7573 78.488 60.9776 79.1849 60.0326 79.6811C59.1113 80.1772 58.0127 80.4253 56.7369 80.4253C56.0754 80.4253 55.3785 80.3308 54.6461 80.1418C53.9374 79.9764 53.2877 79.6929 52.6971 79.2912C52.1064 78.8896 51.6103 78.3581 51.2087 77.6966C50.8307 77.0351 50.6417 76.22 50.6417 75.2514C50.6417 73.9756 50.9842 72.9715 51.6694 72.2392C52.3545 71.4832 53.2522 70.9162 54.3626 70.5382C55.473 70.1365 56.7251 69.8766 58.119 69.7585C59.5129 69.6404 60.9186 69.5813 62.3361 69.5813V69.1206ZM61.521 71.9911C60.6941 71.9911 59.8318 72.0265 58.9341 72.0974C58.0599 72.1683 57.2567 72.31 56.5243 72.5227C55.8156 72.7353 55.2249 73.0542 54.7524 73.4795C54.2799 73.9047 54.0437 74.4717 54.0437 75.1805C54.0437 75.6766 54.1382 76.09 54.3272 76.4208C54.5398 76.7515 54.8115 77.0232 55.1423 77.2359C55.473 77.4485 55.8392 77.6021 56.2408 77.6966C56.6424 77.7674 57.0559 77.8029 57.4811 77.8029C59.0404 77.8029 60.2335 77.3422 61.0603 76.4208C61.9108 75.4758 62.3361 74.2945 62.3361 72.877V71.9911H61.521ZM74.1011 63.2026C74.1484 63.6278 74.1838 64.1121 74.2074 64.6555C74.231 65.1753 74.2429 65.6123 74.2429 65.9667H74.3492C74.5618 65.5178 74.8453 65.1044 75.1997 64.7264C75.5777 64.3248 76.0029 63.9822 76.4754 63.6987C76.9479 63.3916 77.4677 63.1553 78.0347 62.9899C78.6017 62.8246 79.1923 62.7419 79.8066 62.7419C80.8933 62.7419 81.8265 62.9309 82.6061 63.3089C83.3858 63.6632 84.0355 64.1476 84.5552 64.7618C85.075 65.3761 85.453 66.0966 85.6892 66.9235C85.9491 67.7504 86.079 68.6363 86.079 69.5813V80H82.7479V70.6799C82.7479 69.9948 82.6888 69.3451 82.5707 68.7308C82.4762 68.1166 82.2872 67.5732 82.0037 67.1007C81.7202 66.6282 81.3304 66.2502 80.8343 65.9667C80.3381 65.6832 79.7003 65.5414 78.9206 65.5414C77.5976 65.5414 76.5109 66.0494 75.6604 67.0653C74.8335 68.0575 74.42 69.3923 74.42 71.0697V80H71.0889V66.8172C71.0889 66.3683 71.0771 65.7895 71.0535 65.0808C71.0298 64.372 70.9944 63.7459 70.9472 63.2026H74.1011ZM102.169 69.1206C102.169 67.8685 101.791 66.9471 101.035 66.3565C100.279 65.7423 99.2748 65.4351 98.0226 65.4351C97.0776 65.4351 96.1799 65.6241 95.3294 66.0021C94.5025 66.3565 93.8055 66.8172 93.2385 67.3842L91.4667 65.2579C92.2935 64.4783 93.2976 63.8641 94.4789 63.4152C95.6837 62.9663 96.9713 62.7419 98.3416 62.7419C99.5464 62.7419 100.586 62.9191 101.46 63.2734C102.358 63.6042 103.09 64.0649 103.657 64.6555C104.224 65.2461 104.649 65.9431 104.933 66.7463C105.216 67.5496 105.358 68.4119 105.358 69.3333V76.6689C105.358 77.2359 105.37 77.8383 105.394 78.4762C105.441 79.0904 105.512 79.5984 105.606 80H102.594C102.405 79.1967 102.311 78.3935 102.311 77.5902H102.204C101.59 78.488 100.81 79.1849 99.8654 79.6811C98.944 80.1772 97.8454 80.4253 96.5697 80.4253C95.9082 80.4253 95.2112 80.3308 94.4789 80.1418C93.7701 79.9764 93.1204 79.6929 92.5298 79.2912C91.9392 78.8896 91.443 78.3581 91.0414 77.6966C90.6634 77.0351 90.4744 76.22 90.4744 75.2514C90.4744 73.9756 90.817 72.9715 91.5021 72.2392C92.1872 71.4832 93.085 70.9162 94.1954 70.5382C95.3057 70.1365 96.5579 69.8766 97.9517 69.7585C99.3456 69.6404 100.751 69.5813 102.169 69.5813V69.1206ZM101.354 71.9911C100.527 71.9911 99.6646 72.0265 98.7668 72.0974C97.8927 72.1683 97.0894 72.31 96.3571 72.5227C95.6483 72.7353 95.0577 73.0542 94.5852 73.4795C94.1127 73.9047 93.8764 74.4717 93.8764 75.1805C93.8764 75.6766 93.9709 76.09 94.1599 76.4208C94.3725 76.7515 94.6442 77.0232 94.975 77.2359C95.3057 77.4485 95.6719 77.6021 96.0736 77.6966C96.4752 77.7674 96.8886 77.8029 97.3139 77.8029C98.8731 77.8029 100.066 77.3422 100.893 76.4208C101.744 75.4758 102.169 74.2945 102.169 72.877V71.9911H101.354ZM112.233 82.8704C112.965 83.6973 113.875 84.3588 114.962 84.855C116.072 85.3511 117.206 85.5991 118.364 85.5991C119.474 85.5991 120.407 85.4338 121.163 85.103C121.919 84.7959 122.522 84.3588 122.97 83.7918C123.443 83.2485 123.774 82.5988 123.963 81.8428C124.175 81.0868 124.282 80.2717 124.282 79.3976V77.2359H124.211C123.597 78.1809 122.758 78.9014 121.695 79.3976C120.632 79.8937 119.498 80.1418 118.293 80.1418C117.017 80.1418 115.847 79.9173 114.784 79.4684C113.745 79.0196 112.859 78.4053 112.127 77.6257C111.394 76.8461 110.827 75.9365 110.426 74.897C110.024 73.8339 109.823 72.6998 109.823 71.495C109.823 70.2901 110.024 69.1561 110.426 68.093C110.827 67.0298 111.394 66.1084 112.127 65.3288C112.859 64.5256 113.745 63.8995 114.784 63.4506C115.824 62.9781 116.981 62.7419 118.257 62.7419C119.462 62.7419 120.608 63.0017 121.695 63.5215C122.805 64.0412 123.679 64.8327 124.317 65.8958H124.388V63.2026H127.613V79.1495C127.613 80.378 127.459 81.5474 127.152 82.6578C126.845 83.7918 126.325 84.7841 125.593 85.6346C124.86 86.5087 123.904 87.2057 122.722 87.7254C121.541 88.2452 120.076 88.505 118.328 88.505C116.863 88.505 115.387 88.2333 113.898 87.69C112.434 87.1702 111.17 86.426 110.107 85.4574L112.233 82.8704ZM113.261 71.4241C113.261 72.2037 113.379 72.9479 113.615 73.6567C113.875 74.3654 114.241 74.9915 114.713 75.5349C115.21 76.0782 115.8 76.5153 116.485 76.8461C117.17 77.1768 117.95 77.3422 118.824 77.3422C119.675 77.3422 120.454 77.1886 121.163 76.8815C121.872 76.5744 122.474 76.1609 122.97 75.6412C123.467 75.0978 123.845 74.4717 124.104 73.763C124.388 73.0306 124.53 72.251 124.53 71.4241C124.53 70.6208 124.388 69.8648 124.104 69.1561C123.845 68.4473 123.455 67.8213 122.935 67.2779C122.439 66.7345 121.836 66.3093 121.128 66.0021C120.443 65.6714 119.675 65.506 118.824 65.506C117.95 65.506 117.17 65.6714 116.485 66.0021C115.8 66.3093 115.21 66.7345 114.713 67.2779C114.241 67.7976 113.875 68.4237 113.615 69.1561C113.379 69.8648 113.261 70.6208 113.261 71.4241ZM145.609 70.1129C145.586 69.4514 145.468 68.8371 145.255 68.2701C145.066 67.6795 144.771 67.1716 144.369 66.7463C143.991 66.3211 143.507 65.9903 142.916 65.7541C142.349 65.4942 141.676 65.3643 140.896 65.3643C140.187 65.3643 139.514 65.4942 138.876 65.7541C138.262 65.9903 137.718 66.3211 137.246 66.7463C136.797 67.1716 136.419 67.6795 136.112 68.2701C135.828 68.8371 135.663 69.4514 135.616 70.1129H145.609ZM148.976 71.4595C148.976 71.6485 148.976 71.8375 148.976 72.0265C148.976 72.2155 148.964 72.4045 148.94 72.5935H135.616C135.639 73.3023 135.793 73.9756 136.077 74.6135C136.384 75.2277 136.785 75.7711 137.281 76.2436C137.778 76.6925 138.345 77.0469 138.982 77.3067C139.644 77.5666 140.341 77.6966 141.073 77.6966C142.207 77.6966 143.188 77.4485 144.015 76.9524C144.841 76.4562 145.491 75.8538 145.964 75.145L148.303 77.0232C147.405 78.2045 146.342 79.0786 145.113 79.6456C143.908 80.189 142.562 80.4607 141.073 80.4607C139.798 80.4607 138.616 80.2481 137.529 79.8228C136.443 79.3976 135.51 78.8069 134.73 78.0509C133.95 77.2713 133.336 76.3381 132.887 75.2514C132.438 74.1646 132.214 72.9597 132.214 71.6367C132.214 70.3373 132.426 69.1443 132.852 68.0575C133.301 66.9471 133.915 66.0021 134.694 65.2225C135.474 64.4429 136.395 63.8404 137.459 63.4152C138.522 62.9663 139.668 62.7419 140.896 62.7419C142.125 62.7419 143.235 62.9427 144.227 63.3443C145.243 63.7459 146.094 64.3248 146.779 65.0808C147.487 65.8368 148.031 66.7581 148.409 67.8449C148.787 68.908 148.976 70.1129 148.976 71.4595ZM153.627 66.8172C153.627 66.3683 153.615 65.7895 153.591 65.0808C153.568 64.372 153.532 63.7459 153.485 63.2026H156.639C156.686 63.6278 156.722 64.1239 156.745 64.6909C156.769 65.2343 156.781 65.6832 156.781 66.0376H156.887C157.36 65.0453 158.045 64.2539 158.942 63.6632C159.864 63.049 160.891 62.7419 162.025 62.7419C162.545 62.7419 162.982 62.7891 163.337 62.8836L163.195 65.9667C162.722 65.8486 162.214 65.7895 161.671 65.7895C160.868 65.7895 160.171 65.9431 159.58 66.2502C158.99 66.5337 158.494 66.9235 158.092 67.4196C157.714 67.9158 157.43 68.4946 157.241 69.1561C157.052 69.794 156.958 70.4673 156.958 71.176V80H153.627V66.8172Z" fill="white"/>
</svg>
