<svg viewBox="0 0 49 50" fill="none" xmlns="http://www.w3.org/2000/svg">
<g clip-path="url(#clip0_349_44)">
<path d="M23.8056 1.12383C10.8522 1.12202 0.351309 11.6248 0.351309 24.5764C0.351309 37.5317 10.8523 48.0308 23.8057 48.0308C34.5533 48.0308 43.5892 40.7968 46.3645 30.9403L46.4448 30.6552H46.1486H39.5013H39.3497L39.2931 30.7959C36.8263 36.9353 30.8267 41.2733 23.8057 41.2733C19.3779 41.2733 15.1315 39.5143 12.0005 36.3834C8.8696 33.2525 7.11066 29.006 7.11066 24.5782C7.11066 15.3543 14.5856 7.8776 23.8057 7.8776C28.2182 7.8776 32.1931 9.62056 35.1738 12.4185L25.799 21.7915L25.4054 22.185L25.9618 22.1745L46.6531 21.7858L46.6489 21.5655L46.8732 21.5676L46.8732 21.5633L47.2638 0.876305L47.2743 0.319813L46.8808 0.713434L39.9786 7.61739C35.6313 3.44659 29.8359 1.11748 23.8056 1.12383ZM23.8056 1.12383C23.8056 1.12383 23.8057 1.12383 23.8057 1.12383L23.8057 1.3482L23.8055 1.12383C23.8055 1.12383 23.8056 1.12383 23.8056 1.12383Z" fill="currentColor" stroke="currentColor" stroke-width="0.44875"/>
</g>
<defs>
<clipPath id="clip0_349_44">
<rect width="48.465" height="48.465" fill="white" transform="translate(0.352539 0.87207)"/>
</clipPath>
</defs>
</svg>
