<svg viewBox="0 0 1575 118" fill="none" xmlns="http://www.w3.org/2000/svg">
<path d="M87.9 24.4001H58V115H32.3V24.4001H2.40002V3.80005H87.9V24.4001Z" stroke="black" stroke-width="3" stroke-miterlimit="10"/>
<path d="M191.9 3.80005V115H165.5V68.6H128.4V115H102V3.80005H128.4V48H165.5V3.80005H191.9Z" stroke="black" stroke-width="3" stroke-miterlimit="10"/>
<path d="M282.9 95.7V115H214.8V3.80005H281.7V23H240.5V49.4001H277.6V67.9H240.5V95.7H282.9Z" stroke="black" stroke-width="3" stroke-miterlimit="10"/>
<path d="M419.9 3.80005V115H382.8L359.1 48.7001C356.4 41.3001 354.4 33.6001 352.7 25.9001H351.4C353.3 44.1001 354.1 69.8 354.1 85.3V115H331V3.80005H368.1L391.8 70C394.5 77.4 396.6 85.1 398.4 92.8H399.7C397.8 74.4 396.8 54.9 396.8 36.3V3.80005H419.9Z" stroke="black" stroke-width="3" stroke-miterlimit="10"/>
<path d="M510.9 95.7V115H442.8V3.80005H509.7V23H468.5V49.4001H505.6V67.9H468.5V95.7H510.9Z" stroke="black" stroke-width="3" stroke-miterlimit="10"/>
<path d="M575.4 59.4001L605.2 115H576.1L561.1 79.1L546.3 115H517.2L547 59.4001L517.2 3.80005H546.3L561.1 39.7001L576.1 3.80005H605.2L575.4 59.4001Z" stroke="black" stroke-width="3" stroke-miterlimit="10"/>
<path d="M695.7 24.4001H665.8V115H640.1V24.4001H610.2V3.80005H695.7V24.4001Z" stroke="black" stroke-width="3" stroke-miterlimit="10"/>
<path d="M831.3 3.80005V115H794.2L770.5 48.7001C767.8 41.3001 765.8 33.6001 764.1 25.9001H762.8C764.7 44.1001 765.5 69.8 765.5 85.3V115H742.4V3.80005H779.5L803.2 70C805.9 77.4 808 85.1 809.8 92.8H811.1C809.2 74.4 808.2 54.9 808.2 36.3V3.80005H831.3Z" stroke="black" stroke-width="3" stroke-miterlimit="10"/>
<path d="M922.3 95.7V115H854.2V3.80005H921.1V23H879.9V49.4001H917V67.9H879.9V95.7H922.3Z" stroke="black" stroke-width="3" stroke-miterlimit="10"/>
<path d="M1001.5 35.8001C1001.1 44.2001 997.2 67.6001 995.7 76.1001L988.7 114.9H951.5L929.4 3.70007H956.5L967.5 60.7001C969.9 73.4001 971.2 82.2001 971.8 92.2001H973.2C974.2 82.4001 975.8 74.0001 978.5 60.7001L990.3 3.70007H1015.5L1027.9 60.7001C1030.8 73.4001 1032.3 83.7001 1033 92.2001H1034.4C1034.8 83.5001 1036.1 73.4001 1038.2 60.7001L1047.9 3.70007H1074.7L1052.7 115H1017.1L1009.1 75.7001C1007.5 67.9001 1003.4 44.5001 1003 35.9001H1001.5V35.8001Z" stroke="black" stroke-width="3" stroke-miterlimit="10"/>
<path d="M1198.6 24.4001H1168.7V115H1143V24.4001H1113V3.80005H1198.5V24.4001H1198.6Z" stroke="black" stroke-width="3" stroke-miterlimit="10"/>
<path d="M1302.6 3.80005V115H1276.2V68.6H1239.1V115H1212.7V3.80005H1239.1V48H1276.2V3.80005H1302.6Z" stroke="black" stroke-width="3" stroke-miterlimit="10"/>
<path d="M1351.8 115H1325.4V3.80005H1351.8V115Z" stroke="black" stroke-width="3" stroke-miterlimit="10"/>
<path d="M1463.4 3.80005V115H1426.3L1402.6 48.7001C1399.9 41.3001 1397.9 33.6001 1396.2 25.9001H1394.9C1396.8 44.1001 1397.6 69.8 1397.6 85.3V115H1374.5V3.80005H1411.6L1435.3 70.1C1438 77.5 1440.1 85.2 1441.9 92.9H1443.2C1441.3 74.5 1440.3 55.0001 1440.3 36.4001V3.80005H1463.4Z" stroke="black" stroke-width="3" stroke-miterlimit="10"/>
<path d="M1572.2 54.1C1572.6 58.4 1572.8 61.9 1572.8 66.2C1572.8 98.1 1557.3 116.5 1528.6 116.5C1497 116.5 1480.6 97.1001 1480.6 59.3001C1480.6 24.1001 1498.6 2.30005 1527.4 2.30005C1550.6 2.30005 1565.7 14.8 1569.7 37.5L1543.2 43.5C1541.9 28 1536.8 20.8 1526.9 20.8C1514.5 20.8 1507.7 34.1001 1507.7 58.3001C1507.7 85.2001 1515.1 98.6 1529.8 98.6C1541.1 98.6 1546.6 89.9 1546.8 71.8H1526.4V54.1H1572.2Z" stroke="black" stroke-width="3" stroke-miterlimit="10"/>
</svg>
