<svg viewBox="0 0 63 63" fill="none" xmlns="http://www.w3.org/2000/svg">
<path d="M13.5874 7.38761L13.5874 7.3876C13.1057 6.81729 12.7224 6.41599 12.4342 6.13871C12.202 6.24661 11.925 6.38909 11.6069 6.57488L13.5874 7.38761ZM13.5874 7.38761C14.5144 8.48495 15.5575 9.91167 16.6021 11.515L16.6021 11.515M13.5874 7.38761L16.6021 11.515M16.6021 11.515C18.5292 14.4725 19.7561 16.9302 20.1745 17.9773C20.0811 18.2282 19.8806 18.5882 19.492 19.2406L19.4824 19.2566C18.6302 20.6872 17.406 22.7422 17.406 25.6539C17.406 27.5826 18.3053 29.5998 20.1706 32.1428L20.5738 31.8471M16.6021 11.515L20.5738 31.8471M20.5738 31.8471L20.1706 32.1428C21.3937 33.8101 23.0135 35.6777 24.8534 37.5455C26.6424 39.3617 28.513 41.0395 30.1237 42.2695C32.6526 44.2008 34.5755 45.0998 36.4887 45.0998C39.0676 45.0998 41.1195 44.0057 42.6824 43.1724L42.7096 43.1579C43.1446 42.926 43.5524 42.7087 43.9253 42.5366C44.2403 42.3911 44.505 42.2901 44.7184 42.2385C45.6131 42.5902 47.9598 43.8107 51.4229 46.2864C54.283 48.331 56.1047 49.9377 57.0082 50.8507C56.6978 52.2023 55.8714 53.6033 54.6074 54.8173L54.9538 55.1779L54.6074 54.8173C53.8252 55.5686 52.9347 56.1846 52.0371 56.6005C51.2548 56.9629 50.5131 57.1464 49.9528 57.1464C46.3083 57.1464 41.6972 55.6075 36.61 52.6283C31.6487 49.7229 26.4911 45.6072 21.6999 40.7227C16.9905 35.9216 12.9953 30.7536 10.1434 25.7821C8.72433 23.3083 7.6377 20.9617 6.9092 18.8075L6.43555 18.9677L6.9092 18.8075C6.20254 16.718 5.85356 14.8759 5.85356 13.3263C5.85356 12.9113 6.05303 12.2703 6.48568 11.5155L6.48569 11.5155C6.99089 10.6341 7.75771 9.6853 8.71041 8.77774C9.60612 7.92449 10.637 7.1415 11.6069 6.57489L20.5738 31.8471ZM13.0469 0.5C12.0369 0.5 10.7528 0.948753 9.43331 1.65695C8.0985 2.37338 6.66993 3.38657 5.35762 4.58461C2.75935 6.95666 0.5 10.1639 0.5 13.3264C0.5 17.759 2.40083 23.044 5.49964 28.4461C8.60478 33.8591 12.941 39.4385 17.8781 44.4716C22.815 49.5047 28.3649 54.0039 33.9047 57.2481C39.4366 60.4876 44.9998 62.5 49.9528 62.5C52.7739 62.5 55.9036 60.9954 58.3159 58.6784C60.7335 56.3564 62.5 53.1518 62.5 49.6724C62.5 49.4151 62.4058 49.1595 62.2886 48.9318C62.1673 48.6962 61.9972 48.4448 61.7941 48.1847C61.3875 47.6639 60.8145 47.0652 60.1331 46.4261C58.7677 45.1455 56.9231 43.6621 54.9859 42.2552C53.0481 40.8478 51.0051 39.508 49.2398 38.5174C48.3578 38.0224 47.5369 37.6101 46.8281 37.32C46.1352 37.0364 45.4942 36.846 44.9924 36.846C43.2121 36.846 41.6905 37.6355 40.3394 38.3547L40.2457 38.4046C38.8892 39.1271 37.7269 39.7462 36.4887 39.7462C36.2688 39.7462 35.8758 39.6233 35.3032 39.3105C34.7508 39.0087 34.0954 38.5665 33.373 38.0148C31.9296 36.9126 30.2573 35.4027 28.6673 33.7886C27.0772 32.1744 25.5815 30.4681 24.4873 28.9764C23.9397 28.2299 23.4999 27.5469 23.1991 26.9627C22.8902 26.3628 22.7594 25.9261 22.7594 25.654C22.7594 24.2238 23.39 23.1577 24.1062 21.9555L24.1122 21.9454C24.8147 20.7659 25.5937 19.4581 25.5937 17.6777C25.5938 17.2793 25.4262 16.7187 25.1876 16.1035C24.94 15.4653 24.586 14.6964 24.1552 13.8506C23.2931 12.1579 22.1095 10.1304 20.8157 8.17872C19.5232 6.22924 18.1106 4.34004 16.7884 2.93215C16.128 2.22896 15.4781 1.63287 14.8666 1.20901C14.2678 0.793965 13.6436 0.5 13.0469 0.5Z" fill="black" stroke="black"/>
</svg>
