<svg width="327" height="209" viewBox="0 0 327 209" fill="none" xmlns="http://www.w3.org/2000/svg">
<g>
<path d="M304.782 -46.6986L133.872 -83.1866L111.228 22.2242L282.138 58.7123L304.782 -46.6986Z" stroke="white" stroke-width="4.37824" stroke-miterlimit="10"/>
<path d="M257.627 160.554C300.653 160.554 335.533 125.641 335.533 82.5745C335.533 39.5075 300.653 4.59485 257.627 4.59485C214.601 4.59485 179.722 39.5075 179.722 82.5745C179.722 125.641 214.601 160.554 257.627 160.554Z" fill="black" stroke="white" stroke-width="4.37824" stroke-miterlimit="10"/>
<path d="M182.468 19.2395L84.3224 64.5065L129.729 162.349L227.875 117.083L182.468 19.2395Z" fill="black" stroke="white" stroke-width="4.37824" stroke-miterlimit="10"/>
</g>
<path d="M26.6262 155.855C24.9724 155.855 23.5313 155.584 22.3028 155.04C21.0743 154.473 20.0584 153.729 19.2551 152.808C18.4519 151.886 17.8495 150.835 17.4478 149.654C17.0698 148.449 16.8808 147.209 16.8808 145.933V130.128H20.3892V145.72C20.3892 146.571 20.4955 147.421 20.7081 148.272C20.9207 149.099 21.2633 149.843 21.7358 150.504C22.2319 151.166 22.8698 151.697 23.6494 152.099C24.4527 152.501 25.4449 152.701 26.6262 152.701C27.7838 152.701 28.7642 152.501 29.5675 152.099C30.3708 151.697 31.0086 151.166 31.4811 150.504C31.9773 149.843 32.3316 149.099 32.5443 148.272C32.7569 147.421 32.8632 146.571 32.8632 145.72V130.128H36.3715V145.933C36.3715 147.209 36.1707 148.449 35.7691 149.654C35.3911 150.835 34.8005 151.886 33.9972 152.808C33.194 153.729 32.1781 154.473 30.9496 155.04C29.7211 155.584 28.2799 155.855 26.6262 155.855ZM45.7949 155.218H42.2866V130.128H45.7949V155.218ZM61.4755 155.855C59.8217 155.855 58.3806 155.584 57.1521 155.04C55.9236 154.473 54.9077 153.729 54.1045 152.808C53.3012 151.886 52.6988 150.835 52.2971 149.654C51.9191 148.449 51.7301 147.209 51.7301 145.933V130.128H55.2385V145.72C55.2385 146.571 55.3448 147.421 55.5574 148.272C55.77 149.099 56.1126 149.843 56.5851 150.504C57.0812 151.166 57.7191 151.697 58.4987 152.099C59.302 152.501 60.2942 152.701 61.4755 152.701C62.6331 152.701 63.6136 152.501 64.4168 152.099C65.2201 151.697 65.8579 151.166 66.3304 150.504C66.8266 149.843 67.181 149.099 67.3936 148.272C67.6062 147.421 67.7125 146.571 67.7125 145.72V130.128H71.2208V145.933C71.2208 147.209 71.02 148.449 70.6184 149.654C70.2404 150.835 69.6498 151.886 68.8465 152.808C68.0433 153.729 67.0274 154.473 65.7989 155.04C64.5704 155.584 63.1292 155.855 61.4755 155.855ZM85.9244 139.483L91.8779 130.128H95.9887L87.9798 141.999L97.0873 155.218H92.6576L85.7827 144.657L79.0495 155.218H74.7261L83.6918 141.928L75.6121 130.128H79.9L85.9244 139.483ZM17.058 166.128H25.6694C27.2759 166.128 28.8824 166.364 30.4889 166.836C32.0954 167.309 33.5483 168.053 34.8477 169.069C36.1471 170.085 37.1984 171.384 38.0017 172.967C38.8049 174.55 39.2065 176.452 39.2065 178.673C39.2065 180.822 38.8049 182.689 38.0017 184.272C37.1984 185.831 36.1471 187.13 34.8477 188.17C33.5483 189.186 32.0954 189.954 30.4889 190.473C28.8824 190.969 27.2759 191.218 25.6694 191.218H17.058V166.128ZM20.5663 188.134H24.9606C26.4726 188.134 27.8665 187.922 29.1422 187.497C30.4416 187.071 31.552 186.457 32.4734 185.654C33.4184 184.851 34.1508 183.858 34.6705 182.677C35.1903 181.496 35.4501 180.161 35.4501 178.673C35.4501 177.113 35.1903 175.743 34.6705 174.562C34.1508 173.381 33.4184 172.4 32.4734 171.621C31.552 170.817 30.4416 170.215 29.1422 169.813C27.8665 169.388 26.4726 169.175 24.9606 169.175H20.5663V188.134ZM47.5252 188.099H60.6372V191.218H44.0169V166.128H60.1056V169.211H47.5252V176.724H59.3614V179.736H47.5252V188.099ZM77.7743 170.77C77.2782 170.085 76.6049 169.53 75.7544 169.104C74.9039 168.656 73.947 168.431 72.8839 168.431C72.3169 168.431 71.7381 168.514 71.1475 168.679C70.5805 168.821 70.0607 169.069 69.5882 169.423C69.1157 169.754 68.7259 170.179 68.4188 170.699C68.1353 171.195 67.9935 171.798 67.9935 172.506C67.9935 173.192 68.1235 173.77 68.3833 174.243C68.6668 174.692 69.033 175.082 69.4819 175.412C69.9544 175.719 70.4978 175.991 71.112 176.227C71.7499 176.44 72.4232 176.664 73.132 176.901C73.9825 177.161 74.8448 177.456 75.7189 177.787C76.5931 178.117 77.3845 178.554 78.0933 179.098C78.802 179.641 79.3808 180.326 79.8297 181.153C80.2786 181.956 80.503 182.984 80.503 184.236C80.503 185.536 80.2549 186.67 79.7588 187.638C79.2863 188.583 78.6484 189.375 77.8452 190.013C77.0419 190.627 76.1087 191.088 75.0456 191.395C74.0061 191.702 72.9312 191.855 71.8208 191.855C70.2379 191.855 68.7023 191.548 67.2139 190.934C65.7491 190.32 64.5324 189.41 63.5638 188.205L66.2925 185.902C66.8831 186.776 67.6746 187.485 68.6668 188.028C69.6591 188.572 70.734 188.843 71.8917 188.843C72.4823 188.843 73.0729 188.761 73.6635 188.595C74.2542 188.43 74.7857 188.17 75.2582 187.816C75.7544 187.461 76.156 187.024 76.4631 186.504C76.7702 185.961 76.9238 185.311 76.9238 184.555C76.9238 183.799 76.7584 183.173 76.4277 182.677C76.1206 182.157 75.6953 181.72 75.1519 181.366C74.6086 181.011 73.9707 180.716 73.2383 180.48C72.5295 180.22 71.7735 179.96 70.9703 179.7C70.167 179.464 69.3756 179.181 68.596 178.85C67.8163 178.495 67.1194 178.058 66.5051 177.539C65.8909 176.995 65.3948 176.334 65.0168 175.554C64.6388 174.774 64.4498 173.806 64.4498 172.648C64.4498 171.396 64.6978 170.321 65.194 169.423C65.7137 168.526 66.3752 167.781 67.1785 167.191C68.0053 166.6 68.9267 166.175 69.9426 165.915C70.9821 165.632 72.0216 165.49 73.0611 165.49C74.5259 165.49 75.8961 165.75 77.1719 166.269C78.4476 166.789 79.4753 167.486 80.2549 168.36L77.7743 170.77ZM88.9845 191.218H85.4762V166.128H88.9845V191.218ZM114.021 171.302C113.265 170.475 112.296 169.813 111.115 169.317C109.957 168.821 108.658 168.573 107.217 168.573C105.752 168.573 104.429 168.845 103.248 169.388C102.066 169.908 101.062 170.628 100.235 171.55C99.4085 172.471 98.7707 173.546 98.3218 174.774C97.8729 175.979 97.6485 177.267 97.6485 178.637C97.6485 180.031 97.8729 181.342 98.3218 182.571C98.7707 183.799 99.4085 184.874 100.235 185.796C101.062 186.693 102.078 187.402 103.283 187.922C104.488 188.442 105.835 188.701 107.323 188.701C108.504 188.701 109.591 188.595 110.583 188.383C111.575 188.17 112.438 187.863 113.17 187.461V180.48H107.606V177.503H116.643V189.658C115.32 190.367 113.879 190.91 112.32 191.288C110.76 191.666 109.059 191.855 107.217 191.855C105.256 191.855 103.448 191.536 101.795 190.899C100.165 190.237 98.7588 189.328 97.5776 188.17C96.3963 186.989 95.475 185.595 94.8135 183.988C94.1519 182.358 93.8212 180.574 93.8212 178.637C93.8212 176.676 94.1519 174.893 94.8135 173.286C95.4986 171.656 96.4318 170.274 97.613 169.14C98.8179 167.982 100.235 167.084 101.866 166.447C103.496 165.809 105.268 165.49 107.181 165.49C109.189 165.49 110.973 165.785 112.532 166.376C114.115 166.966 115.426 167.758 116.466 168.75L114.021 171.302ZM140.362 186.185H140.433V166.128H143.941V191.218H139.512L126.258 170.735H126.187V191.218H122.679V166.128H127.25L140.362 186.185ZM153.561 188.099H166.673V191.218H150.053V166.128H166.142V169.211H153.561V176.724H165.397V179.736H153.561V188.099ZM174.845 191.218H171.336V166.128H179.381C180.586 166.128 181.731 166.258 182.818 166.517C183.905 166.754 184.85 167.144 185.653 167.687C186.48 168.23 187.13 168.951 187.602 169.849C188.075 170.723 188.311 171.798 188.311 173.073C188.311 174.916 187.744 176.405 186.61 177.539C185.476 178.673 184.011 179.393 182.216 179.7L189.232 191.218H184.98L178.601 180.055H174.845V191.218ZM174.845 177.113H178.885C179.711 177.113 180.479 177.042 181.188 176.901C181.897 176.759 182.511 176.535 183.031 176.227C183.574 175.897 183.999 175.483 184.306 174.987C184.614 174.467 184.767 173.829 184.767 173.073C184.767 172.317 184.614 171.691 184.306 171.195C183.999 170.676 183.586 170.262 183.066 169.955C182.57 169.648 181.979 169.435 181.294 169.317C180.609 169.175 179.889 169.104 179.133 169.104H174.845V177.113Z" fill="white"/>
</svg>
