<svg width="40" height="40" viewBox="0 0 40 40" fill="none" xmlns="http://www.w3.org/2000/svg">
<path fill-rule="evenodd" clip-rule="evenodd" d="M9.23355 5L13.3713 9.13778L15.8744 6.63469C16.862 5.64713 18.5491 6.3715 18.5131 7.76765V16.6749C18.492 17.4976 17.6473 18.4502 16.8246 18.4713L7.80954 18.4712C6.41339 18.5072 5.68902 16.8201 6.67658 15.8325L9.13778 13.3713L5 9.23354L9.23355 5ZM30.7665 34.9357L26.6287 30.7979L24.1256 33.301C23.138 34.2886 21.4509 33.5642 21.4869 32.168L21.4869 23.2173C21.508 22.3946 22.4381 21.4857 23.2608 21.4645L32.1905 21.4645C33.5866 21.4285 34.311 23.1156 33.3234 24.1032L30.8622 26.5644L35 30.7021L30.7665 34.9357ZM9.15876 26.5643L5.02096 30.7021L9.25451 34.9357L13.3923 30.7979L15.8535 33.259C16.841 34.2466 18.5281 33.5222 18.4922 32.1261L18.4922 23.1324C18.471 22.3097 17.4976 21.4436 16.6749 21.4224L7.78858 21.4225C6.39243 21.3866 5.66806 23.0736 6.65561 24.0612L9.15876 26.5643ZM34.979 9.23354L30.8412 13.3713L33.3444 15.8745C34.3319 16.862 33.6076 18.5491 32.2114 18.5132L23.2608 18.5132C22.4381 18.492 21.529 17.4976 21.5078 16.6749L21.5078 7.80959C21.4719 6.41344 23.159 5.68907 24.1465 6.67663L26.6077 9.13779L30.7455 5L34.979 9.23354Z" fill="black"/>
</svg>
